<?xml version="1.0" encoding="utf-8"?>
<svg version="1.1" id="Layer_1" xmlns="http://www.w3.org/2000/svg"  x="0px" y="0px"
     viewBox="0 0 751.3 753.2" style="enable-background:new 0 0 751.3 753.2;" xml:space="preserve">
<style type="text/css">
	.st0{fill-rule:evenodd;clip-rule:evenodd;}
	.st1{fill:url(#SVGID_1_);}
	.st2{fill-rule:evenodd;clip-rule:evenodd;fill:url(#SVGID_2_);}
	.st3{fill-rule:evenodd;clip-rule:evenodd;fill:url(#SVGID_3_);}
</style>
  <path class="st0" d="M27.6,248.8v87.4H0v-87.4H27.6z"/>
  <path class="st0" d="M751.3,248.7v87.5h-27.6v-87.5H751.3z"/>
  <path class="st0" d="M433.9,146.6H329.6V0h104.2V146.6z"/>
  <path class="st0" d="M68.3,146.5v292.7H27.7V146.5H68.3z"/>
  <path class="st0" d="M681.3,438.9V146.3h42.4v292.6H681.3z"/>
  <path class="st0" d="M681.9,292.6v146.6H68.3V292.6H681.9z"/>
  <path class="st0" d="M681.6,235.8v17.1H68v-17.1H681.6z"/>
  <path class="st0" d="M681.4,146.3v17.2H67.9v-17.2H681.4z"/>
  <linearGradient id="SVGID_1_" gradientUnits="userSpaceOnUse" x1="169.923" y1="453.0882" x2="169.923" y2="600.4029">
	<stop  offset="0" style="stop-color:#F793F1"/>
    <stop  offset="1" style="stop-color:#ACC8FA"/>
</linearGradient>
  <path class="st1" d="M271.6,453.1v147.3H68.2V453.1H271.6z"/>
  <linearGradient id="SVGID_2_" gradientUnits="userSpaceOnUse" x1="373.0055" y1="453.0861" x2="373.0055" y2="685.4334">
	<stop  offset="0" style="stop-color:#4EFC8E"/>
    <stop  offset="1" style="stop-color:#F6FF68"/>
</linearGradient>
  <path class="st2" d="M474.8,453.1v232.3H271.2V453.1H474.8z"/>
  <linearGradient id="SVGID_3_" gradientUnits="userSpaceOnUse" x1="576.6358" y1="453.0915" x2="576.6358" y2="753.2393">
	<stop  offset="0" style="stop-color:#FFB279"/>
    <stop  offset="1" style="stop-color:#FF70A2"/>
</linearGradient>
  <path class="st3" d="M678.4,453.1v300.1H474.8V453.1H678.4z"/>
</svg>
