<svg id="Layer_1" data-name="Layer 1" xmlns="http://www.w3.org/2000/svg" viewBox="0 0 1079.82 886.99"><path d="M254.45,117.65c-57.19,55.85-107.56,104-156.71,153.51-22.42,22.59-40.44,29.63-60.8,18.34C4.22,271.31-1.35,242.87,25.78,214.64c55.78-58,113-114.7,170.1-171.5C251.23-11.94,244.27-17.2,305,44.4c52.24,53,105.27,105.1,157.86,157.76,37.87,37.92,37.52,56-.81,93.9Q300.58,455.84,139.31,615.81c-27.5,27.29-27.27,27.53.1,54.89q38.06,38,76.13,76c25.79,25.72,28,25.76,53.28.42q159-159.18,318-318.4c42-42,58.13-43.35,100.23-1.63Q875,613.32,1061.22,801.27c29.46,29.66,22.85,66.16-12.58,80-23.16,9-40.13-4.19-55.07-18.29-29.31-27.67-57.33-56.71-85.79-85.27q-119.6-120-239.11-240c-29.4-29.49-33.87-29.59-62.37-.85q-124,125-247.89,250C330,815.42,301.17,843.63,271.3,870.6c-24.39,22-40.26,21.89-63-.52C143.23,805.84,79,740.71,14.3,676.16c-18.42-18.36-18.1-37.92-4.59-58,6.43-9.56,14.69-18,22.89-26.22,107.11-107.21,213.9-214.69,322-320.89,18.81-18.49,17.94-28.82-.42-46.72C319.61,190.65,288,153.94,254.45,117.65Z" transform="translate(0.02 0)" fill="#fcd126"/></svg>