<svg id="Layer_1" data-name="Layer 1" xmlns="http://www.w3.org/2000/svg" xmlns:xlink="http://www.w3.org/1999/xlink" viewBox="0 0 693.54 125.94"><defs><linearGradient id="무제_그라디언트_14" x1="134.5" y1="77.5" x2="171.5" y2="40.5" gradientUnits="userSpaceOnUse"><stop offset="0" stop-color="#8de971"/><stop offset="1" stop-color="#2bc9af"/></linearGradient><linearGradient id="무제_그라디언트_14-2" x1="329" y1="82" x2="371" y2="40" xlink:href="#무제_그라디언트_14"/><linearGradient id="무제_그라디언트_10" x1="619.75" y1="81.75" x2="662.25" y2="39.25" xlink:href="#무제_그라디언트_14"/><linearGradient id="무제_그라디언트_14-3" x1="619.25" y1="82.25" x2="662.75" y2="38.75" xlink:href="#무제_그라디언트_14"/><clipPath id="clip-path" transform="translate(-15.46 0.52)"><rect x="37" y="21" width="82.8" height="82.8" fill="none"/></clipPath><clipPath id="clip-path-2" transform="translate(-15.46 0.52)"><path d="M51,44.84,78.43,60.7,105.9,44.84,78.43,29Zm13.74,12.6V89.16L76.4,95.92V64.2Zm-4-2.34L48.93,48.34V80.06l11.72,6.76Zm47.28,6.77V48.34L80.46,64.2V77.73ZM80.46,82.4V95.92l27.47-15.86V66.54Z" fill="none"/></clipPath><linearGradient id="linear-gradient" x1="-170.26" y1="9.75" x2="-170.18" y2="9.75" gradientTransform="matrix(806.15, 0, 0, -806.15, 137296.96, 7920.68)" xlink:href="#무제_그라디언트_14"/></defs><path d="M137,62h32V58h4V42h-4V38H137v4h-4V58h4Zm4-12.42V46h24v8H141ZM171,66h4v8H157V86h-8V74H131V66h40Z" transform="translate(-15.46 0.52)" fill="url(#무제_그라디언트_14)"/><polygon points="181.54 38.52 177.54 38.52 173.54 38.52 169.54 38.52 165.54 38.52 161.54 38.52 161.54 42.1 161.54 46.52 165.54 46.52 169.54 46.52 173.54 46.52 177.54 46.52 181.54 46.52 181.54 50.1 181.54 54.52 177.54 54.52 173.54 54.52 169.54 54.52 165.54 54.52 161.54 54.52 161.54 58.1 161.54 62.1 161.54 66.1 161.54 70.1 161.54 74.1 161.54 78.1 161.54 82.52 165.54 82.52 169.54 82.52 173.54 82.52 177.54 82.52 181.54 82.52 185.54 82.52 185.54 78.52 187.54 78.52 189.54 78.52 189.54 74.1 189.54 70.52 187.54 70.52 183.54 70.52 181.54 70.52 181.54 74.52 179.54 74.52 177.54 74.52 173.54 74.52 169.54 74.52 169.54 70.1 169.54 66.1 169.54 62.52 173.54 62.52 177.54 62.52 181.54 62.52 185.54 62.52 189.54 62.52 189.54 58.1 189.54 54.1 189.54 50.1 189.54 46.1 189.54 42.1 189.54 38.52 185.54 38.52 181.54 38.52" fill="#fff"/><polygon points="193.54 38.52 193.54 42.1 193.54 46.1 193.54 50.1 193.54 54.1 193.54 58.1 193.54 62.1 193.54 66.1 193.54 70.1 193.54 74.1 193.54 78.1 193.54 82.1 193.54 86.52 197.54 86.52 201.54 86.52 201.54 82.1 201.54 78.1 201.54 74.1 201.54 70.1 201.54 66.1 201.54 62.1 201.54 58.1 201.54 54.1 201.54 50.1 201.54 46.1 201.54 42.1 201.54 38.52 197.54 38.52 193.54 38.52" fill="#fff"/><polygon points="217.54 56.52 221.54 56.52 225.54 56.52 229.54 56.52 233.54 56.52 237.54 56.52 241.54 56.52 245.54 56.52 249.54 56.52 249.54 54.1 249.54 50.1 249.54 48.52 245.54 48.52 241.54 48.52 237.54 48.52 233.54 48.52 229.54 48.52 225.54 48.52 221.54 48.52 217.54 48.52 217.54 46.52 221.54 46.52 225.54 46.52 229.54 46.52 233.54 46.52 237.54 46.52 241.54 46.52 245.54 46.52 249.54 46.52 249.54 42.1 249.54 38.52 245.54 38.52 241.54 38.52 237.54 38.52 233.54 38.52 229.54 38.52 225.54 38.52 221.54 38.52 217.54 38.52 213.54 38.52 209.54 38.52 209.54 42.1 209.54 46.1 209.54 50.1 209.54 54.1 209.54 56.52 213.54 56.52 217.54 56.52" fill="#fff"/><polygon points="243.54 58.52 239.54 58.52 235.54 58.52 231.54 58.52 227.54 58.52 223.54 58.52 219.54 58.52 215.54 58.52 211.54 58.52 207.54 58.52 207.54 62.1 207.54 66.52 211.54 66.52 215.54 66.52 219.54 66.52 223.54 66.52 227.54 66.52 231.54 66.52 235.54 66.52 239.54 66.52 243.54 66.52 247.54 66.52 251.54 66.52 251.54 62.1 251.54 58.52 247.54 58.52 243.54 58.52" fill="#fff"/><polygon points="241.54 68.52 237.54 68.52 233.54 68.52 229.54 68.52 225.54 68.52 221.54 68.52 217.54 68.52 213.54 68.52 209.54 68.52 209.54 70.1 209.54 73.52 213.54 73.52 217.54 73.52 221.54 73.52 225.54 73.52 229.54 73.52 233.54 73.52 237.54 73.52 241.54 73.52 241.54 74.52 237.54 74.52 233.54 74.52 229.54 74.52 225.54 74.52 221.54 74.52 217.54 74.52 213.54 74.52 209.54 74.52 209.54 78.1 209.54 82.1 209.54 86.52 213.54 86.52 217.54 86.52 221.54 86.52 225.54 86.52 229.54 86.52 233.54 86.52 237.54 86.52 241.54 86.52 245.54 86.52 249.54 86.52 249.54 82.1 249.54 81.52 245.54 81.52 241.54 81.52 237.54 81.52 233.54 81.52 229.54 81.52 225.54 81.52 221.54 81.52 217.54 81.52 217.54 80.52 221.54 80.52 225.54 80.52 229.54 80.52 233.54 80.52 237.54 80.52 241.54 80.52 245.54 80.52 249.54 80.52 249.54 78.1 249.54 74.1 249.54 70.1 249.54 68.52 245.54 68.52 241.54 68.52" fill="#fff"/><path d="M275,70h20V66h4V42h-4V38H275v4h-4V66h4Zm4-12.42V46h12V62H279Z" transform="translate(-15.46 0.52)" fill="#fff"/><polygon points="285.54 38.52 285.54 42.1 285.54 46.1 285.54 50.1 285.54 54.1 285.54 58.1 285.54 62.1 285.54 66.1 285.54 70.1 285.54 74.52 281.54 74.52 277.54 74.52 273.54 74.52 269.54 74.52 265.54 74.52 261.54 74.52 257.54 74.52 253.54 74.52 253.54 78.1 253.54 82.52 257.54 82.52 261.54 82.52 265.54 82.52 269.54 82.52 273.54 82.52 277.54 82.52 281.54 82.52 285.54 82.52 285.54 86.52 289.54 86.52 293.54 86.52 293.54 82.1 293.54 78.1 293.54 74.1 293.54 70.1 293.54 66.1 293.54 62.1 293.54 58.1 293.54 54.1 293.54 50.1 293.54 46.1 293.54 42.1 293.54 38.52 289.54 38.52 285.54 38.52" fill="#fff"/><path d="M349,38H329V82h28V38h-8Zm0,11.58V74H337V46h12ZM369,54h4V66h-4V86h-8V38h8V54Z" transform="translate(-15.46 0.52)" fill="url(#무제_그라디언트_14-2)"/><path d="M379,66h20V62h4V42h-4V38H379v4h-4V62h4Zm4-12.42V46h12V58H383Z" transform="translate(-15.46 0.52)" fill="#fff"/><polygon points="391.54 38.52 391.54 42.1 391.54 46.1 391.54 50.1 391.54 54.1 391.54 58.1 391.54 62.1 391.54 66.1 391.54 70.52 395.54 70.52 399.54 70.52 399.54 66.1 399.54 62.1 399.54 58.1 399.54 54.1 399.54 50.1 399.54 46.1 399.54 42.1 399.54 38.52 395.54 38.52 391.54 38.52" fill="#fff"/><polygon points="391.54 78.52 387.54 78.52 383.54 78.52 379.54 78.52 375.54 78.52 371.54 78.52 371.54 74.1 371.54 70.52 367.54 70.52 363.54 70.52 363.54 74.1 363.54 78.1 363.54 82.1 363.54 86.52 367.54 86.52 371.54 86.52 375.54 86.52 379.54 86.52 383.54 86.52 387.54 86.52 391.54 86.52 395.54 86.52 399.54 86.52 399.54 82.1 399.54 78.52 395.54 78.52 391.54 78.52" fill="#fff"/><polygon points="441.54 78.52 437.54 78.52 433.54 78.52 429.54 78.52 425.54 78.52 421.54 78.52 417.54 78.52 413.54 78.52 409.54 78.52 405.54 78.52 405.54 82.1 405.54 86.52 409.54 86.52 413.54 86.52 417.54 86.52 421.54 86.52 425.54 86.52 429.54 86.52 433.54 86.52 437.54 86.52 441.54 86.52 445.54 86.52 449.54 86.52 449.54 82.1 449.54 78.52 445.54 78.52 441.54 78.52" fill="#fff"/><polygon points="467.54 38.52 463.54 38.52 459.54 38.52 455.54 38.52 451.54 38.52 451.54 42.1 451.54 46.52 455.54 46.52 459.54 46.52 463.54 46.52 465.54 46.52 465.54 50.1 465.54 54.52 463.54 54.52 459.54 54.52 455.54 54.52 451.54 54.52 451.54 58.1 451.54 62.1 451.54 66.1 451.54 70.1 451.54 74.1 451.54 78.1 451.54 82.52 455.54 82.52 459.54 82.52 463.54 82.52 467.54 82.52 469.54 82.52 469.54 78.52 471.54 78.52 473.54 78.52 473.54 74.1 473.54 70.52 471.54 70.52 467.54 70.52 465.54 70.52 465.54 74.52 463.54 74.52 459.54 74.52 459.54 70.1 459.54 66.1 459.54 62.52 463.54 62.52 467.54 62.52 471.54 62.52 473.54 62.52 473.54 58.1 473.54 54.1 473.54 50.1 473.54 46.1 473.54 42.1 473.54 38.52 471.54 38.52 467.54 38.52" fill="#fff"/><polygon points="485.54 38.52 485.54 42.1 485.54 46.1 485.54 50.1 485.54 54.52 483.54 54.52 483.54 50.1 483.54 46.1 483.54 42.1 483.54 38.52 479.54 38.52 475.54 38.52 475.54 42.1 475.54 46.1 475.54 50.1 475.54 54.1 475.54 58.1 475.54 62.1 475.54 66.1 475.54 70.1 475.54 74.1 475.54 78.1 475.54 82.1 475.54 86.52 479.54 86.52 483.54 86.52 483.54 82.1 483.54 78.1 483.54 74.1 483.54 70.1 483.54 66.52 485.54 66.52 485.54 70.1 485.54 74.1 485.54 78.1 485.54 82.1 485.54 86.52 489.54 86.52 493.54 86.52 493.54 82.1 493.54 78.1 493.54 74.1 493.54 70.1 493.54 66.1 493.54 62.1 493.54 58.1 493.54 54.1 493.54 50.1 493.54 46.1 493.54 42.1 493.54 38.52 489.54 38.52 485.54 38.52" fill="#fff"/><path d="M523,74h32V66h-4V46h4V38H515v8h4V66h-4v8h8Zm4-12.42V46h16V66H527Z" transform="translate(-15.46 0.52)" fill="#fff"/><polygon points="533.54 78.52 529.54 78.52 525.54 78.52 521.54 78.52 517.54 78.52 513.54 78.52 509.54 78.52 505.54 78.52 501.54 78.52 497.54 78.52 497.54 82.1 497.54 86.52 501.54 86.52 505.54 86.52 509.54 86.52 513.54 86.52 517.54 86.52 521.54 86.52 525.54 86.52 529.54 86.52 533.54 86.52 537.54 86.52 541.54 86.52 541.54 82.1 541.54 78.52 537.54 78.52 533.54 78.52" fill="#fff"/><polygon points="553.54 74.52 557.54 74.52 561.54 74.52 565.54 74.52 569.54 74.52 573.54 74.52 577.54 74.52 581.54 74.52 585.54 74.52 585.54 70.1 585.54 66.52 581.54 66.52 577.54 66.52 573.54 66.52 569.54 66.52 565.54 66.52 561.54 66.52 557.54 66.52 553.54 66.52 553.54 62.1 553.54 60.52 557.54 60.52 561.54 60.52 565.54 60.52 569.54 60.52 573.54 60.52 577.54 60.52 581.54 60.52 585.54 60.52 585.54 56.1 585.54 52.52 581.54 52.52 577.54 52.52 573.54 52.52 569.54 52.52 565.54 52.52 561.54 52.52 557.54 52.52 553.54 52.52 553.54 50.1 553.54 46.52 557.54 46.52 561.54 46.52 565.54 46.52 569.54 46.52 573.54 46.52 577.54 46.52 581.54 46.52 585.54 46.52 585.54 42.1 585.54 38.52 581.54 38.52 577.54 38.52 573.54 38.52 569.54 38.52 565.54 38.52 561.54 38.52 557.54 38.52 553.54 38.52 549.54 38.52 545.54 38.52 545.54 42.1 545.54 46.1 545.54 50.1 545.54 54.1 545.54 58.1 545.54 62.1 545.54 66.1 545.54 70.1 545.54 74.52 549.54 74.52 553.54 74.52" fill="#fff"/><polygon points="579.54 78.52 575.54 78.52 571.54 78.52 567.54 78.52 563.54 78.52 559.54 78.52 555.54 78.52 551.54 78.52 547.54 78.52 543.54 78.52 543.54 82.1 543.54 86.52 547.54 86.52 551.54 86.52 555.54 86.52 559.54 86.52 563.54 86.52 567.54 86.52 571.54 86.52 575.54 86.52 579.54 86.52 583.54 86.52 587.54 86.52 587.54 82.1 587.54 78.52 583.54 78.52 579.54 78.52" fill="#fff"/><polygon points="681.54 78.52 677.54 78.52 673.54 78.52 669.54 78.52 665.54 78.52 661.54 78.52 661.54 74.1 661.54 70.52 657.54 70.52 653.54 70.52 653.54 74.1 653.54 78.1 653.54 82.1 653.54 86.52 657.54 86.52 661.54 86.52 665.54 86.52 669.54 86.52 673.54 86.52 677.54 86.52 681.54 86.52 685.54 86.52 689.54 86.52 689.54 82.1 689.54 78.52 685.54 78.52 681.54 78.52" fill="#fff"/><polygon points="689.54 48.52 689.54 46.1 689.54 42.1 689.54 38.52 685.54 38.52 681.54 38.52 681.54 42.1 681.54 46.1 681.54 50.1 681.54 54.1 681.54 58.1 681.54 62.1 681.54 66.1 681.54 70.52 685.54 70.52 689.54 70.52 689.54 66.1 689.54 62.1 689.54 60.52 693.54 60.52 693.54 56.1 693.54 52.1 693.54 48.52 689.54 48.52" fill="#fff"/><polygon points="673.54 38.52 669.54 38.52 665.54 38.52 661.54 38.52 657.54 38.52 653.54 38.52 649.54 38.52 649.54 42.1 649.54 46.52 653.54 46.52 657.54 46.52 661.54 46.52 665.54 46.52 669.54 46.52 669.54 50.1 669.54 54.52 665.54 54.52 665.54 58.52 661.54 58.52 661.54 62.1 661.54 66.52 665.54 66.52 669.54 66.52 673.54 66.52 673.54 62.52 677.54 62.52 677.54 58.1 677.54 54.1 677.54 50.1 677.54 46.1 677.54 42.1 677.54 38.52 673.54 38.52" fill="#fff"/><path d="M659,58h4v8H619V58h16V54h12v4h12Zm-2,13h4V83h-4v3H625V83h-4V71h4V68h32v3Zm-4,6.58V75H629v4h24ZM657,38H621v8h32v8h8V38Z" transform="translate(-15.46 0.52)" stroke-miterlimit="10" fill="url(#무제_그라디언트_10)" stroke="url(#무제_그라디언트_14-3)"/><polygon points="443.54 38.52 439.54 38.52 435.54 38.52 431.54 38.52 427.54 38.52 423.54 38.52 419.54 38.52 415.54 38.52 411.54 38.52 407.54 38.52 407.54 42.1 407.54 46.52 411.54 46.52 415.54 46.52 419.54 46.52 423.54 46.52 427.54 46.52 431.54 46.52 435.54 46.52 439.54 46.52 439.54 50.1 439.54 54.52 435.54 54.52 431.54 54.52 427.54 54.52 423.54 54.52 419.54 54.52 415.54 54.52 411.54 54.52 407.54 54.52 407.54 58.1 407.54 62.52 411.54 62.52 415.54 62.52 419.54 62.52 423.54 62.52 427.54 62.52 431.54 62.52 435.54 62.52 439.54 62.52 439.54 66.52 435.54 66.52 435.54 70.1 435.54 74.52 439.54 74.52 443.54 74.52 443.54 70.52 447.54 70.52 447.54 66.1 447.54 62.1 447.54 58.1 447.54 54.1 447.54 50.1 447.54 46.1 447.54 42.1 447.54 38.52 443.54 38.52" fill="#fff"/><g clip-path="url(#clip-path)"><polygon points="62.97 29.5 90.44 45.36 62.97 61.22 35.49 45.36 62.97 29.5" fill="#fff"/><polygon points="49.23 57.96 49.23 89.68 60.94 96.44 60.94 64.72 49.23 57.96" fill="#fff"/><polygon points="45.19 55.62 33.47 48.86 33.47 80.58 45.19 87.34 45.19 55.62" fill="#fff"/><polygon points="92.47 62.39 92.47 48.86 65 64.72 65 78.25 92.47 62.39" fill="#fff"/><polygon points="65 82.92 65 96.44 92.47 80.58 92.47 67.06 65 82.92" fill="#fff"/><g clip-path="url(#clip-path-2)"><rect x="33.9" y="17.92" width="89.05" height="89.05" transform="translate(-36.65 74.27) rotate(-45)" fill="url(#linear-gradient)"/></g></g></svg>