<svg version="1.1" xmlns="http://www.w3.org/2000/svg" xmlns:xlink="http://www.w3.org/1999/xlink" x="0px"
     y="0px" width="3903px" height="1080px" viewBox="0 0 3903 1080">
<g>
	<defs>
		<rect id="SVGID_1_" width="3903" height="1080"/>
	</defs>
  <clipPath id="SVGID_2_">
		<use xlink:href="#SVGID_1_" />
	</clipPath>
  <path clip-path="url(#SVGID_2_)" fill="none" stroke="#FFFFFF" stroke-width="12" stroke-miterlimit="10" d="M2803.6,613.8h-166
		c-21.7,0-39.5,17.8-39.5,39.5v166c0,21.7,17.8,39.5,39.5,39.5h166c21.7,0,39.5-17.8,39.5-39.5v-166
		C2843.1,631.6,2825.3,613.8,2803.6,613.8z"/>
  <path clip-path="url(#SVGID_2_)" fill="none" stroke="#FFFFFF" stroke-width="12" stroke-miterlimit="10" d="M3052.4,855.1
		c-36.7,20.5-68.6,20.4-86.6,11.4c-8.5-4.5-9.4-17.7-1.3-23.2c11-7.4,52-55.2,50.9-180c0,0-65.9-131-110.9-149
		c-14.6,14.1-40.5,52.8-74,75c-14.1,9.3-31.8,14.2-46.4,15.4c-17.8,1.4-28.7,1.4-27.6-11.4c1-11.4,58.9-93.3,71.6-148.3
		c1.5-6.7,2.4-13,2.4-18.7c0.4-6.4-0.1-12.1-1.4-17.4c-0.2-0.8-0.4-1.7-0.6-2.5c-4.8-16.9-17.2-30.7-32.7-55.4
		c-21.5-34.5-62-34.5-69.5-61.9c-0.7-5.4-5.5-20.6-0.2-27.3c6.6-4.4,32.6-6.4,52.4-7.4c10.4-0.1,16.8-4.5,22.2-10
		c28-27,52.7-31.3,85.8-30c10.2-9,22-17.3,37-21c10-1.3,17.8,2.4,21,7c6.4,11.6,5.1,15.1,5,30.8c173.2,129.1,490.3,324.2,247,532
		c-36.1,48.2-36.9,82.5-47,94c-26.1,29.9-142.8,49.2-96.3-3c8.9-10.9,14.5-17.8,20.2-34c20-102-11-139-58-157"/>
  <path clip-path="url(#SVGID_2_)" fill="#FFFFFF" d="M719.7,733.2h84.5c0.2,0.7,0.2,3.5,0.2,5.8c0.5,52.4-31.2,91.3-87.4,91.3
		c-50.7,0-89.4-36.8-89.4-90.8s38.6-90.8,89.4-90.8c32.1,0,59.2,14.7,74.9,38.9l-14.7,9c-12.6-20.9-35-33.1-60.1-33.1
		c-39.8,0-71.2,30.4-71.2,76.1s31.4,76.1,71.2,76.1c43.7,0,68.3-28.8,69.8-67.8h-67.1V733.2z"/>
  <path clip-path="url(#SVGID_2_)" fill="#FFFFFF" d="M908.1,653.1h66.2c33.8,0,54.6,19.5,54.6,43.2c0,17-11.1,28.3-21.3,33.6
		c15,5.3,35.7,18.4,35.7,45.5c0,26.9-24.4,50.1-61.8,50.1h-73.4V653.1z M926,667.9v57.3h48.3c22.5,0,36.7-12.9,36.7-28.7
		c0-15.9-14.2-28.5-36.7-28.5H926z M926,739.8v71.1h55.5c26.3,0,44-16.3,44-35.4c0-19.3-17.6-35.6-44-35.6H926z"/>
  <polygon clip-path="url(#SVGID_2_)" fill="#FFFFFF" points="1168.7,825.6 1150.8,825.6 1150.8,653.1 1270.3,653.1 1270.3,667.9
		1168.7,667.9 1168.7,733.6 1253.4,733.6 1253.4,748.4 1168.7,748.4 	"/>
  <path clip-path="url(#SVGID_2_)" fill="#FFFFFF" d="M1629,680.3c-10.4-10.4-25.1-17-42.5-17c-24.2,0-37.7,13.6-37.7,28.8
		c0,13.3,8,22.3,28.3,30.6l25.8,10.4c15.9,6.4,45.6,16.1,45.6,48.3c0,26.7-24.9,49-61.8,49c-32.6,0-56.3-20.2-65.2-35.4l12.1-11
		c8.2,15.4,29,31.7,53.1,31.7c26.6,0,44-15,44-34.3c0-10.1-4.6-21.8-32.4-32.9l-26.3-10.1c-30.4-12.2-41.1-27.1-41.1-46.2
		c0-24.4,21.7-43.5,55.5-43.5c23.9,0,41.8,9,53.9,21.6L1629,680.3z"/>
  <polygon clip-path="url(#SVGID_2_)" fill="#FFFFFF" points="1801.2,667.9 1737.6,667.9 1737.6,653.1 1882.5,653.1 1882.5,667.9
		1819,667.9 1819,825.6 1801.2,825.6 	"/>
  <path clip-path="url(#SVGID_2_)" fill="#FFFFFF" d="M1987.6,760.3V653.1h17.9v107.2c0,34,22,55.2,52.2,55.2s52.2-21.2,52.2-55.2
		V653.1h17.9v107.2c0,42.5-29,69.9-70,69.9C2016.6,830.2,1987.6,802.9,1987.6,760.3"/>
  <path clip-path="url(#SVGID_2_)" fill="#FFFFFF" d="M2297.7,653.1c58.2,0,96.8,37,96.8,86.2s-38.6,86.2-96.8,86.2h-48.1V653.1
		H2297.7z M2267.5,667.9v143.1h30.2c46.9,0,79-30.1,79-71.5s-32.1-71.5-79-71.5H2267.5z"/>
  <rect x="2504.4" y="653.1" clip-path="url(#SVGID_2_)" fill="#FFFFFF" width="17.9" height="172.5"/>
  <path clip-path="url(#SVGID_2_)" fill="#FFFFFF" d="M2721.5,648.5c50.7,0,89.4,36.8,89.4,90.8s-38.6,90.8-89.4,90.8
		s-89.4-36.8-89.4-90.8S2670.8,648.5,2721.5,648.5 M2721.5,663.3c-39.8,0-71.5,30.4-71.5,76.1s31.6,76.1,71.5,76.1
		c39.8,0,71.5-30.4,71.5-76.1S2761.4,663.3,2721.5,663.3"/>
</g>
</svg>
