<svg version="1.1" id="레이어_1" xmlns="http://www.w3.org/2000/svg" xmlns:xlink="http://www.w3.org/1999/xlink" x="0px"
     y="0px" width="3903px" height="1080px" viewBox="0 0 3903 1080">
  <g>
    <defs>
      <rect id="SVGID_1_" width="3903" height="1080"/>
    </defs>
    <clipPath id="SVGID_2_">
      <use xlink:href="#SVGID_1_"  overflow="visible"/>
    </clipPath>
    <path clip-path="url(#SVGID_2_)" fill="none" stroke="#231815" stroke-width="12" stroke-miterlimit="10" d="M2803.6,613.8h-166
		c-21.7,0-39.5,17.8-39.5,39.5v166c0,21.7,17.8,39.5,39.5,39.5h166c21.7,0,39.5-17.8,39.5-39.5v-166
		C2843.1,631.6,2825.3,613.8,2803.6,613.8z"/>
    <path clip-path="url(#SVGID_2_)" fill="none" stroke="#231815" stroke-width="12" stroke-miterlimit="10" d="M3052.4,855.1
		c-36.7,20.5-68.6,20.4-86.6,11.4c-8.5-4.5-9.4-17.7-1.3-23.2c11-7.4,52-55.2,50.9-180c0,0-65.9-131-110.9-149
		c-14.6,14.1-40.5,52.8-74,75c-14.1,9.3-31.8,14.2-46.4,15.4c-17.8,1.4-28.7,1.4-27.6-11.4c1-11.4,58.9-93.3,71.6-148.3
		c1.5-6.7,2.4-13,2.4-18.7c0.4-6.4-0.1-12.1-1.4-17.4c-0.2-0.8-0.4-1.7-0.6-2.5c-4.8-16.9-17.2-30.7-32.7-55.4
		c-21.5-34.5-62-34.5-69.5-61.9c-0.7-5.4-5.5-20.6-0.2-27.3c6.6-4.4,32.6-6.4,52.4-7.4c10.4-0.1,16.8-4.5,22.2-10
		c28-27,52.7-31.3,85.8-30c10.2-9,22-17.3,37-21c10-1.3,17.8,2.4,21,7c6.4,11.6,5.1,15.1,5,30.8c173.2,129.1,490.3,324.2,247,532
		c-36.1,48.2-36.9,82.5-47,94c-26.1,29.9-142.8,49.2-96.3-3c8.9-10.9,14.5-17.8,20.2-34c20-102-11-139-58-157"/>
    <path clip-path="url(#SVGID_2_)" fill="#231815" d="M717.1,829.7c-24.7,0-47.2-8.9-63.3-25c-16.5-16.4-25.5-39.6-25.5-65.3
		s9.1-48.9,25.5-65.3c16.2-16.1,38.7-25,63.3-25c31.2,0,58.2,13.9,74.2,38.2l-13.9,8.4c-12.6-20.6-35.1-32.9-60.3-32.9
		c-41.6,0-71.7,32.2-71.7,76.6s30.2,76.6,71.7,76.6c41.8,0,68.7-26.2,70.3-68.3l0-0.5h-67.2v-13.5h83.6c0.1,1,0.1,3.5,0.1,5.3
		c0.3,27.2-8.4,51-24.4,67.1C764.3,821.5,742.7,829.7,717.1,829.7"/>
    <path clip-path="url(#SVGID_2_)" d="M717.1,649.5c30.8,0,57.5,13.7,73.5,37.6l-13,7.9c-12.7-20.5-35.3-32.7-60.5-32.7
		c-41.9,0-72.2,32.4-72.2,77.1s30.4,77.1,72.2,77.1c42.1,0,69.2-26.4,70.8-68.8l0-1h-1h-66.1v-12.5h82.7c0.1,1.2,0.1,3.4,0.1,4.8
		c0.1,13.5-1.9,26.2-6,37.5c-4.1,11.4-10.2,21.2-18.2,29.3c-15.2,15.4-36.8,23.5-62.2,23.5c-24.5,0-46.9-8.8-63-24.9
		c-16.4-16.3-25.4-39.4-25.4-65c0-25.6,9-48.7,25.4-65C670.2,658.4,692.5,649.5,717.1,649.5 M717.1,648.5
		c-50.7,0-89.4,36.8-89.4,90.8s38.6,90.8,89.4,90.8c56.3,0,87.9-38.9,87.4-91.3c0-2.3,0-5.1-0.2-5.8h-84.5v14.5h67.1
		c-1.4,39.1-26.1,67.8-69.8,67.8c-39.8,0-71.2-30.4-71.2-76.1s31.4-76.1,71.2-76.1c25.1,0,47.6,12.2,60.1,33.1l14.7-9
		C776.2,663.3,749.2,648.5,717.1,648.5"/>
    <path clip-path="url(#SVGID_2_)" fill="#231815" d="M908.6,825.1V653.6h65.7c16,0,29.7,4.4,39.6,12.6c9.3,7.8,14.4,18.5,14.4,30.1
		c0,20.6-16.1,30.6-21,33.1l-1,0.5l1.1,0.4c10.6,3.8,35.4,15.7,35.4,45.1c0,28.3-26.4,49.6-61.3,49.6H908.6z M925.5,811.4h56
		c25.3,0,44.5-15.4,44.5-35.9c0-20.6-19.1-36.1-44.5-36.1h-56V811.4z M925.5,725.6h48.8c21.6,0,37.2-12.3,37.2-29.2
		c0-17.1-15.3-29-37.2-29h-48.8V725.6z"/>
    <path clip-path="url(#SVGID_2_)" d="M974.3,654.1c15.9,0,29.5,4.3,39.3,12.5c9.2,7.7,14.3,18.2,14.3,29.7
		c0,20.3-15.9,30.2-20.7,32.7l-2,1.1l2.2,0.8c10.5,3.7,35.1,15.5,35.1,44.6c0,13.1-5.9,25.3-16.5,34.4
		c-11.2,9.5-26.9,14.7-44.3,14.7h-72.4V654.1H974.3 M925,726.1h1h48.3c21.8,0,37.7-12.5,37.7-29.7c0-17.1-15.9-29.5-37.7-29.5H926
		h-1v1v57.3V726.1 M925,811.9h1h55.5c25.6,0,45-15.7,45-36.4c0-20.9-19.3-36.6-45-36.6H926h-1v1v71.1V811.9 M974.3,653.1h-66.2
		v172.5h73.4c37.4,0,61.8-23.2,61.8-50.1c0-27.1-20.8-40.2-35.7-45.5c10.1-5.3,21.3-16.6,21.3-33.6
		C1028.8,672.7,1008.1,653.1,974.3,653.1 M926,725.1v-57.3h48.3c22.5,0,36.7,12.6,36.7,28.5c0,15.9-14.2,28.7-36.7,28.7H926z
		 M926,810.9v-71.1h55.5c26.3,0,44,16.3,44,35.6c0,19.1-17.6,35.4-44,35.4H926z"/>
    <polygon clip-path="url(#SVGID_2_)" fill="#231815" points="1151.3,825.1 1151.3,653.6 1269.8,653.6 1269.8,667.4 1168.2,667.4
		1168.2,734.1 1252.9,734.1 1252.9,747.9 1168.2,747.9 1168.2,825.1 	"/>
    <path clip-path="url(#SVGID_2_)" d="M1269.3,654.1v12.7h-100.7h-1v1v65.8v1h1h83.8v12.7h-83.8h-1v1v76.3h-15.9V654.1H1269.3z
		 M1270.3,653.1h-119.5v172.5h17.9v-77.3h84.8v-14.7h-84.8v-65.8h101.7V653.1z"/>
    <path clip-path="url(#SVGID_2_)" fill="#231815" d="M1586.7,829.7c-30.1,0-54.5-18-64.6-34.8l11.3-10.3
		c8.7,15.7,29.6,31.4,53.3,31.4c25.8,0,44.5-14.6,44.5-34.8c0-9.5-3.7-21.8-32.7-33.4l-26.3-10.1c-28.2-11.3-40.7-25.4-40.7-45.8
		c0-11.9,5.3-22.7,14.9-30.5c10.1-8.2,24-12.5,40.1-12.5c26.9,0,43.7,11.4,53.1,21.1l-10.6,9.5c-11.1-10.9-26.2-16.8-42.5-16.8
		c-26.2,0-38.2,15.2-38.2,29.3c0,13.8,8.3,22.8,28.6,31.1l25.8,10.4c1,0.4,2,0.8,3.1,1.2c16.8,6.7,42.3,16.7,42.3,46.6
		C1648,808.9,1621.7,829.7,1586.7,829.7"/>
    <path clip-path="url(#SVGID_2_)" d="M1586.5,649.5c26.4,0,43,11,52.4,20.6l-9.9,8.8c-11.1-10.7-26.2-16.7-42.5-16.7
		c-26.6,0-38.7,15.4-38.7,29.8c0,14,8.4,23.1,28.9,31.5l25.8,10.3c1,0.4,2,0.8,3.1,1.2c16.7,6.6,42,16.6,42,46.2
		c0,12.9-5.9,24.9-16.7,33.7c-11.2,9.2-26.9,14.3-44.1,14.3c-29.7,0-53.8-17.6-63.9-34.2l10.5-9.6c8.9,15.7,29.8,31.1,53.4,31.1
		c26,0,45-14.8,45-35.3c0-9.6-3.8-22.2-33-33.8l-26.3-10.1c-28-11.2-40.4-25.2-40.4-45.3c0-11.7,5.2-22.4,14.7-30.1
		C1556.6,653.8,1570.4,649.5,1586.5,649.5 M1586.5,648.5c-33.8,0-55.5,19.1-55.5,43.5c0,19.1,10.6,34,41.1,46.2l26.3,10.1
		c27.8,11,32.4,22.8,32.4,32.9c0,19.3-17.4,34.3-44,34.3c-24.2,0-44.9-16.3-53.1-31.7l-12.1,11c8.9,15.2,32.6,35.4,65.2,35.4
		c36.9,0,61.8-22.3,61.8-49c0-32.2-29.7-41.9-45.6-48.3l-25.8-10.4c-20.3-8.3-28.3-17.2-28.3-30.6c0-15.2,13.5-28.8,37.7-28.8
		c17.4,0,32.1,6.7,42.5,17l11.4-10.1C1628.2,657.5,1610.4,648.5,1586.5,648.5"/>
    <polygon clip-path="url(#SVGID_2_)" fill="#231815" points="1801.7,825.1 1801.7,667.4 1738.1,667.4 1738.1,653.6 1882,653.6
		1882,667.4 1818.5,667.4 1818.5,825.1 	"/>
    <path clip-path="url(#SVGID_2_)" d="M1881.5,654.1v12.7H1819h-1v1v156.8h-15.9V667.9v-1h-1h-62.5v-12.7H1881.5z M1882.5,653.1
		h-144.9v14.7h63.5v157.8h17.9V667.9h63.5V653.1z"/>
    <path clip-path="url(#SVGID_2_)" fill="#231815" d="M2057.6,829.7c-41.6,0-69.5-27.9-69.5-69.4V653.6h16.9v106.7
		c0,33.3,21.2,55.7,52.7,55.7s52.7-22.4,52.7-55.7V653.6h16.9v106.7C2127.2,801.8,2099.2,829.7,2057.6,829.7"/>
    <path clip-path="url(#SVGID_2_)" d="M2126.7,654.1v106.2c0,41.2-27.7,68.9-69,68.9c-41.3,0-69-27.7-69-68.9V654.1h15.9v106.2
		c0,33.6,21.4,56.2,53.2,56.2s53.2-22.6,53.2-56.2V654.1H2126.7 M2127.7,653.1h-17.9v107.2c0,34-22,55.2-52.2,55.2
		s-52.2-21.2-52.2-55.2V653.1h-17.9v107.2c0,42.5,29,69.9,70,69.9s70-27.4,70-69.9V653.1z"/>
    <path clip-path="url(#SVGID_2_)" fill="#231815" d="M2250.1,825.1V653.6h47.6c28.1,0,52.3,8.5,69.9,24.5
		c17,15.5,26.4,37.2,26.4,61.2s-9.4,45.7-26.4,61.2c-17.6,16.1-41.8,24.5-69.9,24.5H2250.1z M2267,811.4h30.7
		c46.8,0,79.5-29.6,79.5-72c0-42.4-32.7-72-79.5-72H2267V811.4z"/>
    <path clip-path="url(#SVGID_2_)" d="M2297.7,654.1c28,0,52,8.4,69.6,24.4c16.9,15.4,26.3,37,26.3,60.8s-9.3,45.4-26.3,60.8
		c-17.5,16-41.6,24.4-69.6,24.4h-47.1V654.1H2297.7 M2266.5,811.9h1h30.2c47.1,0,80-29.8,80-72.5c0-42.7-32.9-72.5-80-72.5h-30.2h-1
		v1v143.1V811.9 M2297.7,653.1h-48.1v172.5h48.1c58.2,0,96.8-37,96.8-86.2S2355.9,653.1,2297.7,653.1 M2267.5,810.9V667.9h30.2
		c46.9,0,79,30.1,79,71.5s-32.1,71.5-79,71.5H2267.5z"/>
    <rect x="2504.9" y="653.6" clip-path="url(#SVGID_2_)" fill="#231815" width="16.9" height="171.5"/>
    <path clip-path="url(#SVGID_2_)" d="M2521.3,824.6h-15.9V654.1h15.9V824.6z M2522.3,653.1h-17.9v172.5h17.9V653.1z"/>
    <path clip-path="url(#SVGID_2_)" fill="#231815" d="M2721.5,829.7c-24.7,0-47.2-8.9-63.3-25c-16.5-16.4-25.5-39.6-25.5-65.3
		s9.1-48.9,25.5-65.3c16.2-16.1,38.7-25,63.3-25s47.2,8.9,63.3,25c16.5,16.4,25.5,39.6,25.5,65.3s-9.1,48.9-25.5,65.3
		C2768.7,820.8,2746.2,829.7,2721.5,829.7 M2721.5,662.8c-41.7,0-72,32.2-72,76.6c0,44.4,30.3,76.6,72,76.6s72-32.2,72-76.6
		C2793.5,695,2763.2,662.8,2721.5,662.8"/>
    <path clip-path="url(#SVGID_2_)" d="M2721.5,649.5c24.5,0,46.9,8.8,63,24.9c16.4,16.3,25.4,39.4,25.4,65s-9,48.7-25.4,65
		c-16.1,16-38.4,24.9-63,24.9s-46.9-8.8-63-24.9c-16.4-16.3-25.4-39.4-25.4-65s9-48.7,25.4-65C2674.6,658.4,2697,649.5,2721.5,649.5
		 M2721.5,816.5c42,0,72.5-32.4,72.5-77.1s-30.5-77.1-72.5-77.1s-72.5,32.4-72.5,77.1S2679.5,816.5,2721.5,816.5 M2721.5,648.5
		c-50.7,0-89.4,36.8-89.4,90.8s38.6,90.8,89.4,90.8s89.4-36.8,89.4-90.8S2772.2,648.5,2721.5,648.5 M2721.5,815.5
		c-39.8,0-71.5-30.4-71.5-76.1s31.6-76.1,71.5-76.1c39.8,0,71.5,30.4,71.5,76.1S2761.4,815.5,2721.5,815.5"/>
  </g>
</svg>
