<svg version="1.1" id="레이어_1" xmlns="http://www.w3.org/2000/svg" xmlns:xlink="http://www.w3.org/1999/xlink" x="0px"
     y="0px" width="256px" height="256px" viewBox="0 0 256 256" enable-background="new 0 0 256 256" xml:space="preserve">
<g>
	<path fill-rule="evenodd" clip-rule="evenodd" fill="#00E6AE" d="M207,95.6c0.5-4,1.3-8.1,1.4-12.1c0.2-6.8,1.3-13.1,6.8-17.6
		c5.7-4.7,12.4-5.9,19.3-3.1c7.4,2.9,11.8,8.3,12.2,16.5c0.7,17-3.1,33.2-10,48.6c-7.8,17.4-19.8,31.6-34.6,43.4
		c-11.3,8.9-23.8,15.7-37.7,19.5c-8.2,2.2-16.6,3.3-25,4.9c-6.6,0-13.2,0-19.8,0c-18.1-0.9-34.9-6.3-50.4-15.3
		c-19.5-11.4-34.5-27.3-45.1-47.3c-5.9-11.2-9.6-23.4-11.6-35.8C11.3,90,11.3,82.2,12.6,75c1.2-6.3,6.4-10.4,13-12.2
		c12.2-3.4,25.1,6.8,24.3,19.2c-0.3,4.5,0.9,9.1,1.4,13.7c0.4,1.5,0.7,3.1,1.1,4.6c5.8,21,18.1,36.9,36.8,47.9
		c6.6,3.9,13.6,6.8,21.6,8.4c0-7.2,0-14.1,0-21.1c0-10.3,0.2-20.5,0.1-30.8c-0.1-7.2-0.9-14.3-0.7-21.5c0.2-8.7,3.1-15.8,11.9-19.7
		c9.4-4.1,23.7,1.1,26.1,13.7c0.9,4.6,0.7,9.4,0.8,14.2c0.1,14.4,0.1,28.8,0.1,43.3c0,7.2,0,14.3,0,21.7c2.2-0.6,4-1,5.7-1.4
		c0.8-0.2,1.6-0.5,2.4-0.8c17.1-6.5,30.7-17.4,40.3-33C202.2,113.2,206.1,104.9,207,95.6z"/>
  <path fill-rule="evenodd" clip-rule="evenodd" fill="#00C590" d="M207,95.6c-0.9,9.3-4.8,17.6-9.6,25.4
		c-9.5,15.6-23.2,26.5-40.3,33c-0.8,0.3-1.6,0.6-2.4,0.8c-1.8,0.5-3.5,0.9-5.7,1.4c0-7.4,0-14.6,0-21.7c5.1-2,10.5-3.6,15.3-6.2
		c13.3-7.3,23.1-18.3,31.1-31.1c0.5-0.8,1.8-1.4,2.8-1.5C201.1,95.5,204,95.6,207,95.6z"/>
  <path fill-rule="evenodd" clip-rule="evenodd" fill="#00C590" d="M110.7,135.3c0,6.9,0,13.9,0,21.1c-8-1.5-14.9-4.5-21.6-8.4
		c-18.7-11-31-26.9-36.8-47.9c-0.4-1.5-0.8-3.1-1.1-4.6c8.1-1.7,12.2,2.4,16.6,8.9C78.3,119.8,92.4,130.7,110.7,135.3z"/>
  <path fill-rule="evenodd" clip-rule="evenodd" fill="#FDFDFD" d="M119.6,195.7c6.6,0,13.2,0,19.8,0
		C132.8,195.7,126.2,195.7,119.6,195.7z"/>
</g>
</svg>
