<svg id="Layer_1" data-name="Layer 1" xmlns="http://www.w3.org/2000/svg" xmlns:xlink="http://www.w3.org/1999/xlink" viewBox="0 0 2885.77 1315.21"><defs><linearGradient id="무제_그라디언트" x1="232.01" y1="-501.89" x2="232.01" y2="50" gradientTransform="matrix(1, 0, 0, -1, 0, 50)" gradientUnits="userSpaceOnUse"><stop offset="0" stop-color="#378cff"/><stop offset="1" stop-color="#37c8ff"/></linearGradient><linearGradient id="무제_그라디언트_2" x1="503.84" y1="-1267.95" x2="503.84" y2="-502.41" gradientTransform="matrix(1, 0, 0, -1, 0, 50)" gradientUnits="userSpaceOnUse"><stop offset="0" stop-color="#9137ff"/><stop offset="1" stop-color="#646eff"/></linearGradient></defs><path d="M285.56,551.89H0C46.68,324,151,129.05,291.05,0L464,249.86C384.4,321.25,324,428.33,285.56,551.89Z" fill="url(#무제_그라디언트)"/><path d="M411.86,812.74c24.71-79.63,35.69-167.49,35.69-260.85h-162c-24.72,79.63-35.7,167.49-35.7,260.85Z" fill="#378cff"/><path d="M724.87,551.89H450.3a981.82,981.82,0,0,1-35.69,260.85c-30.21,98.84-74.14,186.71-131.8,252.6l173,249.87C573.86,1186.16,659,1010.43,700.16,810,713.89,730.37,724.87,642.5,724.87,551.89Z" fill="url(#무제_그라디언트_2)"/><path d="M1004.94,851.18V766.06c33,22,68.64,33,109.83,33,33,0,52.17-13.73,52.17-41.19,0-22-19.22-38.44-57.66-52.17l-11-2.74c-63.15-19.22-96.1-60.41-96.1-120.81,0-68.65,49.43-115.33,129-115.33,35.7,0,68.65,5.5,107.09,24.72V576.6c-35.7-22-65.9-32.94-101.6-32.94-33,0-49.42,11-49.42,35.69,0,22,16.47,35.69,52.17,46.68l11,2.74c68.65,22,101.59,60.41,101.59,115.32,0,76.88-52.16,129-131.79,129C1076.33,875.89,1040.63,867.65,1004.94,851.18Z" fill="#fff"/><path d="M1309.71,799V661.72H1274V590.33h35.69V516.2h79.63v74.13h49.42v71.39h-49.42V774.3c0,16.47,11,27.45,24.71,27.45,8.24,0,16.48-2.74,24.71-5.49v68.65c-16.47,8.23-41.18,11-57.66,11C1337.17,873.14,1309.71,848.43,1309.71,799Z" fill="#fff"/><path d="M1466.22,727.62c0-87.86,49.42-145.52,131.8-145.52,76.88,0,123.55,49.42,123.55,153.76v19.22h-173c2.75,30.2,30.21,49.42,71.39,49.42,27.46,0,60.41-8.24,93.36-27.46v74.14c-35.7,13.73-71.39,22-104.34,22C1521.14,873.14,1466.22,818.23,1466.22,727.62Zm85.12-30.2h93.35c0-30.21-16.47-49.43-43.93-49.43C1570.56,648,1551.34,667.21,1551.34,697.42Z" fill="#fff"/><path d="M1768.25,442.06h79.63V867.65h-79.63Z" fill="#fff"/><path d="M1900.05,442.06h79.62V867.65h-79.62Z" fill="#fff"/><path d="M2023.61,793.52c0-54.92,35.69-85.12,107.08-96.1l52.17-8.24v-5.49c0-19.22-19.22-30.21-52.17-30.21-30.2,0-65.9,11-93.36,24.72V601.32c33-11,74.14-22,104.34-22,79.63,0,120.81,35.69,120.81,98.85V867.65h-74.13L2182.86,832c-13.73,27.45-43.93,43.93-74.14,43.93C2056.55,873.14,2023.61,842.94,2023.61,793.52Zm156.5-13.73V741.35l-41.18,8.24c-22,5.49-38.44,16.47-38.44,35.69,0,16.47,13.72,27.46,32.94,27.46C2155.4,810,2174.62,796.26,2180.11,779.79Z" fill="#fff"/><path d="M2443.7,475h82.37V867.65H2443.7Z" fill="#fff"/><path d="M2682.58,554.64H2564.51V475h321.26v79.63H2767.7v313h-82.37v-313Z" fill="#fff"/></svg>