<svg version="1.1" id="레이어_1" xmlns="http://www.w3.org/2000/svg" x="0px"
     y="0px" width="864px" height="224px" viewBox="0 0 864 224" enable-background="new 0 0 864 224" xml:space="preserve">
<path fill-rule="evenodd" clip-rule="evenodd" fill="none" d="M-248.4,290.7c0-118.1,0-236.2,0-354.3c455.8,0,911.5,0,1367.3,0
	c0,0,0.1,0.1,0.1,0.1c0,0.2,0,0.4,0,0.6c0,117.7,0,235.4,0,353.1c0,0.2-0.1,0.4-0.1,0.5C663.2,290.7,207.4,290.7-248.4,290.7z
	 M30.5,144.5c0.2-2.1,0.2-4.2,0-6.3c0-0.7,0.1-1.4,0.1-2.2c0-3.8,0-7.7,0-11.5c0-0.7-0.1-1.4-0.1-2.2c0-0.6,0-1.3,0-1.9
	c0-1.9,0.1-3.8,0.1-5.7c0-2.9-0.1-5.9-0.1-8.8c0-0.7,0-1.3,0-2c0.2-2.7,0.2-5.4,0-8.1c0-3.4,0.1-6.8,0.1-10.2c0-1-0.1-2.1-0.1-3.1
	c0.2-1.7,0.2-3.4,0-5.1c0.2-2.8,0.2-5.5,0-8.3c0-3.1,0.1-6.2,0.1-9.3c0-1.5-0.1-3.1-0.1-4.6c0-1,0.1-2.1,0.1-3.1c0-4.4,0-8.8,0-13.1
	c0-0.6-0.1-1.3,0.6-1.8c0.5,0,1.3-0.1,2-0.1c2.1,0,4.2-0.1,6.3-0.1c3,0,5.9,0,8.9,0c3.8,0,7.6,0,11.4,0c1.9,0,3.8,0,5.7,0
	c1.5,0,3,0,4.4,0c2.1,0,4.2,0,6.3,0c1.9,0,3.8,0,5.7,0c2.3,0,4.6,0,7,0c2.3,0,4.6,0,7,0c1.5,0,3,0,4.4,0c1.3,0,2.5,0,3.8,0
	c1.3,0,2.5,0,3.8,0c1.5,0,3,0,4.4,0c0.8,0,1.7,0,2.5,0c1.7,0,3.4,0,5.1,0c1.5,0,3,0,4.4,0c2.3,0,4.6,0,7,0c1.9,0,3.8,0,5.7,0
	c1.2,0,2.5,0,3.7,0l0,0c0.2,0.2,0.4,0.5,0.7,0.7c0,1.7,0,3.3,0,5c0,2.5,0,5.1,0,7.6c0,1.1-0.1,2.1-0.1,3.2c0,0.4,0.1,0.8,0.6,1.2
	c1.2,0.2,2.5,0.2,3.9,0c1.5,0,2.9,0,4.4,0c2.1,0,4.2,0,6.3,0c1.1,0,2.1,0,3.2,0c0.2-0.1,0.3-0.2,0.5-0.4c0-0.3,0.1-0.6,0.1-0.9
	c0-5.1,0-10.3,0-15.4c0-0.5-0.1-1-0.1-1.6c0-0.7,0.1-1.4,0.1-2.2c0-4,0-8.1,0-12.1c0-0.7-0.1-1.4-0.1-2.2c0-0.5,0-1,0-1.6
	c-1.6-0.5-3.3-0.3-4.9-0.1c-0.6,0-1.3,0-1.9,0c-2.7-0.2-5.5-0.2-8.2,0c-3.2-0.2-6.4-0.2-9.5,0c-4-0.2-8-0.2-12,0
	c-2.3-0.2-4.6-0.2-6.9,0c-3.6-0.2-7.2-0.2-10.8,0c-3.6-0.2-7.1-0.2-10.7,0c-1.1,0-2.2,0-3.2,0c-0.4,0-0.8-0.1-1.2-0.1
	c-5.1,0-10.2,0-15.2,0c-0.4,0-0.8,0.1-1.2,0.1c-1,0-2.1-0.1-3.1-0.1c-3.2,0-6.4,0.1-9.6,0.1c-1,0-2.1-0.1-3.1-0.1
	c-14.4,0-28.9,0-43.3,0c-0.7,0-1.5,0-2.2,0c-0.4,0-0.8,0.2-1.3,0.3c-0.1,0.7-0.2,1.3-0.2,1.9c0,2.8,0,5.7,0,8.5
	c0,3.2,0.1,6.3,0.1,9.5c0,4.6,0,9.3,0,13.9c0,4.2,0,8.4,0,12.7c0,2.7,0,5.5,0,8.2c0,4,0,8,0,12c0,1.7,0,3.4,0,5.1c0,1.7,0,3.4,0,5.1
	c0,2.1,0,4.2,0,6.3c0,1.7,0,3.4,0,5.1c0,2.3,0,4.6,0,7c0,2.5,0,5.1,0,7.6c0,1.3,0,2.5,0,3.8c0,2.3,0,4.6,0,7c0,1.7,0,3.4,0,5.1
	c0,1.1,0,2.1,0,3.2c0,1.3,0,2.5,0,3.8c0,1.7,0,3.4,0,5.1c0,2.5,0,5.1,0,7.6c0,1.9,0,3.8,0,5.7c0,0.8,0,1.7,0,2.5
	c-0.1,0.6-0.2,1.2,0.3,1.8c0.7,0.4,1.5,0.2,2.3,0.1c1.7,0,3.4,0,5.1,0c2.3,0,4.6,0,7,0c1.5,0,3,0,4.4,0c0.8,0,1.7,0,2.5,0
	c1.3,0,2.5,0,3.8,0c2.3,0,4.6,0,7,0c1.7,0,3.4,0,5.1,0c1.3,0,2.5,0,3.8,0c1.7,0,3.4,0,5.1,0c1.7,0,3.4,0,5.1,0c2.3,0,4.6,0,7,0
	c1.7,0,3.4,0,5.1,0c0.8,0,1.7,0,2.5,0c1.3,0,2.5,0,3.8,0c1.3,0,2.5,0,3.8,0c1.1,0,2.1,0,3.2,0c1.7,0,3.4,0,5.1,0c1.3,0,2.5,0,3.8,0
	c1.3,0,2.5,0,3.8,0c1.9,0,3.8,0,5.7,0c3.2,0,6.3,0,9.5,0c2.3,0,4.6,0,7,0c1.9,0,3.8,0,5.7,0c3,0,5.9,0,8.9,0c3.4,0,6.8,0,10.1,0
	c3.2,0,6.4,0.1,9.6,0.1c0.8,0,1.6-0.1,2.5-0.1c0.2-0.1,0.3-0.2,0.6-0.5c0-0.4,0-1,0-1.5c0-13.2,0-26.3,0-39.5c0-0.7-0.1-1.5-0.1-2.2
	c0-1,0.1-2.1,0.1-3.1c0-5.3,0-10.5,0-15.8c0-5.4,0-10.7,0-16.1c0-0.7,0.2-1.5-0.4-2.3c-0.6,0-1.3,0-2.1,0c-1.1,0-2.1,0-3.2,0
	c-4.2,0-8.4,0-12.6,0c-0.2,0-0.3,0.2-0.6,0.4c-0.2,2.1-0.2,4.3,0,6.5c0,1.9,0,3.8,0,5.7c0,1.1,0,2.1,0,3.2c0,1.5,0,3,0,4.4
	c0,2.1,0,4.2,0,6.3c0,1.5,0,2.9,0,4.4c0,1.9,0,3.8,0,5.7c0,3,0,5.9,0,8.9c0,2.5,0,5.1,0,7.6c0,2.9-0.1,5.9-0.1,8.8l0-0.1
	c-0.2,0-0.4,0.1-0.6,0.2c-0.5,0-1-0.1-1.6-0.1c-12.1,0-24.1,0-36.2,0c-0.7,0-1.5,0.1-2.2,0.1c-0.8-0.1-1.7-0.1-2.5-0.1
	c-13.5,0-27,0-40.5,0c-0.8,0-1.7,0.1-2.5,0.1c-1.2,0-2.3-0.1-3.5-0.1c-7.1,0-14.1,0-21.2,0C30.6,146.7,30.6,145.6,30.5,144.5z
	 M516,100.9c0.8,0.1,1.6,0.3,2.4-0.3c0-0.3,0-0.7,0-1c0-0.8,0-1.7,0-2.5c0-0.4,0-0.8,0-1.3c0-0.4,0-0.8,0-1.3c0-0.4,0-0.8,0-1.3
	c0-0.4,0-0.8,0-1.3s0-0.8,0-1.3c0-0.4,0-0.8,0-1.3c0-0.6,0-1.3,0-1.9c0-0.4,0-0.8,0-1.3c0-0.4,0-0.9,0-1.3c0-0.4-0.1-0.8-0.1-1.3
	c-0.1-0.1-0.3-0.3-0.4-0.4c-6-0.3-7.4-0.2-9.2,0.3c-0.4,2-0.4,4.1-0.2,7.7c0,1.3,0,2.5,0,3.8c0,0.6,0,1.3,0,1.9c0,1-0.1,2.1-0.1,3.1
	c0,0.2,0.3,0.5,0.5,0.7c0.4,0,0.8,0,1.3,0c0.4,0,0.8,0,1.3,0s0.8,0,1.3,0s0.8,0,1.3,0C514.8,100.9,515.4,100.9,516,100.9z
	 M829.2,126.1c-0.4-0.2-0.8-0.4-1.1-0.5c0-0.1,0-0.2,0-0.3c-2.2-7.5-4.4-14.9-6.6-22.4c-0.1-0.5-0.4-0.9-0.6-1.5
	c-3.3-0.4-6.6-0.2-9.9-0.2c-0.6,0-1.3,0.1-1.9,0.2c-0.2,0-0.3,0.2-0.6,0.5c2.5,7,5,14,7.4,21c2.4,7.2,5.1,14.2,7.4,21.5
	c-0.4,1.1-0.9,2.2-1.3,3.3c-0.6,1.7-1.6,2.9-3.2,3.7c-1.4,0.5-2.9,0.4-4.4,0.5c-0.5,0-1,0.1-1.5,0.8c-0.1,2.1-0.1,4.4,0,6.7
	c0,0.5,0,1.1,0.6,1.5c0.4,0.1,0.9,0.2,1.4,0.4c5.8,1.3,12.2-0.6,15.6-7.3c0.8-1.5,1.4-3.1,1.9-4.7c2.3-6.6,4.6-13.3,6.9-20
	c3-8.7,6.1-17.5,9.1-26.2c0.2-0.5,0.5-0.9,0.2-1.6c-1.2-0.4-2.6-0.4-3.9-0.4c-5.8-0.1-5.8-0.1-8.2,0.5c-0.2,0.6-0.5,1.3-0.7,2
	c-1.2,3.9-2.3,7.9-3.5,11.8C831.2,119,830.2,122.5,829.2,126.1z M72.8,172.9c-1,0-2-0.1-2.9-0.1c-4.6,0-9.3,0-13.9,0
	c-0.6,0-1.3-0.1-1.7,0.5c-0.2,2-0.2,33.1-0.1,35.4c0,0.2,0.2,0.4,0.3,0.7c1,0.3,2.2,0.1,3.3,0.1c47.1,0,94.3,0,141.4,0
	c0.7,0,1.5,0,2.2,0c0.4,0,0.8-0.1,1.3-0.2c0.4-1.3,0.2-2.6,0.2-3.8c0-46.9,0-93.8,0-140.8c0-0.9,0-1.9,0-2.8c0-0.3-0.2-0.6-0.3-0.9
	c-0.3-0.1-0.6-0.2-0.9-0.2c-48.9,0-97.8,0-146.8,0.1c-0.2,0-0.4,0.2-0.7,0.3c-0.3,1-0.1,2.2-0.1,3.3c0,24.6,0,49.1,0,73.7
	c0,0.7,0,1.5,0,2.2c0,0.4,0,0.8,0.5,1.2c0.2,0,0.5,0.2,0.8,0.2c5.6,0,11.2,0,16.8,0c0.3,0,0.6-0.2,0.9-0.3c0.3-1.2,0.2-2.3,0.2-3.5
	c0-14,0-28,0-42.1c0-4.5,0-9.1,0-13.6c0-0.7-0.2-1.5,0.3-2.2c0.2-0.1,0.5-0.2,0.8-0.3c0.8,0,1.7,0,2.5,0c34.5,0,69,0,103.4,0
	c0.7,0,1.5,0,2.2,0c0.4,0,0.8,0,1.3,0.6c0,0.9,0.1,2.1,0.1,3.2c0,34.3,0,68.5,0,102.8c0,0.8,0,1.7,0,2.5c0,0.4,0,0.8-0.6,1.3
	c-0.9,0.2-2,0.1-3.2,0.1c-34.3,0-68.5,0-102.8,0c-0.8,0-1.7,0-2.5,0c-0.4,0-0.8,0-1.2-0.4c-0.5-0.6-0.3-1.4-0.3-2.1
	c0-4.1,0-8.2,0-12.3C73.2,174.9,73.4,174,72.8,172.9z M285.9,114.5c0.8-0.5,1.5-1,2.1-1.5c2.4-1.7,3.9-4,4.8-6.8
	c0.6-1.9,0.6-3.8,0.4-5.6c-0.3-4.3-2.2-7.8-5.8-10.4c-1.2-0.8-2.5-1.5-3.9-2c-3.1-1.1-6.3-1.7-9.6-1.7c-6.3-0.1-12.6-0.1-19-0.1
	c-0.7,0-1.5,0-2.2,0.1c-0.4,0-0.8,0.3-1.2,0.4c0,1.1,0,2.2,0,3.2c0,16.3,0,32.6,0,49c0,1.3,0,2.5,0.1,3.8c0,0.4,0.1,0.8,0.2,1.1
	c0.8,0.7,1.7,0.5,2.5,0.5c5.3,0,10.5,0,15.8,0c3.1,0,6.1-0.2,9.1-0.5c3-0.3,5.8-1.2,8.3-2.8c3.2-2,5.5-4.8,6.5-8.6
	c0.6-2.3,0.7-4.6,0.5-6.9c-0.2-3.4-1.7-6.2-4.2-8.5C289.1,116,287.6,115.2,285.9,114.5z M427.5,144.3c0.1-0.5,0.3-0.9,0.3-1.3
	c0.1-1.4,0.1-2.7,0.1-4.1c0-16.6,0-33.1,0-49.7c0-1.5,0-3-0.1-4.4c0-0.5-0.3-1-0.4-1.5c-3.4-0.1-6.6-0.1-9.9,0c-0.3,0-0.6,0.1-1,0.2
	c-0.1,0.4-0.3,0.8-0.3,1.2c-0.1,1.3-0.1,2.5-0.1,3.8c0,4.5,0,9.1,0,13.6c0,0.7-0.1,1.4-0.1,2.3c-0.4-0.2-0.7-0.3-0.9-0.5
	c-0.8-0.5-1.5-1.2-2.3-1.7c-5.5-2.9-10.8-2.4-15.8,1c-3,2-4.9,4.9-6.1,8.2c-1.5,4.1-2,8.4-1.8,12.7c0.2,3.3,0.5,6.5,1.7,9.6
	c0.9,2.4,2.1,4.6,3.8,6.5c4,4.3,8.9,5.8,14.6,4.5c2.3-0.5,4.3-1.7,6.1-3.2c0.4-0.3,0.6-0.8,1.4-0.8c0.2,1.1,0.5,2.2,0.7,3.3
	C419.4,144.6,422.9,144.7,427.5,144.3z M594.5,120.9c2.9,0,5.6,0,8.2,0c4.3,0,8.6-0.1,13-0.2c0.5,0,1.1,0,1.5-0.7
	c0.1-2.6,0.1-5.4-0.1-8.3c0-0.2-0.2-0.3-0.4-0.6c-1,0-2-0.1-3-0.1c-5.7,0-11.4,0-17.1-0.1c-0.6,0-1.3,0.2-1.8-0.3
	c-0.1-0.2-0.2-0.4-0.2-0.6c0-4.3-0.1-8.6-0.1-13c0-0.2,0.2-0.3,0.4-0.7c2.6,0,5.4,0,8.1,0c2.8,0,5.7,0,8.5,0c2.7,0,5.5,0.1,8.1-0.3
	c0.7-0.8,0.6-1.7,0.6-2.5c0-2.3,0.3-4.6-0.4-6.9c-1.1-0.3-2.1-0.2-3.2-0.2c-10.1,0-20.2,0-30.4,0c-0.8,0-1.7,0-2.5,0.1
	c-0.4,0-0.8,0.2-1.1,0.3c-0.1,1.9-0.2,54.9-0.1,56.8c0,0.2,0.2,0.4,0.2,0.6c1.8,0.5,5.5,0.6,10,0.4c0.5,0,1-0.2,1.7-0.4
	C594.6,136.4,594.5,128.8,594.5,120.9z M647.6,117.8c-1.4,0.1-2.6,0.1-3.7,0.1c-1.3,0-2.5,0.1-3.8,0.1c-2.6,0-5,0.6-7.4,1.3
	c-1.4,0.4-2.8,1-4,1.9c-2.7,1.8-4.6,4.2-5.4,7.5c-0.3,1.4-0.3,2.7-0.3,4.1c0,3.1,1.2,5.7,3.3,7.9c2.8,2.9,6.3,4.2,10.2,4.5
	c3.8,0.3,7.3-0.6,10.3-3.1c0.4-0.3,0.8-0.6,1.3-1c0.4,1,0.8,2,1.3,2.9c0.3,0.1,0.6,0.4,0.8,0.4c3.4,0,6.7,0,10.1,0
	c0.4,0,0.7-0.3,0.8-0.9c-0.3-0.9-0.6-1.7-0.8-2.7c-0.6-2.3-0.7-4.6-0.7-6.9c0-4.5,0-9.1,0-13.6c0-2.1,0-4.2-0.1-6.3
	c-0.2-3.5-1.4-6.6-4-9c-2.3-2.3-5.2-3.6-8.3-4.2c-3.5-0.7-6.9-0.6-10.3,0.1c-3.8,0.8-7.2,2.4-9.8,5.3c-1.9,2.2-3.1,4.7-3.1,7.6
	c2.5,0.5,8.4,0.5,11.5,0.1c0.2-0.5,0.4-1.1,0.6-1.7c0.5-1.4,1.5-2.2,2.9-2.7c1.6-0.5,3.3-0.6,5-0.1c1.5,0.4,2.6,1.3,3.2,2.8
	C647.8,113.9,647.9,115.7,647.6,117.8z M474.1,126.1c0.1-1.9,0.1-3.8,0-5.7c-0.1-2.4-0.5-4.8-1.2-7.2c-1.8-5.9-5.5-10.1-11.6-12
	c-4.1-1.3-8.3-1.3-12.5,0c-5.8,1.8-9.8,5.6-12.1,11.2c-2.4,6-2.6,12.2-1,18.3c1.6,5.9,5.4,10.2,11.1,12.6c5.7,2.4,11.5,2.5,17.3,0.5
	c3.1-1.1,5.9-2.8,8-5.4c0.3-0.4,0.8-0.8,0.6-1.6c-1.5-1.8-3.2-3.7-5-5.5c-0.1-0.1-0.4-0.1-0.6-0.2c-0.6,0.1-0.8,0.6-1.2,1
	c-2.7,2.5-6,3.5-9.6,3.4c-3.6-0.2-6.5-1.6-8.3-4.9c-0.5-0.8-0.8-1.7-1.1-2.6c-0.1-0.4-0.2-0.8,0.2-1.2c0.8-0.2,1.8-0.1,2.7-0.1
	c6.3,0,12.7,0,19,0c1.3,0,2.5,0,3.8-0.1C473.3,126.6,473.7,126.3,474.1,126.1z M302.3,101.5c0,0.8-0.1,1.3-0.1,1.9
	c0,8.7,0,17.5,0,26.2c0,1.8,0.2,3.6,0.6,5.3c1.1,4.5,3.5,7.9,8.1,9.3c5.6,1.7,11,1.3,15.8-2.6c0.4-0.3,0.7-0.8,1.3-0.7
	c0.4,1.1,0,2.3,0.8,3.3c2.1,0.3,7.3,0.3,9.8,0.1c0.2,0,0.3-0.2,0.6-0.4c0.4-1,0.2-2.2,0.2-3.3c0-11.8,0-23.6,0-35.4
	c0-0.8,0-1.7-0.1-2.5c0-0.4-0.1-0.8-0.2-1.2c-0.5-0.1-0.9-0.3-1.3-0.3c-2.9,0-5.9,0-8.8,0c-0.3,0-0.6,0.2-0.9,0.3
	c-0.1,0.4-0.2,0.8-0.2,1.2c-0.1,1.8-0.2,3.6-0.2,5.4c0,7,0,13.9,0,20.9c0,1,0.2,2.1-0.4,3.4c-2.4,2.9-5.6,3.7-9.4,2.8
	c-2.3-0.5-3.3-2.1-3.7-4.2c-0.1-0.8-0.1-1.7-0.1-2.5c0-5.4,0-10.7,0-16.1c0-2.7,0-5.5-0.1-8.2c0-0.8-0.1-1.6-0.2-2.4
	c-0.3-0.2-0.5-0.4-0.7-0.4c-2.9-0.4-5.9-0.1-8.8-0.2C303.7,101.2,303.1,101.4,302.3,101.5z M775.5,123.4c0-1,0-1.6,0-2.2
	c0-3.1-0.6-6.1-1.9-8.9c-2.3-5.4-6.2-9.2-11.9-10.9c-3.7-1.1-7.4-1.3-11.2-0.5c-5.7,1.2-10,4.2-12.9,9.3c-1.6,2.9-2.4,6-2.8,9.3
	c-0.4,3.9-0.2,7.8,0.9,11.6c1.7,6,5.4,10.5,11.3,12.8c4.8,1.9,9.9,2,14.9,0.5c6.2-1.9,10.2-6.1,12.3-12.1
	C775.2,129.1,775.6,126.1,775.5,123.4z M553.9,114.1c0.1-0.4,0.2-0.7,0.2-1c-0.2-3.2-1.6-5.9-3.9-8c-1.7-1.6-3.7-2.8-5.9-3.5
	c-4.6-1.5-9.3-1.7-14-0.5c-3.4,0.9-6.4,2.6-8.7,5.4c-1.8,2.1-2.6,4.6-2.6,7.3c0,2.5,0.6,4.8,2.3,6.7c0.8,1,1.8,1.8,2.8,2.5
	c1.6,1.1,3.3,1.9,5,2.6c2.2,0.8,4.5,1.2,6.7,1.8c1.4,0.4,2.8,0.8,4.2,1.3c1.1,0.4,2.1,1,2.6,2.1c0.4,1.2,0.4,2.3-0.1,3.4
	c-0.7,1.2-1.8,1.8-3.1,2.1c-2,0.4-4,0.5-6-0.1c-2-0.5-3.6-1.7-4.3-3.8c-0.2-0.6-0.4-1.2-0.6-1.7c-0.2-0.1-0.4-0.3-0.6-0.3
	c-3.2-0.3-6.3-0.2-9.5-0.1c-0.4,0-0.8,0.3-0.9,0.8c0.1,0.5,0.2,1.2,0.3,1.8c0.3,2.2,1.3,4,2.7,5.6c2.7,3.2,6.1,5.1,10.2,6
	c3.9,0.9,7.8,0.8,11.6-0.1c2.5-0.5,4.8-1.5,6.9-3c2.9-2.2,4.9-4.9,5.1-8.7c0.2-3.3-0.6-6.2-2.9-8.7c-1.9-2-4.1-3.3-6.7-4.1
	c-1.8-0.6-3.7-1-5.5-1.4c-1.7-0.4-3.5-0.8-5.2-1.3c-1.3-0.4-2.6-0.9-3.4-2.2c-0.5-1.2-0.5-2.4,0.1-3.6c0.6-1.2,1.7-1.8,3.2-2.2
	c1.5,0,3.2,0,4.7,0c2.7,1.4,2.9,1.6,3.8,4.1c0.1,0.4,0.3,0.7,0.5,1.2c3.3,0.2,6.6,0.2,9.9,0.1C553.2,114.4,553.5,114.2,553.9,114.1z
	 M703.9,117.2c0.6-6-3.4-13.2-10.6-15.7c-4.4-1.5-8.9-1.6-13.4-0.3c-5.3,1.5-9,4.9-11.4,9.8c-1.3,2.7-1.8,5.6-2.2,8.5
	c-0.5,4-0.1,8,1,11.9c1.6,5.5,4.9,9.7,10.2,12.1c1.8,0.8,3.6,1.2,5.5,1.5c4.5,0.6,8.8,0,12.8-2.2c4.1-2.2,6.7-5.7,7.9-10.2
	c0.2-0.8,0.2-1.7,0.2-2.5c0-0.2-0.2-0.3-0.3-0.5c-2.4-0.4-7.6-0.4-10.4,0c-0.2,0.5-0.4,1.1-0.6,1.7c-0.3,1.2-1,2.1-1.9,2.8
	c-0.9,0.8-2,1.1-3.1,1.4c-4.1,0.9-7.7-1.3-8.8-5.2c-0.1-0.3-0.1-0.6-0.2-0.9c-0.7-2.4-0.5-4.8-0.6-7.2c-0.1-2,0.2-4,0.6-6
	c0.6-2.6,1.8-4.7,4.6-5.8c0.6-0.1,1.5-0.3,2.3-0.3c3.7-0.2,6.2,1.7,7.1,5.3c0.2,0.6,0.4,1.2,0.5,1.8
	C695.6,117.6,700.9,117.6,703.9,117.2z M712.1,110c0.5,0.8,0.4,1.5,0.4,2.2c0,5.4,0,10.8,0,16.1c0,2.4,0.1,4.9,0.3,7.3
	c0.4,4.5,3.4,7.8,7.7,8.9c2.4,0.6,4.8,0.7,7.2,0.4c1.3-0.2,2.7-0.2,4-1.1c0.3-2.7,0.2-5.4,0-8.1c0-0.2-0.2-0.3-0.5-0.6
	c-1.8,0.1-3.7,0.4-5.5-0.3c-0.6-0.3-0.9-0.8-1.2-1.4c-0.4-0.9-0.4-1.8-0.4-2.8c0-6.5,0-13.1-0.1-19.6c0-0.4,0.1-0.8,0.7-1.2
	c0.7,0,1.7,0,2.6,0c0.9,0,1.9,0,2.8,0c0.4,0,0.8,0,1.1-0.4c0.4-2.6,0.4-5.7-0.1-7.9c-2.2-0.8-4.6-0.1-6.9-0.6
	c-0.6-1.1-0.2-2.3-0.3-3.4c-0.1-1.1,0-2.1,0-3.2c0-1.1,0.1-2.3-0.2-3.3c-0.3-0.2-0.5-0.4-0.7-0.4c-2.9-0.1-5.9-0.1-8.8-0.1
	c-0.5,0-1,0.1-1.4,0.1c-0.6,0.9-0.5,1.7-0.5,2.6c-0.1,0.8-0.1,1.7-0.1,2.5c0,0.8,0,1.7,0,2.5c0,0.8,0.2,1.7-0.4,2.6
	c-0.3,0-0.7,0.1-1.1,0.1c-1.1,0-2.1,0-3.2,0.1c-0.5,0-1.1,0.1-1.6,0.8c0,2.4-0.4,5,0.2,7.6C708.4,110.2,710.3,109.6,712.1,110z
	 M370.1,83.4c-0.3,1.7-0.2,3.3-0.2,4.9c0,17.2,0,34.3,0,51.5c0,1.1,0,2.1,0.1,3.2c0,0.4,0.1,0.8,0.2,1.2c0.4,0.1,0.7,0.3,1,0.3
	c2.2,0.2,8.3,0,10.2-0.2c0.1-0.4,0.4-0.9,0.4-1.4c0.1-1.4,0.1-2.7,0.1-4.1c0-16.5,0-33.1,0-49.6c0-1.5-0.1-2.9-0.1-4.4
	c0-0.5-0.1-1-0.6-1.4C378.3,83.1,372.8,83.1,370.1,83.4z M504.5,100.9c-0.9-0.2-1.6-0.5-2.3-0.5c-0.8-0.1-1.7,0-2.5,0.1
	c-0.7,0.1-1.5,0.3-2.1,0.6c-0.7,0.3-1.4,0.6-2,1c-0.7,0.5-1.3,1.1-1.9,1.6c-0.5,0.4-0.7,1.3-1.6,1.3c-0.6-0.6-0.5-1.4-0.5-2.1
	c0-0.5,0-1.1-0.5-1.4c-2.1-0.3-6.5-0.4-8.8-0.2c-0.5,0-1,0.2-1.6,0.3c-0.1,0.6-0.2,1.1-0.2,1.6c-0.1,2-0.2,4-0.2,6
	c0,9.3,0,18.6,0,27.8c0,1.9,0.1,3.8,0.2,5.7c0,0.5,0,1.1,0.4,1.5c2.1,0.4,4.9,0.5,9.7,0.3c0.4,0,0.8-0.2,1.1-0.2
	c0.5-1.1,0.4-2.2,0.4-3.2c0-7.6,0-15.2,0-22.8c0-0.7,0-1.5,0-2c1.3-2.6,3.3-3.7,5.9-4c1.4-0.2,2.7-0.3,4.1-0.2
	c0.7,0.1,1.5,0.1,2.2,0.1C504.9,110,505,104.8,504.5,100.9z M782.6,144c0.3,0.1,0.6,0.4,0.9,0.4c3.2,0,6.3,0,9.5,0
	c0.3,0,0.5-0.3,0.7-0.4c0.1-0.3,0.2-0.5,0.2-0.7c0-9,0-17.9,0-26.7c1.2-2.9,3.4-4.1,6.2-4.4c1.6-0.2,3.1-0.2,4.7,0
	c0.5,0.1,1,0.3,1.4-0.1c0.4-0.5,0.3-1,0.3-1.6c0.1-2.5-0.1-5.1,0.2-7.6c0.1-0.6-0.2-1.2-0.3-1.9c-1-0.2-1.9-0.5-2.8-0.6
	c-0.9,0-1.9,0.1-2.8,0.3c-0.9,0.2-1.8,0.5-2.7,0.9c-0.8,0.4-1.6,1-2.3,1.6c-0.7,0.5-1.1,1.5-1.9,1.9c-0.1-0.2-0.3-0.2-0.3-0.3
	c-0.1-0.6-0.2-1.2-0.3-1.9c-0.1-0.5-0.1-1.1-0.6-1.4c-2.1-0.3-7.3-0.4-9.4-0.1c-0.3,0-0.6,0.2-0.8,0.3c-0.4,4-0.6,18.5-0.3,37.7
	C782.4,140.9,782.2,142.4,782.6,144z M359.7,144.3c0.1-0.3,0.4-0.7,0.5-1.1c0.1-1.2,0.1-2.3,0.1-3.5c0-11.2,0-22.3,0-33.5
	c0-1.2,0-2.3-0.1-3.5c0-0.4-0.2-0.8-0.2-1.2c-0.4-0.2-0.6-0.4-0.9-0.4c-3.2,0-6.3,0-9.5,0c-0.4,0-0.8,0.1-1.1,0.8
	c0,0.9-0.1,2.1-0.1,3.2c0,11.8,0,23.6,0,35.4c0,0.8,0,1.7,0.1,2.5c0,0.4,0.3,0.7,0.4,1.1C351.3,144.5,356.9,144.5,359.7,144.3z
	 M351.9,84.4c-0.8,0.5-1.7,0.9-2.3,1.5c-1.9,1.8-2.3,4.5-1.3,6.9c1.8,4.1,8.4,4.9,11.4,1.1c1.5-1.9,1.7-4,0.6-6.2
	c-1-2.1-2.6-3.2-4.9-3.4C354.3,84.3,353.1,84.4,351.9,84.4z"/>
  <path fill-rule="evenodd" clip-rule="evenodd" fill="#6B6B6B" d="M72.8,172.9c0.6,1.1,0.4,1.9,0.4,2.8c0,4.1,0,8.2,0,12.3
	c0,0.7-0.2,1.5,0.3,2.1c0.3,0.4,0.8,0.4,1.2,0.4c0.8,0,1.7,0,2.5,0c34.3,0,68.5,0,102.8,0c1.1,0,2.3,0.1,3.2-0.1
	c0.6-0.5,0.6-0.9,0.6-1.3c0-0.8,0-1.7,0-2.5c0-34.3,0-68.5,0-102.8c0-1.1,0-2.3-0.1-3.2c-0.4-0.6-0.8-0.6-1.3-0.6
	c-0.7,0-1.5,0-2.2,0c-34.5,0-69,0-103.4,0c-0.8,0-1.7,0-2.5,0c-0.3,0-0.6,0.2-0.8,0.3c-0.5,0.8-0.3,1.5-0.3,2.2c0,4.5,0,9.1,0,13.6
	c0,14,0,28,0,42.1c0,1.1,0.1,2.3-0.2,3.5c-0.3,0.1-0.6,0.3-0.9,0.3c-5.6,0-11.2,0-16.8,0c-0.3,0-0.6-0.1-0.8-0.2
	c-0.5-0.4-0.4-0.8-0.5-1.2c0-0.7,0-1.5,0-2.2c0-24.6,0-49.1,0-73.7c0-1.1-0.2-2.3,0.1-3.3c0.3-0.2,0.5-0.3,0.7-0.3
	c48.9,0,97.8-0.1,146.8-0.1c0.3,0,0.6,0.1,0.9,0.2c0.1,0.3,0.2,0.6,0.3,0.9c0,0.9,0,1.9,0,2.8c0,46.9,0,93.8,0,140.8
	c0,1.2,0.1,2.5-0.2,3.8c-0.5,0.1-0.9,0.2-1.3,0.2c-0.7,0-1.5,0-2.2,0c-47.1,0-94.3,0-141.4,0c-1.1,0-2.3,0.1-3.3-0.1
	c-0.2-0.4-0.3-0.5-0.3-0.7c-0.2-2.3-0.1-33.4,0.1-35.4c0.4-0.7,1.1-0.5,1.7-0.5c4.6,0,9.3,0,13.9,0
	C70.9,172.9,71.8,172.9,72.8,172.9z"/>
  <path fill-rule="evenodd" clip-rule="evenodd" fill="#fff" d="M285.9,114.5c1.7,0.7,3.2,1.5,4.4,2.6c2.5,2.3,4,5.1,4.2,8.5
	c0.2,2.3,0,4.6-0.5,6.9c-1,3.8-3.2,6.6-6.5,8.6c-2.5,1.6-5.3,2.5-8.3,2.8c-3,0.4-6.1,0.5-9.1,0.5c-5.3,0-10.5,0-15.8,0
	c-0.8,0-1.7,0.2-2.5-0.5c0-0.3-0.2-0.7-0.2-1.1c0-1.3-0.1-2.5-0.1-3.8c0-16.3,0-32.6,0-49c0-1,0-2.1,0-3.2c0.4-0.2,0.8-0.4,1.2-0.4
	c0.7-0.1,1.5-0.1,2.2-0.1c6.3,0,12.6,0,19,0.1c3.3,0,6.5,0.6,9.6,1.7c1.4,0.5,2.7,1.2,3.9,2c3.6,2.5,5.5,6,5.8,10.4
	c0.1,1.9,0.1,3.8-0.4,5.6c-0.9,2.8-2.4,5.1-4.8,6.8C287.4,113.5,286.7,114,285.9,114.5z M263.9,119.3c-0.2,0.4-0.3,0.5-0.3,0.6
	c0,4.4,0,8.9,0,13.3c0,0.4,0.2,0.8,0.3,1.2c3.8,0,7.5,0,11.2,0c1.5,0,2.9-0.6,4.2-1.3c1.2-0.7,2.1-1.8,2.5-3.1
	c0.8-2.3,0.7-4.6-0.2-6.8c-0.6-1.6-1.7-2.6-3.3-3.2c-1.3-0.5-2.6-0.8-4-0.7c-1.8,0-3.6,0-5.4,0C267.4,119.2,265.7,119.3,263.9,119.3
	z M263.9,110.1c0.1,0.1,0.1,0.2,0.2,0.2c3.5,0.3,6.9,0.2,10.4,0c1.1-0.1,2.2-0.5,3.3-1c1.4-0.6,2.3-1.7,2.8-3.2
	c0.6-1.8,0.5-3.5,0.1-5.3c-0.4-1.5-1.3-2.6-2.7-3.3c-1.3-0.7-2.7-1.1-4.2-1.1c-3.1,0-6.1-0.1-9.2-0.1c-0.4,0-0.8,0.1-1,0.5
	c0,3.9,0,7.7,0,11.4c0,0.4,0,0.8,0,1.3c0,0.1,0,0.2,0,0.3C263.8,110,263.9,110,263.9,110.1z"/>
  <path fill-rule="evenodd" clip-rule="evenodd" fill="#fff" d="M427.5,144.3c-4.7,0.4-8.1,0.3-10.1-0.2c-0.2-1.1-0.5-2.2-0.7-3.3
	c-0.8-0.1-1,0.4-1.4,0.8c-1.8,1.5-3.7,2.7-6.1,3.2c-5.7,1.2-10.6-0.3-14.6-4.5c-1.8-1.9-2.9-4.1-3.8-6.5c-1.2-3.1-1.5-6.3-1.7-9.6
	c-0.2-4.4,0.3-8.6,1.8-12.7c1.2-3.3,3.1-6.3,6.1-8.2c5-3.3,10.4-3.8,15.8-1c0.8,0.4,1.5,1.1,2.3,1.7c0.2,0.2,0.5,0.3,0.9,0.5
	c0-0.9,0.1-1.6,0.1-2.3c0-4.5,0-9.1,0-13.6c0-1.3,0-2.5,0.1-3.8c0-0.4,0.2-0.8,0.3-1.2c0.4-0.1,0.7-0.2,1-0.2c3.3,0,6.5-0.1,9.9,0
	c0.2,0.6,0.4,1,0.4,1.5c0.1,1.5,0.1,2.9,0.1,4.4c0,16.6,0,33.1,0,49.7c0,1.4,0,2.7-0.1,4.1C427.8,143.4,427.7,143.8,427.5,144.3z
	 M416.1,114.3c-2.1-3.6-5-4.4-8.5-4.1c-0.1,0-0.2,0-0.3,0.1c-1.4,0.2-2.6,0.9-3.5,1.9c-1,1.1-1.7,2.5-2,3.9c-1,3.7-1.1,7.5-0.6,11.3
	c0.2,1.2,0.6,2.5,1,3.6c1.3,3.6,4.9,5.3,8.4,4.5c0.6-0.1,1.2-0.3,1.8-0.4c1.7-0.8,3.1-1.9,3.8-3.9
	C416.1,125.6,416.1,119.9,416.1,114.3z"/>
  <path fill-rule="evenodd" clip-rule="evenodd" fill="#fff" d="M594.5,120.9c0,7.9,0.1,15.5-0.1,23.1c-0.7,0.2-1.2,0.4-1.7,0.4
	c-4.5,0.3-8.2,0.1-10-0.4c-0.1-0.2-0.2-0.4-0.2-0.6c-0.1-1.9,0-54.9,0.1-56.8c0.3-0.1,0.7-0.3,1.1-0.3c0.8-0.1,1.7-0.1,2.5-0.1
	c10.1,0,20.2,0,30.4,0c1,0,2.1-0.1,3.2,0.2c0.7,2.3,0.4,4.6,0.4,6.9c0,0.8,0.1,1.7-0.6,2.5c-2.6,0.4-5.4,0.2-8.1,0.3
	c-2.8,0-5.7,0-8.5,0c-2.7,0-5.5,0-8.1,0c-0.2,0.3-0.4,0.5-0.4,0.7c0,4.3,0,8.6,0.1,13c0,0.2,0.2,0.4,0.2,0.6
	c0.5,0.5,1.2,0.3,1.8,0.3c5.7,0,11.4,0,17.1,0.1c1,0,2.1,0.1,3,0.1c0.2,0.3,0.4,0.4,0.4,0.6c0.2,2.8,0.1,5.7,0.1,8.3
	c-0.5,0.7-1,0.7-1.5,0.7c-4.3,0.1-8.6,0.2-13,0.2C600.1,120.9,597.5,120.9,594.5,120.9z"/>
  <path fill-rule="evenodd" clip-rule="evenodd" fill="#fff" d="M647.6,117.8c0.3-2.1,0.2-3.8-0.5-5.5c-0.6-1.5-1.7-2.3-3.2-2.8
	c-1.7-0.4-3.3-0.4-5,0.1c-1.4,0.5-2.4,1.3-2.9,2.7c-0.2,0.6-0.4,1.2-0.6,1.7c-3.1,0.4-9,0.4-11.5-0.1c0-3,1.1-5.5,3.1-7.6
	c2.6-2.9,6-4.5,9.8-5.3c3.4-0.7,6.9-0.8,10.3-0.1c3.2,0.6,6,1.9,8.3,4.2c2.5,2.5,3.8,5.5,4,9c0.1,2.1,0.1,4.2,0.1,6.3
	c0,4.5,0,9.1,0,13.6c0,2.3,0.1,4.6,0.7,6.9c0.3,0.9,0.6,1.8,0.8,2.7c-0.1,0.5-0.4,0.8-0.8,0.9c-3.4,0-6.7,0-10.1,0
	c-0.3,0-0.6-0.3-0.8-0.4c-0.4-1-0.8-1.9-1.3-2.9c-0.5,0.4-0.9,0.7-1.3,1c-3,2.4-6.5,3.3-10.3,3.1c-3.9-0.3-7.4-1.6-10.2-4.5
	c-2.1-2.2-3.3-4.8-3.3-7.9c0-1.4,0-2.7,0.3-4.1c0.8-3.3,2.7-5.6,5.4-7.5c1.2-0.8,2.6-1.4,4-1.9c2.4-0.7,4.9-1.3,7.4-1.3
	c1.3,0,2.5-0.1,3.8-0.1C645,117.8,646.2,117.9,647.6,117.8z M647.7,132.2c0-2.5,0.3-4.8-0.2-7.2c-2.2-0.3-4.3-0.2-6.4,0
	c-1.1,0.1-2.3,0.5-3.3,1c-2,1-3,2.6-3.1,4.8c-0.1,0.9,0.2,1.9,0.3,2.5c0.7,1.2,1.5,1.9,2.7,2.4C641.5,136.5,645,135.9,647.7,132.2z"
  />
  <path fill-rule="evenodd" clip-rule="evenodd" fill="#fff" d="M474.1,126.1c-0.5,0.2-0.8,0.5-1.2,0.5c-1.3,0.1-2.5,0.1-3.8,0.1
	c-6.3,0-12.7,0-19,0c-0.9,0-1.9-0.1-2.7,0.1c-0.5,0.4-0.4,0.8-0.2,1.2c0.3,0.9,0.6,1.8,1.1,2.6c1.8,3.3,4.8,4.7,8.3,4.9
	c3.6,0.2,6.9-0.8,9.6-3.4c0.4-0.3,0.6-0.9,1.2-1c0.2,0.1,0.4,0,0.6,0.2c1.8,1.8,3.4,3.7,5,5.5c0.2,0.8-0.3,1.2-0.6,1.6
	c-2.2,2.6-4.9,4.4-8,5.4c-5.8,1.9-11.6,1.9-17.3-0.5c-5.7-2.4-9.5-6.6-11.1-12.6c-1.6-6.1-1.4-12.3,1-18.3
	c2.3-5.6,6.3-9.4,12.1-11.2c4.1-1.3,8.3-1.3,12.5,0c6,1.8,9.7,6,11.6,12c0.7,2.3,1.1,4.7,1.2,7.2
	C474.3,122.3,474.2,124.2,474.1,126.1z M462,118.5c0.2-0.4,0.5-0.5,0.5-0.7c-0.1-1-0.1-2.1-0.4-3.1c-0.8-2.6-2.6-4.2-5.4-4.5
	c-0.9-0.1-1.9-0.1-2.8,0c-2.1,0.2-3.7,1.2-4.9,3c-0.8,1.2-1.2,2.6-1.7,4c-0.1,0.4-0.2,0.8,0.4,1.2
	C452.3,118.6,457.1,118.5,462,118.5z"/>
  <path fill-rule="evenodd" clip-rule="evenodd" fill="#fff" d="M829.2,126.1c1-3.5,2-7.1,3.1-10.6c1.1-3.9,2.3-7.9,3.5-11.8
	c0.2-0.7,0.5-1.4,0.7-2c2.4-0.6,2.4-0.6,8.2-0.5c1.4,0,2.7,0,3.9,0.4c0.3,0.7,0,1.2-0.2,1.6c-3,8.7-6.1,17.5-9.1,26.2
	c-2.3,6.7-4.6,13.3-6.9,20c-0.6,1.6-1.2,3.2-1.9,4.7c-3.3,6.7-9.8,8.6-15.6,7.3c-0.5-0.1-1-0.3-1.4-0.4c-0.5-0.5-0.5-1-0.6-1.5
	c0-2.3-0.1-4.6,0-6.7c0.4-0.7,1-0.8,1.5-0.8c1.5-0.1,3,0,4.4-0.5c1.6-0.7,2.6-2,3.2-3.7c0.4-1.1,0.8-2.1,1.3-3.3
	c-2.4-7.2-5-14.3-7.4-21.5c-2.4-7-4.9-14.1-7.4-21c0.3-0.2,0.4-0.4,0.6-0.5c0.6-0.1,1.2-0.3,1.9-0.2c3.3,0,6.5-0.2,9.9,0.2
	c0.2,0.5,0.5,1,0.6,1.5c2.2,7.4,4.4,14.9,6.6,22.4c0,0.1,0,0.2,0,0.3c-0.2,0.8,0,1.4,0.9,1.6C829.3,126.8,829.3,126.5,829.2,126.1z"
  />
  <path fill-rule="evenodd" clip-rule="evenodd" fill="#fff" d="M302.3,101.5c0.8-0.1,1.5-0.3,2.1-0.3c2.9,0,5.9-0.2,8.8,0.2
	c0.2,0,0.3,0.2,0.7,0.4c0.1,0.7,0.2,1.6,0.2,2.4c0,2.7,0.1,5.5,0.1,8.2c0,5.4,0,10.7,0,16.1c0,0.8,0,1.7,0.1,2.5
	c0.3,2.2,1.4,3.7,3.7,4.2c3.8,0.9,7.1,0.1,9.4-2.8c0.6-1.3,0.4-2.3,0.4-3.4c0-7,0-13.9,0-20.9c0-1.8,0.1-3.6,0.2-5.4
	c0-0.4,0.1-0.8,0.2-1.2c0.4-0.1,0.7-0.3,0.9-0.3c2.9,0,5.9,0,8.8,0c0.4,0,0.8,0.2,1.3,0.3c0.1,0.4,0.2,0.8,0.2,1.2
	c0,0.8,0.1,1.7,0.1,2.5c0,11.8,0,23.6,0,35.4c0,1.1,0.1,2.3-0.2,3.3c-0.3,0.2-0.5,0.4-0.6,0.4c-2.5,0.2-7.7,0.2-9.8-0.1
	c-0.9-0.9-0.5-2.2-0.8-3.3c-0.6-0.1-1,0.4-1.3,0.7c-4.8,3.9-10.2,4.3-15.8,2.6c-4.5-1.4-7-4.9-8.1-9.3c-0.4-1.7-0.6-3.5-0.6-5.3
	c0-8.7,0-17.5,0-26.2C302.2,102.9,302.2,102.3,302.3,101.5z"/>
  <path fill-rule="evenodd" clip-rule="evenodd" fill="#fff" d="M775.5,123.4c0.1,2.8-0.3,5.8-1.3,8.7c-2.2,6-6.2,10.2-12.3,12.1
	c-5,1.5-10,1.4-14.9-0.5c-5.9-2.3-9.6-6.7-11.3-12.8c-1.1-3.8-1.3-7.6-0.9-11.6c0.3-3.3,1.1-6.4,2.8-9.3c2.9-5,7.2-8.1,12.9-9.3
	c3.8-0.8,7.5-0.6,11.2,0.5c5.7,1.7,9.6,5.5,11.9,10.9c1.2,2.8,1.8,5.8,1.9,8.9C775.5,121.8,775.5,122.4,775.5,123.4z M763.7,123.9
	c0-1.2,0-2,0-2.9c-0.1-1.2-0.2-2.3-0.4-3.4c-0.1-0.7-0.4-1.4-0.6-2.1c-1.8-4.3-4.6-5.6-8.6-5.3c-2.5,0.2-4.3,1.4-5.6,3.5
	c-0.4,0.6-0.6,1.3-0.9,2c-1.2,3.7-1.5,7.4-0.8,11.2c0.2,1.2,0.5,2.5,0.9,3.6c1.1,3,3.4,4.8,6.6,5.1c3.4,0.3,6.7-1.1,8.1-4.7
	c0.2-0.5,0.3-1,0.5-1.5C763.6,127.5,763.5,125.4,763.7,123.9z"/>
  <path fill-rule="evenodd" clip-rule="evenodd" fill="#fff" d="M553.9,114.1c-0.4,0.1-0.8,0.3-1.2,0.3c-3.3,0.1-6.5,0.2-9.9-0.1
	c-0.2-0.4-0.4-0.8-0.5-1.2c-0.9-2.6-1.1-2.8-3.8-4.1c-1.5,0-3.2,0-4.7,0c-1.4,0.4-2.6,1-3.2,2.2c-0.6,1.2-0.6,2.4-0.1,3.6
	c0.8,1.3,2.1,1.8,3.4,2.2c1.7,0.5,3.5,0.9,5.2,1.3c1.8,0.5,3.7,0.8,5.5,1.4c2.5,0.8,4.8,2.1,6.7,4.1c2.4,2.5,3.1,5.4,2.9,8.7
	c-0.2,3.7-2.2,6.5-5.1,8.7c-2.1,1.5-4.4,2.5-6.9,3c-3.9,0.8-7.7,0.9-11.6,0.1c-4-0.9-7.5-2.8-10.2-6c-1.4-1.6-2.4-3.5-2.7-5.6
	c-0.1-0.6-0.2-1.2-0.3-1.8c0.2-0.5,0.5-0.8,0.9-0.8c3.2-0.2,6.3-0.2,9.5,0.1c0.2,0,0.4,0.2,0.6,0.3c0.2,0.5,0.4,1.1,0.6,1.7
	c0.7,2.1,2.3,3.3,4.3,3.8c2,0.5,4,0.5,6,0.1c1.3-0.3,2.3-0.9,3.1-2.1c0.5-1.1,0.5-2.2,0.1-3.4c-0.6-1-1.5-1.7-2.6-2.1
	c-1.4-0.5-2.8-1-4.2-1.3c-2.2-0.6-4.5-1-6.7-1.8c-1.8-0.7-3.5-1.5-5-2.6c-1-0.7-2-1.6-2.8-2.5c-1.7-2-2.3-4.3-2.3-6.7
	c0-2.7,0.9-5.2,2.6-7.3c2.3-2.8,5.3-4.5,8.7-5.4c4.7-1.2,9.4-1,14,0.5c2.2,0.7,4.2,1.9,5.9,3.5c2.3,2.2,3.7,4.8,3.9,8
	C554.1,113.4,554,113.7,553.9,114.1z"/>
  <path fill-rule="evenodd" clip-rule="evenodd" fill="#fff" d="M703.9,117.2c-3,0.4-8.2,0.4-10.6,0c-0.2-0.6-0.4-1.2-0.5-1.8
	c-1-3.6-3.4-5.5-7.1-5.3c-0.8,0-1.7,0.2-2.3,0.3c-2.8,1.1-4,3.2-4.6,5.8c-0.5,2-0.7,3.9-0.6,6c0.1,2.4-0.1,4.9,0.6,7.2
	c0.1,0.3,0.1,0.6,0.2,0.9c1.2,3.9,4.8,6.1,8.8,5.2c1.1-0.2,2.2-0.6,3.1-1.4c0.9-0.8,1.6-1.6,1.9-2.8c0.1-0.6,0.4-1.2,0.6-1.7
	c2.8-0.4,8-0.3,10.4,0c0.1,0.2,0.3,0.3,0.3,0.5c0,0.8,0,1.7-0.2,2.5c-1.2,4.5-3.8,7.9-7.9,10.2c-4,2.2-8.3,2.8-12.8,2.2
	c-1.9-0.3-3.7-0.7-5.5-1.5c-5.4-2.4-8.7-6.6-10.2-12.1c-1.1-3.9-1.5-7.8-1-11.9c0.3-2.9,0.8-5.8,2.2-8.5c2.4-4.9,6.1-8.3,11.4-9.8
	c4.5-1.3,9-1.2,13.4,0.3C700.5,104,704.5,111.2,703.9,117.2z"/>
  <path fill-rule="evenodd" clip-rule="evenodd" fill="#fff" d="M712.1,110c-1.8-0.5-3.7,0.2-5.7-0.5c-0.6-2.6-0.2-5.2-0.2-7.6
	c0.5-0.7,1.1-0.8,1.6-0.8c1.1-0.1,2.1,0,3.2-0.1c0.4,0,0.8-0.1,1.1-0.1c0.6-0.9,0.3-1.8,0.4-2.6c0.1-0.8,0-1.7,0-2.5
	c0-0.8,0-1.7,0.1-2.5c0.1-0.8-0.1-1.7,0.5-2.6c0.4,0,0.9-0.1,1.4-0.1c2.9,0,5.9,0.1,8.8,0.1c0.2,0,0.4,0.2,0.7,0.4
	c0.3,1,0.1,2.2,0.2,3.3c0,1.1,0,2.1,0,3.2c0.1,1.1-0.3,2.3,0.3,3.4c2.3,0.5,4.7-0.3,6.9,0.6c0.4,2.2,0.4,5.3,0.1,7.9
	c-0.3,0.4-0.7,0.4-1.1,0.4c-0.9,0-1.9,0-2.8,0c-0.9,0-1.9,0-2.6,0c-0.6,0.3-0.7,0.8-0.7,1.2c0,6.5,0,13.1,0.1,19.6
	c0,0.9,0,1.9,0.4,2.8c0.3,0.6,0.6,1.1,1.2,1.4c1.8,0.7,3.7,0.4,5.5,0.3c0.2,0.3,0.4,0.4,0.5,0.6c0.2,2.7,0.3,5.4,0,8.1
	c-1.3,0.9-2.7,0.9-4,1.1c-2.4,0.3-4.8,0.3-7.2-0.4c-4.3-1.1-7.3-4.4-7.7-8.9c-0.2-2.4-0.3-4.8-0.3-7.3c0-5.4,0-10.8,0-16.1
	C712.5,111.6,712.6,110.8,712.1,110z"/>
  <path fill-rule="evenodd" clip-rule="evenodd" fill="#fff" d="M370.1,83.4c2.7-0.3,8.2-0.3,11-0.1c0.5,0.3,0.6,0.8,0.6,1.4
	c0,1.5,0.1,2.9,0.1,4.4c0,16.5,0,33.1,0,49.6c0,1.4,0,2.7-0.1,4.1c0,0.5-0.3,1-0.4,1.4c-1.9,0.2-8,0.4-10.2,0.2
	c-0.3,0-0.6-0.2-1-0.3c-0.1-0.4-0.2-0.8-0.2-1.2c0-1.1-0.1-2.1-0.1-3.2c0-17.2,0-34.3,0-51.5C369.9,86.7,369.8,85.1,370.1,83.4z"/>
  <path fill-rule="evenodd" clip-rule="evenodd" fill="#fff" d="M504.5,100.9c0.6,3.9,0.4,9.1-0.2,11.2c-0.7,0-1.4-0.1-2.2-0.1
	c-1.4-0.1-2.7,0-4.1,0.2c-2.6,0.4-4.6,1.4-5.9,4c0,0.6,0,1.3,0,2c0,7.6,0,15.2,0,22.8c0,1,0.2,2.1-0.4,3.2c-0.4,0.1-0.7,0.2-1.1,0.2
	c-4.8,0.2-7.7,0.1-9.7-0.3c-0.4-0.4-0.4-0.9-0.4-1.5c-0.1-1.9-0.2-3.8-0.2-5.7c0-9.3,0-18.6,0-27.8c0-2,0.1-4,0.2-6
	c0-0.5,0.1-1,0.2-1.6c0.6-0.1,1.1-0.3,1.6-0.3c2.3-0.2,6.7-0.1,8.8,0.2c0.5,0.4,0.4,0.9,0.5,1.4c0.1,0.7-0.1,1.5,0.5,2.1
	c0.9,0,1-0.9,1.6-1.3c0.7-0.5,1.3-1.1,1.9-1.6c0.6-0.4,1.3-0.7,2-1c0.7-0.3,1.4-0.5,2.1-0.6c0.8-0.1,1.7-0.1,2.5-0.1
	C502.9,100.5,503.6,100.7,504.5,100.9z"/>
  <path fill-rule="evenodd" clip-rule="evenodd" fill="#fff" d="M782.6,144c-0.3-1.6-0.2-3.2-0.2-4.7c-0.3-19.2-0.2-33.7,0.3-37.7
	c0.2-0.1,0.5-0.3,0.8-0.3c2.1-0.3,7.3-0.2,9.4,0.1c0.5,0.3,0.5,0.9,0.6,1.4c0.1,0.6,0.2,1.2,0.3,1.9c0,0.1,0.1,0.2,0.3,0.3
	c0.9-0.4,1.2-1.3,1.9-1.9c0.8-0.5,1.5-1.2,2.3-1.6c0.8-0.4,1.8-0.7,2.7-0.9c0.9-0.2,1.9-0.3,2.8-0.3c0.9,0,1.8,0.3,2.8,0.6
	c0.1,0.7,0.4,1.3,0.3,1.9c-0.3,2.5-0.2,5-0.2,7.6c0,0.5,0.1,1.1-0.3,1.6c-0.4,0.4-0.9,0.2-1.4,0.1c-1.6-0.2-3.1-0.2-4.7,0
	c-2.8,0.4-5,1.5-6.2,4.4c0,8.8,0,17.7,0,26.7c0,0.2-0.1,0.4-0.2,0.7c-0.2,0.1-0.5,0.4-0.7,0.4c-3.2,0-6.3,0-9.5,0
	C783.2,144.4,782.9,144.2,782.6,144z"/>
  <path fill-rule="evenodd" clip-rule="evenodd" fill="#fff" d="M359.7,144.3c-2.9,0.3-8.4,0.2-11,0c-0.1-0.3-0.3-0.7-0.4-1.1
	c-0.1-0.8-0.1-1.7-0.1-2.5c0-11.8,0-23.6,0-35.4c0-1.2,0.1-2.3,0.1-3.2c0.3-0.7,0.7-0.8,1.1-0.8c3.2,0,6.3,0,9.5,0
	c0.3,0,0.6,0.2,0.9,0.4c0.1,0.4,0.2,0.8,0.2,1.2c0.1,1.2,0.1,2.3,0.1,3.5c0,11.2,0,22.3,0,33.5c0,1.2,0,2.3-0.1,3.5
	C360.2,143.6,359.9,144,359.7,144.3z"/>
  <path fill-rule="evenodd" clip-rule="evenodd" fill="#51BBB1" d="M11.7,64.8c0-4.2,0-8.4,0-12.7c1.1-0.6,0.8-1.7,1.2-2.9
	c1.2,0.2,2.3-0.2,3.1-1.3c0.1-0.7,0.2-1.3,0.3-1.8c0.3,0,0.5,0,0.8,0c0.2-0.4,0.4-0.9,0.6-1.2c0.4-0.1,0.6-0.1,0.9-0.2
	c0.1-0.6,0.2-1.1,0.2-1.6c0.4,0.2,0.7,0.4,1.1,0.5c0.4-0.5,0.8-1,1.1-1.4c0.5-0.2,0.8-0.3,1.2-0.5c-0.2-1-0.2-1,0-1.9
	c0.4,0,0.8,0,1.5,0.1c0-1.6,1.8-1.5,2.3-2.5c0-0.4,0-0.7,0.1-0.9c1-0.7,2-1.2,2.8-2.1c0.4-0.3,0.8-0.6,1.1-1c0.7-1,1.4-2.1,2-3
	c0.6,0,1.1,0,1.7,0c0.1-0.4,0.3-0.8,0.4-1c0.8-0.8,1.5-1.6,2.3-2.5c0.1-0.5,0.2-1.3,0.9-1.6c0.4,0,0.7-0.1,0.9-0.1
	c0.2-0.4,0.3-0.8,0.5-1.3c1.8-0.3,2.5-2,3.6-3c0.4,0,0.7,0,1-0.1c-0.2-0.8-0.3-1.4-0.5-2.1c4.8,0,9.7,0,14.5,0c-1.3,1.3-2.3,3-4,3.8
	c-0.3,0.1-0.5,0.4-0.6,0.7c-0.9,1.3-2.1,2.3-2.5,3.7c-0.8,0.6-1.4,1.1-2,1.7c-0.2,0-0.4,0-0.6,0c-0.6,0.9-1.2,1.7-1.8,2.5
	c-1,0.7-1.9,1.4-2.8,2c-0.1,0.4-0.2,0.7-0.3,1c-1.1,1-2.4,1.7-3,3.1c-2.1,0-4.2,0.1-6.3,0.1c-0.7,0-1.4,0.1-2,0.1
	c-0.8,0.6-0.6,1.2-0.6,1.8c0,4.4,0,8.8,0,13.1c0,1-0.1,2.1-0.1,3.1C30.2,55,30,54.6,30,54.1c0-1.4,0-2.7,0-4.1c0-1,0-2.1-0.1-3.2
	c-1.3,0.1-1.1,1.6-2.1,1.8c-0.4-0.1-0.8-0.1-1.3-0.2c-0.9,1.4-1.8,2.8-2.7,4.1c-0.5,0.1-0.9,0.2-1.3,0.4c-0.2,0.1-0.3,0.3-0.5,0.5
	c0,0.2,0,0.5,0,0.8c-0.6,0.4-1.2,0.9-1.8,1.3c-0.3,0-0.6,0-0.8,0c-0.6,0.9-1.2,1.8-1.8,2.6c-0.8,0.5-1.7,0.9-2.3,1.3
	c-1,1.6-1.8,3.1-2.7,4.5C12.5,64.4,12,64.6,11.7,64.8z"/>
  <path fill-rule="evenodd" clip-rule="evenodd" fill="#56BCAF" d="M42.7,18.6c0.2,0.7,0.3,1.4,0.5,2.1c-0.4,0-0.7,0-1,0.1
	c-1.1,1-1.8,2.8-3.6,3c-0.2,0.5-0.3,0.9-0.5,1.3c-0.3,0-0.6,0.1-0.9,0.1c-0.7,0.3-0.8,1.1-0.9,1.6c-0.8,0.9-1.5,1.6-2.3,2.5
	c-0.1,0.3-0.2,0.7-0.4,1c-0.6,0-1,0-1.7,0c-0.6,1-1.3,2-2,3c-0.3,0.4-0.8,0.7-1.3,1c0,0,0,0,0.1,0.1c0-0.1-0.1-0.2-0.1-0.3
	c0,0-0.1,0-0.2-0.1c0,0.1,0,0.1,0.2,0.3C28,35.3,27,35.8,26,36.5c0,0.2,0,0.5-0.1,0.9c-0.6,1-2.4,0.9-2.3,2.5
	c-0.7,0-1.1-0.1-1.5-0.1c-0.2,0.9-0.2,0.9,0,1.9c-0.4,0.1-0.7,0.3-1.2,0.5c-0.3,0.4-0.7,0.9-1.1,1.4c-0.4-0.2-0.7-0.4-1.1-0.5
	c-0.1,0.5-0.2,1-0.2,1.6c-0.2,0.1-0.5,0.1-0.9,0.2c-0.2,0.4-0.4,0.8-0.6,1.2c-0.2,0-0.5,0-0.8,0c-0.1,0.6-0.2,1.1-0.3,1.8
	c-0.7,1-1.8,1.4-3.1,1.3c-0.4,1.1-0.1,2.3-1.2,2.9c0-4.6,0-9.3,0-13.9c1.4-0.5,1.7-2.1,2.9-2.7c0.3-0.1,0.6-0.4,0.6-0.7
	c0.4-1.2,1.6-1.6,2.3-2.5c1-1.6,2.4-2.9,3.5-4.4c0.8-1,1.8-1.9,2.4-3.1c0.3,0.2,0.6,0.5,1.1,0.8c0.1-0.5,0.2-0.9,0.2-1.4
	c1.5-1.4,2.8-3.2,4.5-4.6c0.4,0,0.8,0,1.2,0c0.3-0.4,0.5-0.7,0.7-1C35.1,18.6,38.9,18.6,42.7,18.6z"/>
  <path fill-rule="evenodd" clip-rule="evenodd" fill="#536EB3" d="M137.6,166.7c-3,0-5.9,0-8.9,0c0.3-0.5,0.6-1.1,0.9-1.7
	c0.8-0.5,1.7-0.9,2.4-1.3c0.3-0.4,0.5-0.8,0.8-1.1c0.3,0,0.6,0,0.9,0c0.6-0.7,1.2-1.4,1.9-2.1c0.1-0.4,0.1-0.9,0.2-1.5
	c0.4-0.2,1.1,0.1,1.4-0.6c0-0.4-0.1-0.9-0.1-1.3c0.7-0.2,1.4-0.4,1.8-0.6c1-1.2,1.8-2.3,2.7-3.4c0.2,0,0.5-0.1,0.8-0.1
	c0.7-1.1,1.4-2.1,2.1-3.1c0.4,0,0.7,0,1,0c0.1-0.3,0.1-0.6,0.3-0.8c1-1.2,2-2.4,3.1-3.5c0.3-0.3,0.8-0.3,1.1-0.5
	c0.2-0.1,0.4-0.2,0.5-0.3c0.3-0.4,0.6-0.9,0.9-1.2c0.6-0.2,1.1-0.4,1.5-0.5c0.7-1,1.2-2,1.9-2.9c0.8-1,1.8-1.8,2.6-2.6
	c0.2-0.6,0.4-1.1,0.6-1.6c0.5-0.3,1.1-0.6,1.6-0.9c0,3,0,5.9,0,8.9c-0.3,0.3-0.8,0.4-1,0.8c-0.5,0.7-0.8,1.5-1.1,2
	c-2.4,1.6-4.1,3.9-6.5,5c-0.3,1.4-1.6,2-1.8,3.2c-0.3,0-0.5,0-0.9,0.1c0,1.4-1.6,1.3-2.3,2.3c0,0.3,0,0.6,0,0.9
	c-0.3,0.2-0.6,0.3-0.8,0.5c-0.3,0.3-0.5,0.6-0.8,1c-1.6,1.8-3.1,3.7-5.3,4.6C138.7,165.2,138.2,165.9,137.6,166.7z"/>
  <path fill-rule="evenodd" clip-rule="evenodd" fill="#59BDAE" d="M42.7,18.6c-3.8,0-7.6,0-11.6,0c-0.2,0.3-0.4,0.6-0.7,1
	c-0.4,0-0.8,0-1.2,0c-1.7,1.4-2.9,3.2-4.5,4.6c-0.1,0.5-0.2,0.9-0.2,1.4c-0.4-0.3-0.8-0.6-1.1-0.8c-0.5,1.2-1.6,2.1-2.4,3.1
	c-1.1,1.5-2.5,2.8-3.5,4.4c-0.6,1-1.9,1.3-2.3,2.5c-0.1,0.3-0.4,0.5-0.6,0.7c-1.2,0.7-1.5,2.3-2.9,2.7c0-3.2-0.1-6.3-0.1-9.5
	c0-2.8,0-5.7,0-8.5c0-0.6,0.1-1.2,0.2-1.9c0.5-0.1,0.9-0.2,1.3-0.3c0.7,0,1.5,0,2.2,0c14.4,0,28.9,0,43.3,0c1,0,2.1,0.1,3.1,0.1
	c0,0.1,0,0.3,0,0.4c-1.5,0-3,0-4.4,0C52.4,18.6,47.6,18.6,42.7,18.6z"/>
  <path fill-rule="evenodd" clip-rule="evenodd" fill="#48BAB5" d="M11.7,85.1c0-4,0-8,0-12c0.9-0.2,1.1-1.2,1.8-1.6
	c0.2,0,0.4,0,0.6,0c1-0.5,1.3-1.6,2-2.5c1.4-0.4,2.3-1.6,3-2.8c1.2-0.1,1.9-0.7,2.5-1.5c0.7-0.9,1.3-1.9,1.8-2.8
	c0.9-0.5,1.7-1,2.5-1.4c1.1-1.8,1.5-3.9,4-4.1c0.1,0.1,0.2,0.2,0.2,0.3c0,3.1,0.1,6.3,0.1,9.4c-1.2,0.7-1.9,1.9-2.9,2.7
	c-1.1,0.9-2,2.1-2.5,3.4c-1.5,1-3,2.1-4.3,2.9c-1.6,1.9-2.6,4-4.5,5.1c-0.5,0.1-0.7,0.1-1,0.2c-0.4,0.6-0.6,1.1-1,1.6
	c-0.4,0.5-0.8,0.9-1.1,1.3C12.2,84,12.4,84.8,11.7,85.1z"/>
  <path fill-rule="evenodd" clip-rule="evenodd" fill="#5470B5" d="M159.8,135.1c-0.5,0.3-1.1,0.6-1.6,0.9c-0.2,0.5-0.4,1-0.6,1.6
	c-0.8,0.8-1.8,1.7-2.6,2.6c-0.7,0.9-1.3,1.9-1.9,2.9c-0.4,0.2-0.9,0.3-1.5,0.5c-0.3,0.4-0.6,0.8-0.9,1.2c-0.2,0.1-0.3,0.2-0.5,0.3
	c-0.4,0.2-0.9,0.2-1.1,0.5c-1.1,1.1-2.1,2.3-3.1,3.5c-0.2,0.2-0.2,0.6-0.3,0.8c-0.3,0-0.7,0-1,0c-0.7,1-1.4,2-2.1,3.1
	c-0.3,0-0.6,0.1-0.8,0.1c-0.9,1.1-1.7,2.2-2.7,3.4c-0.5,0.2-1.1,0.4-1.8,0.6c0,0.4,0.1,0.9,0.1,1.3c-0.4,0.6-1,0.3-1.4,0.6
	c-0.1,0.5-0.2,1-0.2,1.5c-0.7,0.8-1.3,1.5-1.9,2.1c-0.3,0-0.6,0-0.9,0c-0.2,0.3-0.5,0.7-0.8,1.1c-0.7,0.4-1.6,0.9-2.4,1.3
	c-0.3,0.5-0.6,1.1-0.9,1.7c-1.9,0-3.8,0-5.7,0c0.4-1,1.3-1.6,2.1-2.3c0.3,0,0.6,0,0.9,0c0.7-1.1,1.4-2.1,2.1-3.1
	c0.8-0.4,1.5-0.8,2.2-1.2c0.2-0.5,0.3-1.2,0.7-1.4c1.8-1.3,2.6-3.5,4.7-4.5c0.5-0.2,0.8-0.9,1.2-1.4c0.3-0.3,0.4-0.8,0.8-1
	c1.3-0.9,2.1-2.3,3.1-3.5l0,0c0.4-0.1,0.5-0.4,0.5-0.7l0,0.1c0.3-0.1,0.6-0.2,0.8-0.4c2-1.8,4.2-3.4,5.6-5.6c0.5,0,0.8-0.1,1.1-0.1
	c0.1-0.3,0.1-0.7,0.3-0.9c0.8-1,1.5-2,2.5-2.8c0.9-0.7,1.7-1.5,2.5-2.3c1.3-1.3,2.6-2.7,3.9-4.1c0.3,0,0.6,0,0.9,0
	c0.4-0.5,0.1-1.3,0.8-1.6C159.8,131.7,159.8,133.4,159.8,135.1z"/>
  <path fill-rule="evenodd" clip-rule="evenodd" fill="#4FBBB2" d="M30,66.1c0-3.1,0-6.3-0.1-9.4c0-0.1-0.1-0.2-0.2-0.3
	c-2.5,0.2-2.9,2.4-4,4.1c-0.7,0.4-1.5,0.9-2.5,1.4c-0.6,0.9-1.2,1.8-1.8,2.8c-0.6,0.8-1.3,1.4-2.5,1.5c-0.7,1.2-1.6,2.3-3,2.8
	c-0.7,0.9-1,2-2,2.5c-0.2,0-0.4,0-0.6,0c-0.7,0.4-0.9,1.4-1.8,1.6c0-2.7,0-5.5,0-8.2c0.3-0.2,0.8-0.4,1-0.8c0.9-1.4,1.8-2.9,2.7-4.5
	c0.6-0.4,1.4-0.8,2.3-1.3c0.6-0.8,1.2-1.7,1.8-2.6c0.3,0,0.6,0,0.8,0c0.6-0.4,1.2-0.9,1.8-1.3c0-0.3,0-0.6,0-0.8
	c0.2-0.2,0.3-0.4,0.5-0.5c0.4-0.2,0.8-0.3,1.3-0.4c0.9-1.3,1.8-2.7,2.7-4.1c0.5,0.1,0.9,0.1,1.3,0.2c0.9-0.3,0.8-1.8,2.1-1.8
	C30,48,30,49,30,50c0,1.4,0,2.7,0,4.1c0,0.4,0.1,0.8,0.5,1.1c0,1.5,0.1,3.1,0.1,4.6c0,3.1-0.1,6.2-0.1,9.3c-0.3-0.3-0.5-0.6-0.5-1
	C30.1,67.5,30,66.8,30,66.1z"/>
  <path fill-rule="evenodd" clip-rule="evenodd" fill="#48BAB5" d="M59.8,37c-3.8,0-7.6,0-11.4,0c1.9-1.6,3.9-3.1,4.9-5.2
	c1.2-0.8,2.1-1.5,3.1-2.1c0.7-1.6,2.4-2.6,2.9-4.3c0.4-0.1,0.8-0.1,1.1-0.1c1.4-1.3,2.7-2.5,3.2-4.3c0.5-0.1,0.9-0.1,1.3-0.2
	c0.4-0.4,0.7-0.8,1.1-1.1c0.1-0.4,0.1-0.7,0.1-1c2.7,0,5.5,0,8.2,0c0.5,0.1,1.1-0.1,1.6,0.3c-0.3,0.9-1.1,1.5-1.7,2
	c-0.4,0-0.7,0.1-0.9,0.1c0,0.5,0,0.9,0.1,1.3c-0.2,0.1-0.4,0.2-0.5,0.4c-1.1,1.1-2.3,2.2-3.2,3.4c-0.7,0.9-1.5,1.4-2.3,2
	c-0.9,1.3-1.7,2.5-2.4,3.6c-0.5,0-0.8,0-1.2,0c-0.2,0.1-0.4,0.3-0.7,0.6c-0.4,0.5-0.9,0.9-1.2,1.4c-0.4,0.5-0.6,1.1-0.9,1.7
	c-0.3,0.5-1.1,0.7-1.1,1.4C59.8,36.8,59.8,36.9,59.8,37z"/>
  <path fill-rule="evenodd" clip-rule="evenodd" fill="#4DBBB2" d="M66.1,18.6c0,0.3-0.1,0.6-0.1,1c-0.3,0.3-0.7,0.7-1.1,1.1
	c-0.4,0.1-0.8,0.1-1.3,0.2c-0.5,1.7-1.8,3-3.2,4.3c-0.3,0-0.7,0.1-1.1,0.1c-0.5,1.8-2.2,2.7-2.9,4.3c-1,0.7-1.9,1.3-3.1,2.1
	c-1,2-3,3.6-4.9,5.2c-3,0-5.9,0-8.9,0c0.6-1.4,2-2.1,3-3.1c0.1-0.3,0.2-0.6,0.3-1c0.9-0.6,1.8-1.3,2.8-2c0.6-0.8,1.2-1.7,1.8-2.5
	c0.2,0,0.4,0,0.6,0c0.6-0.5,1.3-1,2-1.7c0.4-1.4,1.6-2.4,2.5-3.7c0.2-0.3,0.4-0.6,0.6-0.7c1.8-0.8,2.7-2.5,4-3.8c1.5,0,3,0,4.4,0
	C63.2,18.6,64.6,18.6,66.1,18.6z"/>
  <path fill-rule="evenodd" clip-rule="evenodd" fill="#5474B7" d="M141.4,138.8c0-2.5,0-5.1,0-7.6c0.6-0.3,1.1-0.6,1.6-0.8
	c1.3-1.8,2.3-3.8,4.4-4.9c0.8-0.4,1.4-1.2,1.8-2.1c0.2-0.5,0.5-0.9,0.9-1.5c0.7-0.3,1.4-0.5,2.2-0.9c0.2-0.1,0.3-0.3,0.4-0.4
	c0-0.4,0-0.8,0-1.2c0.1,0.1,0.3,0.2,0.4,0.4c0.3-0.6,0.6-1.1,1-1.7c1.5-0.1,2.3-1.2,3-2.4c0.5-0.8,1.2-1.6,1.7-2.4
	c0.4,0.4,0.7,0.6,1,0.9c0,2.9,0,5.9,0,8.8l0,0c-0.3,0.1-0.7,0-0.9,0.2c-0.8,0.8-1.6,1.5-1.9,2.5c-0.4,0-0.7,0.1-1.2,0.1
	c-1,1.2-2.1,2.5-3.2,3.8c-0.4,0.1-0.9,0.3-1.3,0.5c-0.7,1-1.4,1.9-2,2.7c-0.6,0.4-1.2,0.7-1.6,0.9c-0.5,0.4-0.1,1-0.5,1.2
	c-0.5,0.2-0.7,0.8-0.9,1.2c-0.2,0.4-0.4,0.7-0.6,1c-0.9,0.5-2.1,0.5-2.8,1.5c-0.2,0.2,0.1,0.8-0.5,0.9
	C142,139.4,141.7,139.1,141.4,138.8z"/>
  <path fill-rule="evenodd" clip-rule="evenodd" fill="#5375B8" d="M116.1,166.7c-3.2,0-6.3,0-9.5,0c0.5-0.8,1.1-1.5,1.4-2.1
	c1.5-1.3,2.8-2.3,4.1-3.5c0.1-0.3,0.2-0.7,0.4-1.1c0.3-0.1,0.6-0.1,0.9-0.1c0.6-0.9,1.2-1.7,1.8-2.5c0.4-0.2,0.8-0.3,1.2-0.5
	c0.2-0.2,0.3-0.6,0.5-0.8c1.2-1.1,2.4-2.3,3.2-3.8c0.3-0.6,1-1.1,1.6-1.5c0.7-0.4,1.4-1,1.9-1.7c0-0.3,0.1-0.6,0.1-0.9
	c2.7,0,5.5,0,8.2,0c0.3,0.5,0.3,0.5,0.6,0c0.2,0,0.4,0,0.6,0c-0.1,0.4-0.2,0.8-0.2,1c-0.2,0.2-0.3,0.3-0.4,0.4
	c-0.6,0.3-1.1,0.5-1.7,0.8c-0.2,0.5-0.4,0.9-0.6,1.3c-0.4,0.2-0.8,0.3-1.2,0.4c-0.7,1-1.4,1.9-2.1,2.8c-1.6,0.7-2.2,2.2-2.9,3.6
	c-0.3,0-0.7,0-1.1,0c-0.4,0.5-1,1-1.3,1.7c-0.6,1.2-1.7,1.7-2.8,2.1c-0.4,0.6-0.5,1.2-1,1.7C117.2,164.9,116.7,165.9,116.1,166.7z"
  />
  <path fill-rule="evenodd" clip-rule="evenodd" fill="#546CB2" d="M137.6,166.7c0.5-0.8,1.1-1.5,1.6-2.4c2.2-1,3.7-2.9,5.3-4.6
	c0.3-0.3,0.5-0.7,0.8-1c0.2-0.2,0.5-0.3,0.8-0.5c0-0.3,0-0.6,0-0.9c0.7-1,2.3-0.9,2.3-2.3c0.4,0,0.7,0,0.9-0.1
	c0.2-1.2,1.5-1.8,1.8-3.2c2.4-1.1,4.1-3.4,6.5-5c0.3-0.6,0.6-1.3,1.1-2c0.2-0.3,0.6-0.5,1-0.8c0,3.2,0,6.3,0,9.5
	c-0.9,0.4-1.5,1.1-1.9,1.9c-0.3,0.6-0.7,1-1.4,1.2c0,0,0,0,0.1,0.1c0-0.1-0.1-0.2-0.1-0.3c0,0-0.1,0-0.2-0.1c0,0.1,0,0.1,0.2,0.3
	c0.2,1-0.3,1.6-1.3,1.9c0,0,0,0,0.1,0.1c0-0.1-0.1-0.2-0.1-0.3c0,0-0.1,0-0.2-0.1c0,0.1,0,0.1,0.2,0.3c0.1,0.3,0,0.6-0.1,0.9
	c-0.4,0-0.8-0.1-1.4-0.1c-0.2,0.3-0.4,0.6-0.5,0.8c-0.4,0-0.6,0-0.8,0c-0.4,0.5-0.8,1-1.3,1.4c-0.4,0.3-0.8,0.6-1.1,1.1
	c-0.7,1.1-1.5,2.2-2.3,3.3c-0.2,0.2-0.1,0.6-0.2,0.9C144.4,166.7,141,166.7,137.6,166.7z"/>
  <path fill-rule="evenodd" clip-rule="evenodd" fill="#5377BA" d="M159.8,114.2c-0.3-0.3-0.6-0.6-1-0.9c-0.5,0.9-1.2,1.6-1.7,2.4
	c-0.7,1.1-1.6,2.3-3,2.4c-0.4,0.6-0.7,1.2-1,1.7c-0.1-0.1-0.3-0.2-0.4-0.4c0,0.4,0,0.8,0,1.2c-0.1,0.2-0.3,0.4-0.4,0.4
	c-0.8,0.3-1.5,0.6-2.2,0.9c-0.3,0.6-0.7,1-0.9,1.5c-0.4,0.9-1,1.7-1.8,2.1c-2.1,1.1-3.1,3-4.4,4.9c-0.5,0.2-1,0.5-1.6,0.8
	c0-3,0-5.9,0-8.9c0.6-0.5,1.1-0.9,1.7-1.4c0.9-0.7,1.7-1.5,2.7-2.5c0.2-0.4,0.6-1,0.9-1.6c0.6-0.2,1-0.4,1.5-0.5
	c1.8-2.4,1.8-2.4,3.7-3.2c0.1-0.2,0.3-0.5,0.5-0.8c0.6-1.3,1.4-2.2,2.7-2.9c0.8-0.4,1.3-1.3,2-2c0.1,0,0.3,0,0.6,0
	c0.2-0.4,0.4-0.9,0.7-1.4c0.5,0,1-0.1,1.5-0.1C159.8,108.7,159.8,111.4,159.8,114.2z"/>
  <path fill-rule="evenodd" clip-rule="evenodd" fill="#4E8FBB" d="M44,166.7c-2.3,0-4.6,0-7,0c0.5-0.7,1.4-1.2,1.6-2.4
	c0.7-0.2,1.4-0.3,1.8-1c0.3-0.5,0.8-0.9,1.2-1.4c0.7-0.9,1.5-1.8,2.2-2.7c0.6-0.3,1.2-0.7,2-1.1c1.2-1.9,3.5-3.1,4.7-5.2
	c0.2-0.3,0.6-0.5,1-0.7c0.9-0.5,1.5-1.1,2-2c0.3-0.6,0.8-1.2,1.2-1.8c0.2-0.2,0.4-0.3,0.6-0.5c0.8,0,1.7-0.1,2.5-0.1
	c13.5,0,27,0,40.5,0c0.8,0,1.7,0.1,2.5,0.1c-0.5,0.7-1.2,0.4-1.8,0.5c-1.3,0-2.5,0-3.8,0c-1.3,0-2.5,0-3.8,0c-1.7,0-3.4,0-5.1,0
	c-2.1,0-4.2,0-6.3,0c-1.7,0-3.4,0-5.1,0c-1.7,0-3.4,0-5.1,0c-0.8,0-1.7,0-2.5,0c-0.9,0-1.9,0-2.8,0c-1,0-2.1-0.2-3.1,0.2
	c-0.5,0.9-1.1,1.8-1.6,2.7c-0.8,0.2-1.5,0.3-2.1,0.5c-0.3,0.5-0.5,1-0.7,1.4c-0.5,0.2-1,0.4-1.4,0.6c-0.8,0.7-1,1.9-2.1,2.3
	c-0.5,1-1.7,1-2.3,1.7c0.1,0.6,0.1,1,0.2,1.4c-1.7,1.5-3.3,3-5.3,4.2C45.4,164.4,44.7,165.5,44,166.7z"/>
  <path fill-rule="evenodd" clip-rule="evenodd" fill="#47B0B8" d="M106,18.2c3.6-0.2,7.2-0.2,10.8,0c0,0.2,0,0.3,0,0.5
	c-1.1,0-2.3,0-3.3,0.1c-0.9,0.6-1.5,1.1-1.8,2c-0.1,0.4-0.2,0.8-0.7,1c-0.5,0.1-1,0.2-1.5,0.3c-1.2,1.8-2.4,3.5-3.6,5.2
	c-0.4,0-0.7,0-0.9,0c-0.8,1.3-1.7,2.7-2.5,3.9c-0.3,0.1-0.6,0.2-0.7,0.3c-2.3,1.3-3.8,3.5-5.8,4.9c-0.1,0.4-0.1,0.6-0.1,0.8
	c-2.3,0-4.6,0-7,0c0-0.3,0.1-0.6,0.1-1c0.8-0.8,1.7-1.7,2.6-2.6c1.5-1.7,3-3.5,5-4.5c0.5-0.7,1-1.4,1.5-2.1c0.6-0.7,1.1-1.5,1.6-2.2
	c0.5-0.1,0.9-0.2,1.2-0.3c0.6-0.7,1.2-1.5,1.9-2.1c0.8-0.8,1.8-1.4,2.6-2.2c0.2-0.1,0.2-0.3,0.4-0.6C105.9,19,106,18.6,106,18.2z"/>
  <path fill-rule="evenodd" clip-rule="evenodd" fill="#47B3B7" d="M11.7,113.5c0-2.3,0-4.6,0-7c0.5-0.5,1.1-0.9,1.6-1.4
	c2-1.9,4.1-3.6,5.6-5.9c0.3-0.4,0.6-0.9,1.1-1.1c2.3-1.3,3.8-3.3,5.6-5.1c0.5-0.5,0.8-1.2,1.3-1.9c1.4-0.4,2-1.9,3.1-3
	c0-1.4,0-2.9,0-4.3c0-0.5,0-0.9,0.5-1.2c0,1,0.1,2.1,0.1,3.1c0,3.4-0.1,6.8-0.1,10.2c-0.6,0.4-1.3,0.7-1.8,1c-0.4,0.6-0.7,1.1-1,1.6
	c-1.1,0.7-2.1,1.3-2.8,2.5c-0.5,0.9-1.3,1.7-2.2,2.2c-0.9,0.6-1.7,1.3-2.4,2c-2.7,2.6-5.4,5.2-7.6,8.2
	C12.3,113.5,12,113.5,11.7,113.5z"/>
  <path fill-rule="evenodd" clip-rule="evenodd" fill="#47B0B7" d="M11.7,113.5c0.3,0,0.6-0.1,1.1-0.2c2.2-2.9,4.9-5.5,7.6-8.2
	c0.7-0.7,1.5-1.4,2.4-2c0.9-0.5,1.7-1.3,2.2-2.2c0.7-1.2,1.7-1.8,2.8-2.5c0.3-0.5,0.6-1,1-1.6c0.6-0.3,1.2-0.7,1.8-1
	c0.2,2.7,0.2,5.4,0,8.1c-0.3-0.1-0.6-0.2-0.8-0.3c-0.8,0.3-0.8,1.2-1.4,1.6c-1.7,1.4-3.3,2.8-5,4.2c-0.1,0.4-0.3,0.8-0.4,1.1
	c-0.5,0.2-1,0.5-1.4,0.7c-0.2,0.4-0.3,0.8-0.5,1.2c-0.6,0.6-1.3,1.1-1.8,1.8c-0.6,0.8-1.5,1.1-2.2,1.6c-0.1,0.3-0.2,0.6-0.3,0.9
	c0,0.1-0.1,0.2-0.1,0.1c-1.3,1-2.4,2-3.4,2.8c-0.2,0.5-0.3,0.9-0.5,1.2c-0.4,0.1-0.7,0.1-1,0.2C11.7,118.6,11.7,116.1,11.7,113.5z"
  />
  <path fill-rule="evenodd" clip-rule="evenodd" fill="#46BAB6" d="M59.8,37c0-0.1,0-0.2,0-0.3c0-0.8,0.8-0.9,1.1-1.4
	c0.3-0.5,0.5-1.1,0.9-1.7c0.4-0.5,0.8-1,1.2-1.4c0.2-0.2,0.5-0.4,0.7-0.6c0.4,0,0.7,0,1.2,0c0.8-1.1,1.6-2.3,2.4-3.6
	c0.8-0.5,1.6-1.1,2.3-2c0.9-1.2,2.1-2.3,3.2-3.4c0.1-0.1,0.3-0.2,0.5-0.4c0-0.4,0-0.8-0.1-1.3c0.3,0,0.6,0,0.9-0.1
	c0.7-0.5,1.4-1,1.7-2c-0.5-0.4-1.1-0.2-1.6-0.3c0-0.1,0-0.3,0-0.4c0.4,0,0.8-0.1,1.2-0.1c5.1,0,10.2,0,15.2,0c0.4,0,0.8,0.1,1.2,0.1
	c0,0.1,0,0.3,0,0.4c-1.5,0-3,0-4.4,0c-1.6,0-3.1-0.2-4.6,0.1c-1,2.2-1,2.2-3.1,3.5c-0.7,1-1.4,2.1-2.1,3c-0.4,0-0.6,0-0.5,0
	c-1.1,1-2,1.8-2.9,2.6c-0.2,0.5-0.3,0.8-0.4,1.2c-0.7,0.3-1.2,0.5-1.8,0.8c-0.3,0.6-0.5,1.2-0.8,1.9c-0.7,0.3-1.2,0.9-1.7,1.7
	c-0.5,0.8-1.3,1.3-2,2c-0.2-0.1-0.5-0.3-0.8-0.5c-0.2,0.4-0.4,0.9-0.4,1c-0.5,0.5-0.8,0.8-1.1,1.1C63.6,37,61.7,37,59.8,37z"/>
  <path fill-rule="evenodd" clip-rule="evenodd" fill="#5372B6" d="M141.4,138.8c0.3,0.3,0.6,0.5,0.9,0.8c0.6-0.1,0.3-0.7,0.5-0.9
	c0.7-1,1.8-1,2.8-1.5c0.2-0.3,0.4-0.7,0.6-1c0.3-0.4,0.4-1,0.9-1.2c0.5-0.2,0.1-0.8,0.5-1.2c0.4-0.2,0.9-0.5,1.6-0.9
	c0.6-0.8,1.3-1.8,2-2.7c0.4-0.2,0.9-0.3,1.3-0.5c1.1-1.3,2.2-2.6,3.2-3.8c0.4,0,0.7-0.1,1.2-0.1c0.3-1,1.1-1.8,1.9-2.5
	c0.2-0.2,0.6-0.2,0.9-0.2c0,2.3,0,4.6,0,7c-0.7,0.3-0.5,1.1-0.8,1.6c-0.3,0-0.6,0-0.9,0c-1.3,1.4-2.6,2.7-3.9,4.1
	c-0.8,0.8-1.6,1.6-2.5,2.3c-0.9,0.8-1.7,1.8-2.5,2.8c-0.2,0.2-0.2,0.6-0.3,0.9c-0.3,0-0.6,0.1-1.1,0.1c-1.5,2.1-3.6,3.7-5.6,5.6
	c-0.2,0.2-0.6,0.3-0.8,0.4C141.3,144.7,141.4,141.8,141.4,138.8z"/>
  <path fill-rule="evenodd" clip-rule="evenodd" fill="#5372B6" d="M116.1,166.7c0.6-0.8,1.1-1.8,1.9-2.5c0.5-0.5,0.6-1.1,1-1.7
	c1.1-0.4,2.2-0.8,2.8-2.1c0.3-0.6,0.9-1.2,1.3-1.7c0.4,0,0.8,0,1.1,0c0.7-1.4,1.3-2.9,2.9-3.6c0.7-0.9,1.4-1.8,2.1-2.8
	c0.3-0.1,0.7-0.3,1.2-0.4c0.2-0.4,0.4-0.9,0.6-1.3c0.6-0.3,1.1-0.5,1.7-0.8c0.1,0,0.1-0.1,0.4-0.4c0-0.2,0.1-0.6,0.2-1
	c2.5,0,5.1,0,7.6,0c-0.9,1.2-1.8,2.6-3.1,3.5c-0.3,0.2-0.5,0.7-0.8,1c-0.4,0.5-0.7,1.2-1.2,1.4c-2.1,1-3,3.2-4.7,4.5
	c-0.4,0.3-0.4,0.9-0.7,1.4c-0.7,0.4-1.4,0.8-2.2,1.2c-0.6,1-1.3,2-2.1,3.1c-0.3,0-0.6,0-0.9,0c-0.8,0.7-1.6,1.3-2.1,2.3
	C120.7,166.7,118.4,166.7,116.1,166.7z"/>
  <path fill-rule="evenodd" clip-rule="evenodd" fill="#46BAB6" d="M30,66.1c0,0.7,0,1.4,0,2.1c0,0.4,0.1,0.8,0.5,1
	c0.2,2.8,0.2,5.5,0,8.3c-0.2,0-0.3,0-0.5,0c-0.1-1.1,0.2-2.3-0.2-3.4c-0.3,0-0.5-0.1-0.7-0.1c-0.5,0.5-1,1-1.4,1.4
	c-0.3,0.5-0.1,1-0.7,1.1c-0.2,0-0.4,0-0.6,0.1c-0.6,0.8-1.2,1.7-1.8,2.5c-0.9,0.6-1.7,1.2-2.5,1.8c-0.7,0.9-1.3,1.9-1.9,2.7
	c-1.1,0.7-2,1.4-3,2c-0.8,1.3-1.7,2.6-3.1,3.3c-0.6,0.3-1,1-1.5,1.5c-0.3-0.1-0.6-0.2-0.9-0.3c0-1.7,0-3.4,0-5.1
	c0.7-0.3,0.6-1.1,0.9-1.8c0.3-0.3,0.8-0.8,1.1-1.3c0.4-0.5,0.7-1.1,1-1.6c0.3-0.1,0.6-0.1,1-0.2c1.9-1.1,2.9-3.2,4.5-5.1
	c1.3-0.9,2.7-1.9,4.3-2.9c0.5-1.3,1.4-2.5,2.5-3.4C28.1,67.9,28.9,66.8,30,66.1z"/>
  <path fill-rule="evenodd" clip-rule="evenodd" fill="#47B3B7" d="M106,18.2c0,0.4,0,0.8-0.1,1.2c-0.2,0.3-0.2,0.5-0.4,0.6
	c-0.9,0.7-1.8,1.4-2.6,2.2c-0.7,0.6-1.3,1.4-1.9,2.1c-0.4,0.1-0.8,0.2-1.2,0.3c-0.5,0.7-1.1,1.5-1.6,2.2c-0.5,0.7-1,1.3-1.5,2.1
	c-2,1.1-3.5,2.9-5,4.5c-0.8,0.9-1.7,1.8-2.6,2.6c-0.1,0.4-0.1,0.7-0.1,1c-2.3,0-4.6,0-7,0c1.5-2.4,3.6-4.3,5.5-6.2
	c0.2-0.4,0.3-0.8,0.3-0.9c1-0.9,1.8-1.6,2.6-2.3c1.1-1,2-2.2,3.1-3.1c1.4-1.1,2.4-2.6,3.7-3.8c0.5-0.5,0.9-1.1,0.7-1.9
	c-0.6-0.4-1.2-0.1-1.8-0.2c-0.3-0.1-0.5-0.3-0.8-0.4C98.9,17.9,102.4,17.9,106,18.2z"/>
  <path fill-rule="evenodd" clip-rule="evenodd" fill="#4B99BA" d="M141.4,42.7c0-1.7,0-3.3,0-5c0-0.4-0.3-0.6-0.7-0.7l0,0
	c0.6-0.6,1.4-1,1.8-1.7c0.7-1.3,1.8-2,2.9-2.7c0.7-1.3,1.5-2.4,2.7-3.1c0.8-0.4,1.2-1.2,1.8-1.7c0.7-0.6,0.9-1.4,1.4-2
	c0.5-0.2,1-0.4,1.3-0.5c1.3-1.6,2.6-3.2,3.8-4.6c0.5-0.2,0.9-0.3,1.3-0.5c0-0.6,0.1-1.1,0.1-1.6c0.6,0,1.2-0.1,1.7,0.4
	c0.1,0.3,0.1,0.6,0.2,0.8c0,1.9,0,3.8,0,5.7c-1.1,0.8-2.2,1.5-3.3,2.4c-0.6,0.5-1.2,1.2-1.7,1.8c-0.6,0.8-1.2,1.7-1.5,2.2
	c-1.8,1.5-3.3,2.6-4.7,3.7c-0.2,0.6-0.4,1.1-0.6,1.6c-1.5,0.3-2.6,1.2-3.1,2.7c-0.1,0.3-0.3,0.6-0.5,0.8c-0.1,0.2-0.3,0.3-0.5,0.4
	c-0.5,0.1-1,0.2-1.5,0.3C142.1,42,141.8,42.3,141.4,42.7z"/>
  <path fill-rule="evenodd" clip-rule="evenodd" fill="#fff" d="M351.9,84.4c1.2,0,2.4-0.1,3.5-0.1c2.3,0.1,3.9,1.3,4.9,3.4
	c1,2.2,0.8,4.3-0.6,6.2c-2.9,3.9-9.6,3-11.4-1.1c-1.1-2.4-0.7-5.2,1.3-6.9C350.3,85.4,351.1,84.9,351.9,84.4z"/>
  <path fill-rule="evenodd" clip-rule="evenodd" fill="#43B7B7" d="M30.1,77.5c0.2,0,0.3,0,0.5,0c0.2,1.7,0.2,3.4,0,5.1
	c-0.5,0.3-0.5,0.8-0.5,1.2c-0.7,0.3-1.1,0.8-1.3,1.6c-0.1,0.3-0.3,0.5-0.4,0.7c-0.5,0.1-0.9,0.3-1.3,0.4c-0.4,0.5-0.8,1-1.2,1.5
	c-0.4,0.1-0.8,0.3-1.1,0.4c-1,1.5-2.4,2.7-3.6,4c-0.8,0.8-1.7,1.6-2.1,2.7c-0.1,0.2-0.3,0.3-0.5,0.5c-0.3,0-0.7,0-1.1,0
	c-0.6,0.8-1.3,1.5-1.6,2.4c-0.4,1-1.6,1-1.9,2c0,0.2,0,0.4,0,0.7c-0.6,0.6-1.4,1-2.2,0.9c0-2.1,0-4.2,0-6.3c0.5-0.4,1-0.8,1.5-1.1
	c0.5-0.4,1-0.8,1.5-1.2c1.2-2,2.8-3.8,4.3-5.6c0.2,0,0.4,0,0.8,0.1c0.3-0.3,0.8-0.6,1-1c1.1-2.1,2.9-3.5,4.6-4.9
	c0.2-0.5,0.3-0.8,0.4-1.1c0.7-0.5,1.6-0.1,2.1-0.9c0.1-0.6,0.3-1.2,0.4-1.8C29,77.6,29.5,77.5,30.1,77.5z"/>
  <path fill-rule="evenodd" clip-rule="evenodd" fill="#4C96BA" d="M141.4,42.7c0.4-0.4,0.7-0.7,1.2-1.1c0.4-0.1,0.9-0.2,1.5-0.3
	c0.2-0.1,0.3-0.3,0.5-0.4c0.2-0.3,0.4-0.5,0.5-0.8c0.6-1.5,1.6-2.4,3.1-2.7c0.2-0.6,0.4-1.1,0.6-1.6c1.4-1.1,2.8-2.3,4.7-3.7
	c0.3-0.4,0.8-1.3,1.5-2.2c0.5-0.7,1.1-1.3,1.7-1.8c1-0.9,2.2-1.6,3.3-2.4c0,2.3,0,4.6,0,7c-0.5,0-1,0.1-1.5,0.1
	c-0.6,1-1.2,1.8-1.8,2.7c-0.5,0.9-1.7,1.2-2.2,2.2c-0.2,0.4-0.7,0.8-1.1,1.1c-0.8,0.4-1.3,1-1.8,1.7c-0.5,0.7-1.3,1-1.9,1.6
	c-0.7,0.8-1.2,1.7-1.9,2.5c-0.8,0.8-1.8,1.4-2.7,2.1c-1.2,0.9-1.7,2.3-2.5,3.6c-0.4,0.1-0.7,0.1-1,0.2
	C141.4,47.7,141.4,45.2,141.4,42.7z"/>
  <path fill-rule="evenodd" clip-rule="evenodd" fill="#4C96BA" d="M26.3,166.7c-2.3,0-4.6,0-7,0c0.3-0.4,0.6-0.8,1-1.2
	c1.3-1.2,2.8-2.2,3.9-3.6c0.9-1.1,1.9-2.2,2.9-3.2c0.5-0.6,1.3-1.1,1.7-1.7c0.9-1.2,2-2.1,3.4-2.9c0.9-2.2,3.3-3,4.7-4.8
	c0-0.3,0.1-0.6,0.1-0.9c2.1,0,4.2,0,6.3,0c0,0.3-0.1,0.6-0.1,1c-0.7,0.7-1.4,1.5-2.1,2.2c-2.1,2.1-4.2,4.1-6.2,6.3
	c-1.5,1.7-3,3.4-4.8,4.8c-0.7,0.6-1.3,1.3-1.9,2.1C27.6,165.5,26.5,165.7,26.3,166.7z"/>
  <path fill-rule="evenodd" clip-rule="evenodd" fill="#43B7B7" d="M87.6,18.6c1.5,0,3,0,4.4,0c0.3,0,0.6,0,0.9,0
	c0.5,0,0.8,0.3,0.8,0.8c-0.4,0.9-1.1,1.6-1.9,2c-1.8,0.9-2.9,2.4-3.7,4.1c-0.1,0.2-0.3,0.3-0.4,0.5c-0.3,0.1-0.6,0.2-1,0.3
	c-1,1.6-2.5,3-4,4.1c-0.1,0.4-0.2,0.7-0.3,1c-0.4,0.1-0.8,0.2-1.3,0.3c-0.7,2.2-2.7,3.3-4.6,4.3c-0.1,0.4-0.1,0.7-0.2,1
	c-2.1,0-4.2,0-6.3,0c0.5-1.1,1.4-1.8,2.3-2.5c0.3-0.2,0.8-0.4,1-0.7c1.1-1.8,3.1-2.7,4.2-4.6c0.4-0.8,1.2-1.6,2-2
	c1.7-0.8,2.7-2.3,3.7-3.7c1-1.3,2.5-2.3,3.1-3.9c0-0.1,0.2-0.1,0.3-0.2c0.3,0,0.6,0,0.9,0C87.5,19.2,87.6,18.9,87.6,18.6z"/>
  <path fill-rule="evenodd" clip-rule="evenodd" fill="#49A1B9" d="M11.7,156.6c0-2.5,0-5.1,0-7.6c0.3,0,0.6-0.1,1-0.1
	c1.3-1.4,3-2.6,4-4.3c1.1-0.9,1.7-2.4,2.9-3.1c1.3-0.8,1.7-2.4,3-2.9c0.3,0,0.5,0,0.7,0.1c0.5-0.6,1.1-1.3,1.6-1.9
	c0.4-0.5,0.9-0.9,1.2-1.4c1-1.6,2.3-2.9,3.9-4c0,2.3,0,4.6,0,6.9c-0.3,0.1-0.6,0.1-0.7,0.1c-2.6,3-5.3,5.6-8,8
	c-0.2,0.5-0.4,0.8-0.5,1.1c-0.5,0.2-0.9,0.3-1,0.4c-0.9,0.9-1.4,1.9-2.3,2.4c-1.4,0.8-2.2,2.1-3.4,3.2c-0.8,0.7-1.5,1.5-1.9,2.5
	C12.2,156.2,11.9,156.4,11.7,156.6z"/>
  <path fill-rule="evenodd" clip-rule="evenodd" fill="#48ABB9" d="M30.5,106c0,2.9,0.1,5.9,0.1,8.8c0,1.9-0.1,3.8-0.1,5.7
	c-0.2-0.2-0.3-0.4-0.5-0.6c0-1.9,0-3.8-0.1-5.7c0-0.1-0.1-0.1-0.2-0.2c-1,1-1.9,2.1-3,3.1c-1.2,1-1.9,2.4-3.2,3.4
	c-1.2,0.8-2,2.1-3.3,2.9c-0.6,0.9-1.2,1.7-1.5,2.2c-2.3,2.2-4.6,3.6-6.2,5.9c-0.2,0.2-0.5,0.3-0.8,0.5c0-2.3,0-4.6,0-7
	c0.5,0,1-0.1,1.4-0.1c1.2-1.6,2.4-3.1,4.1-4c0.4-0.2,0.7-0.5,0.9-0.8c0.5-0.6,1-1.3,1.6-1.9c0.6-0.6,1.3-1,1.9-1.6
	c0.6-0.6,1.2-1.2,1.6-1.9c0.3-0.5,0.7-1.1,1.2-1.4c1.9-1,3.1-2.8,4.3-3.8C29.8,108.2,29.8,106.9,30.5,106z"/>
  <path fill-rule="evenodd" clip-rule="evenodd" fill="#4F83BB" d="M80,148.4c2.1,0,4.2,0,6.3,0c-0.5,1.1-1.4,1.8-2.3,2.6
	c-2.1,1.9-3.6,4.3-5.2,6.4c-1.1,0.9-2.1,1.6-3.1,2.3c-0.5,0.2-1,0.3-1.5,0.5c-1.1,2.4-3.4,3.7-4.8,5.6c0.2,0.4,0.3,0.7,0.4,1
	c-2.3,0-4.6,0-7,0c0-0.3,0.1-0.6,0.1-1c0.3-0.3,0.5-0.6,0.8-0.9c1.4-1.2,2.8-2.5,4-3.9c0.3-0.4,0.7-0.8,1.2-1
	c0.8-0.4,1.2-1.1,1.8-1.7c0.7-0.6,0.9-1.3,1.4-2.1c0.6-0.4,1.2-0.7,2-1.2c0.3-0.7,0.9-1.2,1.6-1.7c0.6-0.5,1-1.3,1.6-1.9
	c0.6-0.6,1.3-1.1,1.9-1.6C79.6,149.3,79.8,148.8,80,148.4z"/>
  <path fill-rule="evenodd" clip-rule="evenodd" fill="#49A0B9" d="M131.3,37c-2.3,0-4.6,0-7,0c0.8-0.7,1.6-1.3,2.3-2
	c0.8-0.7,1.5-1.5,2.2-2.2c0.8-0.7,1.6-1.4,2.3-2c0.1-0.5,0.3-1,0.7-1.3c1.1-0.9,2.2-1.9,3.2-2.9c1-0.9,2-1.9,2.8-2.9
	c0.9-1.2,2.3-1.8,3.1-3c0.2-0.3,0.5-0.6,0.8-0.9c0.1-0.4,0.1-0.7,0.1-1c1.1,0,2.1,0,3.2,0c1.1,0,2.1,0,3.2,0c0,0.3-0.1,0.6-0.2,1.1
	c-0.7,0.6-1.5,1.3-2.2,1.9c-0.2,0.4-0.3,0.8-0.4,1.1c-1.1,0.8-2.2,1.5-3.2,2.2c-0.4,0.8-0.8,1.5-1.3,2.3c-0.8,0.4-1.6,0.9-2.3,1.3
	c-0.8,1.1-1.5,2.2-2.2,3.1c-0.4,0-0.6,0-0.8,0.1c-0.1,0.4-0.3,0.8-0.4,1.2C133.9,34,132.4,35.3,131.3,37z"/>
  <path fill-rule="evenodd" clip-rule="evenodd" fill="#4B9EB9" d="M11.7,156.6c0.2-0.2,0.5-0.4,0.6-0.6c0.4-1,1.1-1.8,1.9-2.5
	c1.1-1,2-2.4,3.4-3.2c0.9-0.5,1.4-1.5,2.3-2.4c0.1-0.1,0.5-0.2,1-0.4c0.1-0.3,0.3-0.7,0.5-1.1c2.8-2.4,5.4-5,8-8
	c0.1,0,0.4-0.1,0.7-0.1l0,0c0,1.9,0,3.8,0,5.7c-0.8,1-1.9,1.6-2.9,2.1c-0.4,0.7-0.8,1.4-1.1,2c-0.5,0.3-1.1,0.6-1.3,1
	c-0.8,1.8-2.5,2.7-3.8,4.1c-0.2,0.2-0.6,0.1-0.8,0.1c-0.2,0.3-0.3,0.6-0.5,0.8c-0.8,1-1.7,1.8-2.4,2.9c-0.6,1-1.7,1.8-2.6,2.6
	c-0.5,0.4-0.9,0.9-1.2,1.4c-0.4,0.6-0.9,1.2-1.6,1.4C11.7,160.4,11.7,158.5,11.7,156.6z"/>
  <path fill-rule="evenodd" clip-rule="evenodd" fill="#4C99BA" d="M37,148.4c0,0.3-0.1,0.6-0.1,0.9c-1.3,1.9-3.8,2.6-4.7,4.8
	c-1.4,0.7-2.5,1.7-3.4,2.9c-0.5,0.7-1.2,1.1-1.7,1.7c-1,1.1-1.9,2.1-2.9,3.2c-1.1,1.3-2.6,2.4-3.9,3.6c-0.4,0.3-0.7,0.8-1,1.2
	c-1.7,0-3.4,0-5.1,0c0.5-0.6,1.1-1.2,1.5-2c1.1-1.9,2.6-3.2,4.2-4.5c1-0.9,2.3-1.5,2.7-2.9c0.8-0.7,1.6-1.3,2.5-2.1
	c1.9-2.8,4.4-5.1,7.4-6.9C34.1,148.4,35.6,148.4,37,148.4z"/>
  <path fill-rule="evenodd" clip-rule="evenodd" fill="#517DBB" d="M141.4,112.3c0-2.1,0-4.2,0-6.3c0.3,0,0.6-0.1,0.9-0.1
	c1.3-1.1,2.6-2.2,4-3.3c0.1-0.4,0.3-0.9,0.5-1.6c0.6-0.5,1.2-1.2,1.8-1.7c0.5,0,0.8,0,1.1,0c1-1.4,1.9-2.7,2.9-4.1
	c1-1.3,2.3-2.1,3.4-2.6c1.1-1.2,1.9-2.1,2.7-3c0.5-0.1,0.8-0.1,1.1-0.2c0,1.7,0,3.4,0,5.1c-1.6,0.9-2.6,2.4-3.6,3.7
	c-0.4,0.1-0.7,0.2-1.1,0.3c-0.2,0.4-0.4,0.9-0.6,1.4c-2.4,1.4-4.1,3.7-6.2,5.5c-0.7,0.6-1.2,1.5-1.8,2.1c-0.8,0.8-1.7,1.4-2.4,2.4
	C143.3,110.9,142.3,111.5,141.4,112.3z"/>
  <path fill-rule="evenodd" clip-rule="evenodd" fill="#4E8CBB" d="M44,166.7c0.7-1.2,1.4-2.3,2-3.4c2-1.1,3.6-2.6,5.3-4.2
	c-0.1-0.4-0.1-0.8-0.2-1.4c0.6-0.6,1.8-0.7,2.3-1.7c1.1-0.4,1.3-1.6,2.1-2.3c0.5-0.2,0.9-0.4,1.4-0.6c0.2-0.4,0.4-0.9,0.7-1.4
	c0.7-0.2,1.4-0.3,2.1-0.5c0.5-0.9,1.1-1.8,1.6-2.7c1.1-0.4,2.1-0.2,3.1-0.2c0.9,0,1.9,0,2.8,0c-0.3,0.4-0.6,0.9-1,1.1
	c-0.7,0.5-1.5,0.8-2.1,1.1c-0.6,0.8-1,1.5-1.6,2.2c-1.1,1.2-2.3,2.4-3.4,3.7c-0.6,0.7-1.1,1.5-2.1,1.8c-1.1,0.3-1.5,1.4-2.3,2
	c-0.1,0.3-0.2,0.6-0.3,0.9c-0.6,0.6-1.3,0.9-1.8,1.7c-0.5,0.9-1.3,1.6-1.8,2.2c-0.7,0.3-1.2,0.4-1.7,0.6c-0.1,0.4-0.1,0.7-0.2,1
	C47.3,166.7,45.7,166.7,44,166.7z"/>
  <path fill-rule="evenodd" clip-rule="evenodd" fill="#4A9EBA" d="M131.3,37c1.1-1.7,2.6-3,4.2-4.2c0.1-0.4,0.3-0.8,0.4-1.2
	c0.2,0,0.4,0,0.8-0.1c0.6-0.9,1.4-1.9,2.2-3.1c0.7-0.4,1.5-0.8,2.3-1.3c0.4-0.8,0.8-1.5,1.3-2.3c1-0.7,2-1.4,3.2-2.2
	c0.1-0.3,0.2-0.7,0.4-1.1c0.7-0.6,1.5-1.3,2.2-1.9c0.1-0.5,0.1-0.8,0.2-1.1c1.7,0,3.4,0,5.1,0c0.2,0,0.4,0,0.6,0
	c-0.4,0.7-0.8,1.5-1.2,2.1c-0.7,0.3-1.3,0.5-1.8,0.7c-0.4,0.8-0.8,1.5-1.3,2.3c-1.8,1.7-3.3,3.7-5.5,4.9c-0.5,1-1,1.9-1.6,2.8
	c-0.6,0.2-1.2,0.5-1.5,0.6c-1,1-1.7,1.9-2.5,2.7c-0.6,0.7-1.5,1.2-1.8,2.1C135.1,37,133.2,37,131.3,37z"/>
  <path fill-rule="evenodd" clip-rule="evenodd" fill="#5477B9" d="M123.7,148.4c0,0.3-0.1,0.6-0.1,0.9c-0.5,0.7-1.1,1.3-1.9,1.7
	c-0.6,0.4-1.2,0.9-1.6,1.5c-0.8,1.5-1.9,2.7-3.2,3.8c-0.2,0.2-0.4,0.5-0.5,0.8c-0.4,0.2-0.8,0.3-1.2,0.5c-0.6,0.8-1.2,1.6-1.8,2.5
	c-0.3,0-0.5,0.1-0.9,0.1c-0.1,0.4-0.3,0.8-0.4,1.1c-1.3,1.1-2.6,2.2-4.1,3.5c-0.4,0.5-0.9,1.3-1.4,2.1c-1.9,0-3.8,0-5.7,0
	c0.5-0.8,1.1-1.5,1.6-2.3c2.5-1.8,4.8-3.7,6.3-6.3c1.2-0.1,1.8-1.2,2.6-1.7c0.6-0.4,1.1-1,1.5-1.6c0.7-1.3,1.9-2.2,3.1-3
	c0.8-1.3,1.7-2.4,2.7-3.4C120.3,148.4,122,148.4,123.7,148.4z"/>
  <path fill-rule="evenodd" clip-rule="evenodd" fill="#527ABA" d="M159.8,105.9c-0.5,0-1,0.1-1.5,0.1c-0.3,0.6-0.5,1-0.7,1.4
	c-0.2,0-0.5,0-0.6,0c-0.7,0.7-1.2,1.6-2,2c-1.3,0.7-2.1,1.7-2.7,2.9c-0.1,0.3-0.3,0.5-0.5,0.8c-1.9,0.8-1.9,0.8-3.7,3.2
	c-0.5,0.2-0.9,0.3-1.5,0.5c-0.3,0.6-0.7,1.2-0.9,1.6c-1,0.9-1.9,1.7-2.7,2.5c-0.5,0.5-1.1,0.9-1.7,1.4c0-1.9,0-3.8,0-5.7
	c0.3,0.1,0.6,0.2,0.9,0.3c0.7-0.8,1.3-1.7,2-2.5c0.3,0,0.5,0,0.8,0.1c0.9-1.3,1.2-3,2.6-4.2c0.6-0.3,1.4-0.6,2.2-0.9
	c0.4-0.7,0.8-1.4,1.2-2c0.5-0.2,0.9-0.3,1-0.4c0.9-0.9,1.7-1.6,2.4-2.3c0.1-0.3,0.2-0.6,0.3-0.9c0.4-0.1,0.8-0.1,1.3-0.2
	c0.4-1,1.3-1.5,2-2.1c0.3-0.5-0.1-1,0.6-1.3c0.3,0,0.7,0,1.1,0C159.8,102.1,159.8,104,159.8,105.9z"/>
  <path fill-rule="evenodd" clip-rule="evenodd" fill="#5081BB" d="M69.9,166.7c-0.1-0.3-0.2-0.6-0.4-1c1.4-2,3.7-3.3,4.8-5.6
	c0.5-0.2,1-0.3,1.5-0.5c0.9-0.7,1.9-1.5,3.1-2.3c1.6-2.1,3.1-4.5,5.2-6.4c0.8-0.8,1.8-1.5,2.3-2.6c1.7,0,3.4,0,5.1,0
	c0,0.3-0.1,0.6-0.2,1.1c-2.2,2-4.4,4.2-6.8,6.4c-0.3,0.1-0.7,0.2-0.8,0.3c-0.8,1.3-1.4,2.3-2,3.3c-1,0.7-1.8,1.3-2.2,1.6
	c-1.4,1.5-2.5,2.7-3.7,4c-0.2,0.4-0.5,1.1-0.9,1.7C73.3,166.7,71.6,166.7,69.9,166.7z"/>
  <path fill-rule="evenodd" clip-rule="evenodd" fill="#47A8B9" d="M11.7,131.9c0.3-0.2,0.6-0.3,0.8-0.5c1.6-2.3,3.9-3.7,6.2-5.9
	c0.3-0.5,0.9-1.3,1.5-2.2c1.3-0.7,2.1-2,3.3-2.9c1.3-0.9,2.1-2.3,3.2-3.4c1.1-1,2-2.1,3-3.1c0.1,0.1,0.2,0.1,0.2,0.2
	c0,1.9,0,3.8,0.1,5.7c-0.5,0-1,0.1-1.5,0.1c-0.3,0.7-0.5,1.3-0.8,1.8c-0.4,0.6-0.9,1.2-1.3,1.8c-0.7,0.4-1.3,0.7-1.9,1
	c-0.8,0.6-1.1,1.5-2,2c-0.9,0.5-1.6,1.3-2.1,2.3c-0.4,0.8-1.1,1.5-1.6,2.2c-1.7,0.6-1.7,0.6-2.8,2.1c-0.8,0.3-1.5,0.5-2.1,0.7
	c-0.3,0.6-0.4,1.1-0.7,1.5c-0.4,0.6-1,1-1.6,1.5C11.7,135.3,11.7,133.6,11.7,131.9z"/>
  <path fill-rule="evenodd" clip-rule="evenodd" fill="#48A5B9" d="M145.2,18.6c-1.1,0-2.1,0-3.2,0c-1.4,0-2.7,0-4,0
	c-1.4,1.3-2.7,2.5-4.3,3.9c-0.5,0.7-1.1,1.6-1.9,2.7c-1,0.4-1.9,1.2-2.6,2.3c-0.7,1.1-1.7,2.1-2.8,2.9c-1,0.7-1.8,1.4-2.6,2.2
	c-1.4,1.4-2.7,2.9-4,4.3c-1.7,0-3.4,0-5.1,0c0.4-0.7,1.2-1.1,1.6-1.9c0.3-0.6,1-1.1,1.7-1.4c0.6-0.2,1.1-0.6,1.3-0.7
	c1.5-2,2.7-3.7,3.9-5.3c0.5-0.2,1-0.4,1.8-0.7c0.4-0.4,1-1,1.5-1.7c0.4-0.5,0.7-1.1,1.1-1.6c0.3-0.4,0.7-0.8,1.1-1.2
	c0.6-0.6,1.2-1.2,1.8-1.8c0.6-0.6,1.3-1.1,1.8-1.5c0.1-0.3,0.1-0.5,0.1-0.7c0.7,0,1.4,0,2.1,0c0.4,0,0.8-0.1,1-0.5
	c3.2-0.2,6.4-0.2,9.5,0C145.2,18.3,145.2,18.5,145.2,18.6z"/>
  <path fill-rule="evenodd" clip-rule="evenodd" fill="#527BBB" d="M159.8,100.3c-0.4,0-0.8,0-1.1,0c-0.7,0.3-0.3,0.8-0.6,1.3
	c-0.6,0.5-1.5,1-2,2.1c-0.4,0.1-0.8,0.1-1.3,0.2c-0.1,0.3-0.2,0.6-0.3,0.9c-0.7,0.7-1.4,1.4-2.4,2.3c-0.1,0-0.5,0.2-1,0.4
	c-0.4,0.6-0.8,1.3-1.2,2c-0.8,0.3-1.6,0.7-2.2,0.9c-1.4,1.2-1.8,2.9-2.6,4.2c-0.3,0-0.6,0-0.8-0.1c-0.6,0.8-1.3,1.7-2,2.5
	c-0.3-0.1-0.6-0.2-0.9-0.3c0-1.5,0-2.9,0-4.4c0.9-0.7,1.8-1.4,2.5-2.3c0.7-0.9,1.6-1.6,2.4-2.4c0.7-0.7,1.1-1.5,1.8-2.1
	c2.1-1.8,3.9-4.1,6.2-5.5c0.2-0.5,0.5-1,0.6-1.4c0.4-0.1,0.7-0.2,1.1-0.3c1.1-1.3,2-2.8,3.6-3.7C159.8,96.5,159.8,98.4,159.8,100.3z
	"/>
  <path fill-rule="evenodd" clip-rule="evenodd" fill="#48ABB8" d="M116.7,18.6c0-0.2,0-0.3,0-0.5c2.3-0.2,4.6-0.2,6.9,0
	c-0.7,0.6-1.7,0.9-2.1,1.8c-0.4,0.8-1.1,1.2-1.8,1.7c-0.6,0.5-1.3,1.1-2,1.5c-0.8,0.6-1.5,1.4-2.2,2.2c-0.3,0.4-0.5,0.9-0.9,1.3
	c-1.7,1.6-3.1,3.5-5,4.7c-0.4,0.9-1.5,1-2.2,1.5c-0.4,0.8-0.8,1.5-1.2,2.1c-0.8,0.7-1.9,0.8-2.2,1.9c-1.3,0-2.5,0-3.8,0
	c0.3-0.8,0.6-1.5,0.9-2.3c0.7-0.7,1.5-1.2,2-2c0.7-0.9,1.7-1.1,2.5-1.9c0.1-0.3,0.3-0.7,0.4-1.2c0.9-0.6,1.8-1.3,2.8-2
	c0.1-0.6,0.2-1.4,1-1.9c0.3,0,0.7,0,1,0c1.4-0.9,1.6-2.4,2.5-3.6c1.2-0.5,2.3-1.5,3.2-2.7C116.7,19.2,116.7,18.9,116.7,18.6z"/>
  <path fill-rule="evenodd" clip-rule="evenodd" fill="#4F86BA" d="M80,148.4c-0.2,0.5-0.5,0.9-0.7,1.4c-0.7,0.6-1.4,1-1.9,1.6
	c-0.6,0.6-1,1.4-1.6,1.9c-0.7,0.5-1.3,1-1.6,1.7c-0.7,0.4-1.4,0.8-2,1.2c-0.4,0.7-0.7,1.5-1.4,2.1c-0.6,0.5-1,1.3-1.8,1.7
	c-0.5,0.2-0.8,0.6-1.2,1c-1.2,1.4-2.5,2.7-4,3.9c-0.3,0.3-0.6,0.6-0.8,0.9c-0.1,0.4-0.1,0.7-0.1,1c-1.7,0-3.4,0-5.1,0
	c0.2-0.2,0.4-0.4,0.6-0.7c0.1-0.1,0.2-0.3,0.2-0.4c-0.2-0.3-0.3-0.5-0.4-0.7c0.3-0.1,0.5-0.1,0.7-0.2c0.3-0.1,0.6-0.2,0.8-0.3
	c1-1.3,1.9-2.6,2.9-3.8c0.3,0,0.5,0,0.6,0c1.3-1.3,2.7-2.4,3.9-3.7c1-1,2-2,2.5-3.4c0.6-0.4,1.3-0.7,1.6-1c0.2-0.6,0.2-1.1,0.5-1.3
	c0.3-0.2,0.7-0.2,1.1-0.2c0.7-0.9,1.4-1.8,2.1-2.7C76.7,148.4,78.4,148.4,80,148.4z"/>
  <path fill-rule="evenodd" clip-rule="evenodd" fill="#4E88BA" d="M75,148.4c-0.7,0.9-1.4,1.8-2.1,2.7c-0.3,0.1-0.8,0-1.1,0.2
	c-0.3,0.2-0.3,0.7-0.5,1.3c-0.4,0.2-1,0.6-1.6,1c-0.5,1.4-1.5,2.4-2.5,3.4c-1.2,1.2-2.6,2.4-3.9,3.7c-0.1,0-0.3,0-0.6,0
	c-0.9,1.2-1.9,2.5-2.9,3.8c-0.2,0.1-0.5,0.2-0.8,0.3c-0.2,0.1-0.4,0.1-0.7,0.2c0.2,0.2,0.3,0.5,0.4,0.7c-0.1,0.1-0.1,0.3-0.2,0.4
	c-0.2,0.2-0.4,0.4-0.6,0.7c-1.7,0-3.4,0-5.1,0c0.3-0.7,0.7-1.3,1.1-2.1c0.8-0.7,1.9-1.5,2.7-2.4c0.9-0.9,1.6-1.9,2.7-2.3
	c0.6-1,1-1.8,1.5-2.5c0.7-0.1,1.2-0.2,1.8-0.4c0.6-0.9,1.2-1.8,1.8-2.8c0.6-1,1.8-1.4,2.2-1.8c0.9-1.1,1.4-1.8,1.9-2.4
	c0.5-0.6,0.9-1.1,1.4-1.7C71.6,148.4,73.3,148.4,75,148.4z"/>
  <path fill-rule="evenodd" clip-rule="evenodd" fill="#49A4BA" d="M16.6,144.5c-0.9,1.8-2.6,3-3.9,4.3c-0.4,0.1-0.7,0.1-1,0.1
	c0-1.7,0-3.4,0-5.1c1.3,0.1,1.9-1.2,2.9-1.5c0.4-0.8,0.8-1.5,1.3-2.4c0.7-0.7,1.6-1.5,2.2-2.1c0.8-0.3,1.4-0.5,1.9-0.7
	c0.7-1.3,1.3-2.5,2-3.8c1.1-0.6,2.2-1.2,3.3-1.7c0.4-1,1.3-1.4,2-2.1c0.7-0.7,1.2-1.7,1.9-2.6c0.3,0.4,0.6,0.7,0.8,1
	c0,1.1,0,2.2,0,3.2c-1.6,1.1-2.9,2.4-3.9,4c-0.3,0.5-0.8,1-1.2,1.4c-0.5,0.6-1.1,1.3-1.6,1.9c-0.2,0-0.4,0-0.7-0.1
	c-1.3,0.6-1.7,2.1-3,2.9C18.5,142.2,17.9,143.6,16.6,144.5c0,0,0,0,0.1,0.1c0-0.1-0.1-0.2-0.1-0.3c0,0-0.1,0-0.2-0.1
	C16.5,144.3,16.5,144.4,16.6,144.5z"/>
  <path fill-rule="evenodd" clip-rule="evenodd" fill="#45B4B6" d="M76.2,37c0.1-0.3,0.1-0.6,0.2-1c2-1,3.9-2,4.6-4.3
	c0.6-0.1,0.9-0.2,1.3-0.3c0.1-0.3,0.2-0.6,0.3-1c1.5-1.1,3-2.4,4-4.1c0.4-0.1,0.7-0.2,1-0.3c0.1-0.2,0.3-0.3,0.4-0.5
	c0.8-1.7,1.9-3.2,3.7-4.1c0.8-0.4,1.5-1.2,1.9-2c0-0.5-0.3-0.8-0.8-0.8c-0.3,0-0.6,0-0.9,0c0-0.1,0-0.3,0-0.4c1.1,0,2.2,0,3.2,0
	c0.3,0.1,0.5,0.4,0.8,0.4c0.6,0.1,1.3-0.1,1.8,0.2c0.2,0.8-0.2,1.4-0.7,1.9c-1.3,1.2-2.2,2.7-3.7,3.8c-1.2,0.9-2.1,2.1-3.1,3.1
	c-0.7,0.7-1.5,1.4-2.6,2.3c0,0-0.2,0.4-0.3,0.9c-2,1.9-4.1,3.8-5.5,6.2C80,37,78.1,37,76.2,37z"/>
  <path fill-rule="evenodd" clip-rule="evenodd" fill="#49A3B9" d="M119.9,37c1.3-1.4,2.6-2.9,4-4.3c0.8-0.8,1.6-1.6,2.6-2.2
	c1.1-0.7,2-1.8,2.8-2.9c0.7-1.1,1.6-1.9,2.6-2.3c0.8-1.1,1.4-2,1.9-2.7c1.5-1.4,2.8-2.6,4.3-3.9c1.3,0,2.6,0,4,0
	c0,0.3-0.1,0.6-0.1,1c-0.3,0.3-0.6,0.6-0.8,0.9c-0.9,1.2-2.3,1.8-3.1,3c-0.8,1.1-1.8,2-2.8,2.9c-1,1-2.1,2-3.2,2.9
	c-0.5,0.4-0.6,0.8-0.7,1.3c-0.8,0.7-1.6,1.3-2.3,2c-0.8,0.7-1.5,1.5-2.2,2.2c-0.8,0.7-1.5,1.4-2.3,2C122.9,37,121.4,37,119.9,37z"/>
  <path fill-rule="evenodd" clip-rule="evenodd" fill="#527ABA" d="M97.1,166.7c-1.3,0-2.5,0-3.8,0c0-0.3,0-0.7,0.2-0.9
	c0.5-0.8,1-1.6,1.7-2.2c0.6-0.5,0.5-1.1,1-1.8c1.2-0.5,1.9-1.6,2.5-2.4c0.9-0.4,1.4-0.7,1.9-0.9c0.2-0.7,0.4-1.3,0.6-1.9
	c1.6-1.4,2.8-3.2,4.7-4.2c0.1,0,0.2-0.1,0.2-0.2c0.8-1.1,1.7-2.1,2.8-3c0.2-0.2,0.2-0.6,0.2-0.9c1.9,0,3.8,0,5.7,0
	c-0.5,0.5-1.2,0.8-1.6,1.4c-0.5,0.8-1.2,1.1-1.8,1.7c-0.3,0.3-0.7,0.6-0.8,0.9c-0.6,1.4-1.7,2.4-2.9,3.3c-1.2,1-2.3,2-3.5,3
	c-1.7,1.5-3.3,3.1-4.8,4.9C98.7,164.6,98.2,165.9,97.1,166.7z"/>
  <path fill-rule="evenodd" clip-rule="evenodd" fill="#48A8B8" d="M112.3,37c-1.5,0-3,0-4.4,0c0.4-0.5,0.7-1,1.1-1.5
	c1-1.1,2.1-2.1,2.9-2.9c0.7-1.2,1.2-2.1,1.6-2.9c0.7-0.2,1.3-0.4,1.9-0.6c1.1-1.2,2.3-2.4,3-3.9c1.3-0.2,2.3-1.1,3-2.1
	c0.8-1.4,2-2.4,2.7-3.7c0.6-0.3,1.1-0.5,1.6-0.8c1,0,2.1,0,3.1,0c-0.1,1.3-0.9,2.3-1.4,3.3c-0.6,0.5-1.3,0.9-1.7,1.4
	c-0.7,1-1.6,1.6-2.4,2.4c-0.8,0.7-1.5,1.5-2.4,1.9c-0.5,0.3-0.9,0.8-1.3,1.3c-0.5,0.7-1,1.3-1.4,2.1c-0.5,1-1.2,1.7-2.2,2.2
	c-0.5,0.3-1.1,0.7-1.4,1.2C114.1,35.6,113.1,36.2,112.3,37z"/>
  <path fill-rule="evenodd" clip-rule="evenodd" fill="#46ADB8" d="M30.5,106c-0.7,0.9-0.7,2.2-1.8,3.4c-1.2,1.1-2.4,2.8-4.3,3.8
	c-0.5,0.3-1,0.8-1.2,1.4c-0.4,0.8-0.9,1.4-1.6,1.9c-0.6,0.6-1.3,1-1.9,1.6c-0.6,0.6-1,1.3-1.6,1.9c-0.3,0.3-0.6,0.6-0.9,0.8
	c-1.7,0.9-2.9,2.4-4.1,4c-0.4,0-0.9,0.1-1.4,0.1c0-1.3,0-2.5,0-3.8c0.3-0.1,0.6-0.1,1-0.2c0.1-0.4,0.3-0.8,0.5-1.2
	c1-0.8,2.2-1.8,3.4-2.8c-0.1,0.1,0,0,0.1-0.1c0.1-0.3,0.2-0.6,0.3-0.9c0.7-0.5,1.7-0.8,2.2-1.6c0.5-0.7,1.2-1.2,1.8-1.8
	c0.2-0.4,0.3-0.8,0.5-1.2c0.4-0.2,0.9-0.4,1.4-0.7c0.1-0.4,0.3-0.8,0.4-1.1c1.7-1.4,3.3-2.8,5-4.2c0.6-0.4,0.6-1.3,1.4-1.6
	c0.2,0.1,0.5,0.2,0.8,0.3C30.5,104.7,30.5,105.3,30.5,106z"/>
  <path fill-rule="evenodd" clip-rule="evenodd" fill="#45B4B6" d="M11.7,101.5c0.9,0,1.6-0.4,2.2-0.9c0-0.2,0-0.4,0-0.7
	c0.3-1,1.5-1,1.9-2c0.3-0.8,1-1.5,1.6-2.4c0.3,0,0.7,0,1.1,0c0.2-0.2,0.4-0.3,0.5-0.5c0.4-1.1,1.3-1.9,2.1-2.7
	c1.2-1.3,2.6-2.4,3.6-4c0.4-0.1,0.8-0.3,1.1-0.4c0.4-0.5,0.8-1,1.2-1.5c0.4-0.1,0.8-0.2,1.3-0.4c0.1-0.2,0.3-0.5,0.4-0.7
	c0.1-0.8,0.6-1.3,1.3-1.6c0,1.5,0,2.9,0,4.3c-1.2,1.1-1.7,2.6-3.1,3c-0.5,0.7-0.8,1.4-1.3,1.9c-1.8,1.7-3.3,3.8-5.6,5.1
	c-0.4,0.2-0.8,0.7-1.1,1.1c-1.5,2.4-3.6,4.1-5.6,5.9c-0.5,0.5-1.1,1-1.6,1.4C11.7,104.9,11.7,103.2,11.7,101.5z"/>
  <path fill-rule="evenodd" clip-rule="evenodd" fill="#566BB1" d="M156.6,156.6c0.6-0.2,1-0.7,1.3-1.3c0.4-0.9,1-1.5,1.9-1.9
	c0,4.4,0,8.9,0,13.3c-0.8,0-1.6,0.1-2.5,0.1c-3.2,0-6.4-0.1-9.6-0.1c0-0.3,0-0.7,0.2-0.9c0.7-1.1,1.5-2.2,2.3-3.3
	c0.3-0.5,0.7-0.7,1.1-1.1c0.5-0.4,0.8-0.9,1.3-1.4c0.1,0,0.3,0,0.8,0c0.1-0.2,0.3-0.5,0.5-0.8c0.6,0,0.9,0.1,1.4,0.1
	c0.1-0.3,0.1-0.6,0.2-0.9C156.2,158.1,156.6,157.5,156.6,156.6z"/>
  <path fill-rule="evenodd" clip-rule="evenodd" fill="#4AA6B9" d="M30,131.3c0-1.1,0-2.1,0-3.2c-0.2-0.3-0.5-0.6-0.8-1
	c-0.7,0.9-1.2,1.9-1.9,2.6c-0.7,0.7-1.5,1.1-2,2.1c-1.1,0.6-2.2,1.2-3.3,1.7c-0.6,1.2-1.3,2.4-2,3.8c-0.5,0.2-1.1,0.4-1.9,0.7
	c-0.6,0.6-1.5,1.4-2.2,2.1c-0.5,0.8-0.9,1.6-1.3,2.4c-1,0.4-1.6,1.6-2.9,1.5c0-1.3,0-2.5,0-3.8c1-0.5,2-1,2.7-1.4
	c1.8-2.3,3.4-4.4,5.1-6.6c0.8-0.4,2.1-0.4,2.9-1.4c-0.1-1.1,1.1-1.4,1.5-2.3c0.6-1.1,1.6-1.6,2.5-2c1.1-1.7,2.1-3.3,3.6-4.3
	c0.2,0.1,0.4,0.2,0.6,0.3c0,0.7,0.1,1.4,0.1,2.2c0,3.8,0,7.7,0,11.5c0,0.7-0.1,1.4-0.1,2.2c-0.1,0-0.3,0-0.4,0l0,0
	C30,135.9,30,133.6,30,131.3z"/>
  <path fill-rule="evenodd" clip-rule="evenodd" fill="#507EBB" d="M159.8,89.5c-0.3,0-0.6,0.1-1.1,0.2c-0.8,0.8-1.6,1.8-2.7,3
	c-1.1,0.5-2.5,1.2-3.4,2.6c-1,1.3-1.9,2.7-2.9,4.1c-0.3,0-0.6,0-1.1,0c-0.5,0.5-1.2,1.2-1.8,1.7c-0.2,0.7-0.4,1.2-0.5,1.6
	c-1.3,1.1-2.6,2.2-4,3.3c-0.2,0-0.6,0.1-0.9,0.1c0-1.5,0-3,0-4.4c0.6-0.3,1.1-0.6,1.6-0.8c0.8-1.3,1.6-2.3,2.9-3
	c0.9-0.5,1.5-1.1,1.9-2c0.2-0.4,0.7-0.8,1.1-1.1c0.4-0.3,0.8-0.6,1.2-1c0.9-0.9,1.7-1.8,2.6-2.7c1.3-1.4,2.5-2.8,3.3-4.6
	c0.6,0,1.3,0,1.9,0c0.6,0.1,1.2-0.1,1.8,0.6C159.7,87.7,159.7,88.6,159.8,89.5z"/>
  <path fill-rule="evenodd" clip-rule="evenodd" fill="#517DBB" d="M114.8,148.4c-1.9,0-3.8,0-5.7,0c-1.3,0-2.5,0-3.8,0
	c-1.1,0-2.3,0-3.7,0c-0.7,1.6-2.2,2.5-3.4,3.9c-1.1,1.3-2.1,2.6-3.4,3.6c-1.4,1.1-2.4,2.5-3.9,3.6c-0.4,0.6-0.7,1.2-1.1,1.8
	c-1,0.7-1.9,1.3-2.5,1.8c-0.9,1.1-1.5,1.9-2.2,2.7c0,0.3-0.1,0.6-0.1,0.9c-1.3,0-2.5,0-3.8,0c0.6-1.4,1.6-2.3,2.8-3.3
	c1-0.9,1.9-1.9,2.9-2.9c0.2-0.2,0.4-0.5,0.5-0.7c0.6-0.4,1.2-0.7,1.7-1c0.8-1.1,1.5-2.3,2.5-3.2c1.6-1.5,3.1-3,4.4-4.7
	c0.2-0.2,0.4-0.4,0.7-0.6c0.9-0.5,1.5-1.4,2.3-2.1c0.6-0.1,1.4,0.2,1.8-0.5c0.7,0,1.5-0.1,2.2-0.1c12.1,0,24.1,0,36.2,0
	c0.5,0,1,0,1.6,0.1c0,0.2,0,0.4,0,0.5l0,0c-2.5,0-5.1,0-7.6,0c-0.2,0-0.4,0-0.6,0c-0.2,0-0.4,0-0.6,0c-2.7,0-5.5,0-8.2,0
	c-1.7,0-3.4,0-5.1,0C117.4,148.4,116.1,148.4,114.8,148.4z"/>
  <path fill-rule="evenodd" clip-rule="evenodd" fill="#5178BA" d="M114.8,148.4c1.3,0,2.5,0,3.8,0c-1,1-1.9,2.1-2.7,3.4
	c-1.2,0.8-2.3,1.7-3.1,3c-0.3,0.6-0.9,1.2-1.5,1.6c-0.8,0.6-1.4,1.6-2.6,1.7c-1.5,2.7-3.8,4.5-6.3,6.3c-0.5,0.7-1,1.5-1.6,2.3
	c-1.3,0-2.5,0-3.8,0c1.1-0.8,1.6-2.1,2.4-3.1c1.5-1.8,3.1-3.4,4.8-4.9c1.1-1,2.3-2.1,3.5-3c1.1-0.9,2.2-1.9,2.9-3.3
	c0.2-0.4,0.5-0.7,0.8-0.9c0.6-0.6,1.3-0.9,1.8-1.7C113.6,149.2,114.3,148.8,114.8,148.4z"/>
  <path fill-rule="evenodd" clip-rule="evenodd" fill="#4D93BA" d="M26.3,166.7c0.2-1,1.4-1.2,1.9-2c0.5-0.8,1.1-1.5,1.9-2.1
	c1.8-1.4,3.3-3.1,4.8-4.8c2-2.2,4.1-4.2,6.2-6.3c0.7-0.7,1.5-1.5,2.1-2.2c0.1-0.4,0.1-0.7,0.1-1c1.5,0,3,0,4.4,0
	c-1.4,1.8-2.7,3.6-4.1,5.4c-0.2,0-0.4,0-0.6,0c-1.1,1.1-2.2,2.2-3.2,3.3c-0.6,0.2-1,0.4-1.4,0.5c-0.6,1.9-2.3,2.9-2.9,4.3
	c-0.7,0.6-1.3,1.1-1.9,1.5c-0.6,0.5-1.1,0.9-1.7,1.3c-0.5,0.7-0.9,1.4-1.4,2.1C29.2,166.7,27.7,166.7,26.3,166.7z"/>
  <path fill-rule="evenodd" clip-rule="evenodd" fill="#44B9B7" d="M87.6,18.6c-0.1,0.3-0.1,0.6-0.2,0.9c-0.3,0-0.6,0-0.9,0
	c-0.1,0.1-0.2,0.1-0.3,0.2c-0.6,1.6-2.1,2.6-3.1,3.9c-1.1,1.3-2.1,2.8-3.7,3.7c-0.8,0.4-1.6,1.2-2,2c-1,1.9-3.1,2.8-4.2,4.6
	c-0.2,0.3-0.7,0.5-1,0.7c-0.9,0.7-1.8,1.4-2.3,2.5c-1.5,0-3,0-4.4,0c0.3-0.3,0.6-0.6,1.1-1.1c0.1-0.1,0.3-0.6,0.4-1
	c0.3,0.2,0.6,0.3,0.8,0.5c0.7-0.6,1.5-1.2,2-2c0.5-0.7,1-1.4,1.7-1.7c0.3-0.7,0.5-1.2,0.8-1.9c0.6-0.2,1.2-0.5,1.8-0.8
	c0.1-0.3,0.3-0.7,0.4-1.2c0.9-0.8,1.8-1.6,2.9-2.6c-0.1,0,0.1,0,0.5,0c0.7-0.9,1.4-2,2.1-3c2.1-1.4,2.1-1.4,3.1-3.5
	C84.5,18.5,86.1,18.7,87.6,18.6z"/>
  <path fill-rule="evenodd" clip-rule="evenodd" fill="#4A9CBA" d="M137,37c0.4-0.9,1.2-1.4,1.8-2.1c0.8-0.9,1.5-1.7,2.5-2.7
	c0.3-0.1,0.9-0.3,1.5-0.6c0.5-0.9,1-1.8,1.6-2.8c2.2-1.2,3.7-3.2,5.5-4.9c0.4-0.8,0.8-1.5,1.3-2.3c0.5-0.2,1.1-0.4,1.8-0.7
	c0.4-0.7,0.8-1.4,1.2-2.1c0.4,0,0.8,0,1.3,0c0.8,0,1.7,0,2.5,0c0,0.5-0.1,1-0.1,1.6c-0.5,0.2-0.9,0.3-1.3,0.5
	c-1.2,1.5-2.5,3-3.8,4.6c-0.4,0.1-0.9,0.3-1.3,0.5c-0.5,0.7-0.7,1.5-1.4,2c-0.6,0.5-1,1.2-1.8,1.7c-1.2,0.7-2,1.8-2.7,3.1
	c-1.1,0.6-2.2,1.3-2.9,2.7c-0.4,0.7-1.2,1.1-1.8,1.7C139.5,37,138.2,37,137,37z"/>
  <path fill-rule="evenodd" clip-rule="evenodd" fill="#4B9BBA" d="M47.8,148.4c-1.5,0-3,0-4.4,0c-2.1,0-4.2,0-6.3,0
	c-1.5,0-2.9,0-4.4,0c-3,1.8-5.5,4.1-7.4,6.9c-0.9,0.7-1.7,1.4-2.5,2.1c-0.5,1.4-1.7,2.1-2.7,2.9c-1.6,1.4-3.2,2.7-4.2,4.5
	c-0.4,0.7-1,1.3-1.5,2c-0.8,0.1-1.6,0.3-2.3-0.1c-0.5-0.6-0.4-1.2-0.3-1.8c0.5-0.3,1.1-0.6,1.7-0.9c0.5-1.3,1.7-2,2.4-2.6
	c0.3-0.7,0.5-1.1,0.6-1.4c1.2-0.1,2-0.8,2.6-1.7c0.6-0.9,1.3-1.9,1.8-2.7c1.6-0.5,1.5-0.6,2.3-1.2c1.8-1.6,3.1-3.6,5-5.1
	c0.2-0.1,0.2-0.3,0.4-0.5c0.1-0.5,0.3-1,0.5-1.6c0.3-0.2,0.6-0.4,1-0.7c0,0.5,0.1,1,0.7,1.3c7.1,0,14.1,0,21.2,0
	c1.2,0,2.3,0.1,3.5,0.1c-0.2,0.2-0.4,0.3-0.6,0.5c-1.3,0-2.5,0-3.8,0C49.9,148.3,48.8,148.4,47.8,148.4z"/>
  <path fill-rule="evenodd" clip-rule="evenodd" fill="#527BBA" d="M105.4,148.4c1.3,0,2.5,0,3.8,0c-0.1,0.3-0.1,0.7-0.2,0.9
	c-1,0.9-2,1.9-2.8,3c-0.1,0.1-0.1,0.2-0.2,0.2c-1.9,1-3.1,2.7-4.7,4.2c-0.2,0.6-0.4,1.2-0.6,1.9c-0.5,0.2-1,0.5-1.9,0.9
	c-0.5,0.8-1.3,2-2.5,2.4c-0.4,0.7-0.4,1.3-1,1.8c-0.7,0.6-1.2,1.4-1.7,2.2c-0.2,0.2-0.1,0.6-0.2,0.9c-1.7,0-3.4,0-5.1,0
	c0.1-0.4,0.1-0.8,0.2-1.1c0.7-0.9,1.7-1.1,2.3-1.9c1.7-2.1,3.9-3.7,6-5.3c0.1-0.2,0.2-0.3,0.3-0.5c0.6-1.5,1.4-2.8,3-3.5
	c0.3-0.1,0.5-0.4,0.6-0.7c0.4-1,1.4-1.2,2.1-1.9c0.7-0.7,1.4-1.2,2.1-1.8c0.1-0.1,0.2-0.3,0.4-0.6
	C105.4,149.2,105.4,148.8,105.4,148.4z"/>
  <path fill-rule="evenodd" clip-rule="evenodd" fill="#46ADB8" d="M116.7,18.6c0,0.3-0.1,0.6-0.1,0.9c-0.9,1.3-2,2.2-3.2,2.7
	c-0.9,1.3-1.1,2.7-2.5,3.6c-0.2,0-0.6,0-1,0c-0.8,0.4-0.9,1.2-1,1.9c-1,0.7-1.9,1.4-2.8,2c-0.2,0.4-0.3,0.8-0.4,1.2
	c-0.8,0.8-1.9,1-2.5,1.9c-0.5,0.7-1.3,1.3-2,2c-0.3,0.7-0.6,1.5-0.9,2.3c-1.5,0-3,0-4.4,0c0-0.2,0.1-0.4,0.1-0.8
	c2-1.4,3.6-3.6,5.8-4.9c0.2-0.1,0.4-0.1,0.7-0.3c0.8-1.2,1.6-2.5,2.5-3.9c0.3,0,0.6,0,0.9,0c1.2-1.7,2.3-3.4,3.6-5.2
	c0.5-0.1,1-0.2,1.5-0.3c0.5-0.2,0.6-0.6,0.7-1c0.2-0.9,0.9-1.4,1.8-2C114.4,18.7,115.6,18.6,116.7,18.6z"/>
  <path fill-rule="evenodd" clip-rule="evenodd" fill="#517CBA" d="M105.4,148.4c0,0.4,0,0.8,0,1.1c-0.2,0.3-0.3,0.5-0.4,0.6
	c-0.7,0.6-1.5,1.1-2.1,1.8c-0.7,0.7-1.7,0.9-2.1,1.9c-0.1,0.3-0.4,0.5-0.6,0.7c-1.6,0.7-2.3,2-3,3.5c-0.1,0.2-0.2,0.4-0.3,0.5
	c-2.2,1.6-4.4,3.2-6,5.3c-0.6,0.8-1.6,1-2.3,1.9c0,0.3-0.1,0.7-0.2,1.1c-1.1,0-2.1,0-3.2,0c0-0.3,0.1-0.6,0.1-0.9
	c0.7-0.8,1.3-1.6,2.2-2.7c0.6-0.4,1.5-1.1,2.5-1.8c0.4-0.6,0.7-1.2,1.1-1.8c1.5-1,2.5-2.4,3.9-3.6c1.3-1.1,2.3-2.4,3.4-3.6
	c1.1-1.3,2.7-2.2,3.4-3.9C103.1,148.4,104.2,148.4,105.4,148.4z"/>
  <path fill-rule="evenodd" clip-rule="evenodd" fill="#4D90BB" d="M50.9,148.3c1.3,0,2.5,0,3.8,0c-0.4,0.6-0.9,1.2-1.2,1.8
	c-0.5,0.9-1.1,1.5-2,2c-0.4,0.2-0.8,0.4-1,0.7c-1.2,2.1-3.5,3.3-4.7,5.2c-0.8,0.4-1.4,0.8-2,1.1c-0.8,0.9-1.5,1.8-2.2,2.7
	c-0.4,0.5-0.9,0.9-1.2,1.4c-0.4,0.7-1.1,0.9-1.8,1c-0.1,1.2-1,1.6-1.6,2.4c-1.3,0-2.5,0-3.8,0c0.5-0.8,1.5-1,2-1.9
	c0.5-0.9,1.5-1.4,2.1-2.2c0.7-1,1.7-1.8,2.5-2.7c0.5-0.6,1.3-1,2-1.5c0.7-0.5,0.8-1.5,1.7-1.8c1.3-0.6,1.6-2.2,2.9-2.8
	c0.3-0.1,0.5-0.4,0.6-0.7c0.3-1,1.3-1.3,1.8-1.9c0.2-0.5,0.3-0.9,0.4-1.2C50,149.5,50.7,149.1,50.9,148.3z"/>
  <path fill-rule="evenodd" clip-rule="evenodd" fill="#4D94BA" d="M141.4,50.3c0.3-0.1,0.6-0.1,1-0.2c0.7-1.2,1.3-2.6,2.5-3.6
	c0.9-0.7,1.9-1.3,2.7-2.1c0.7-0.7,1.2-1.7,1.9-2.5c0.6-0.6,1.4-1,1.9-1.6c0.5-0.7,1.1-1.2,1.8-1.7c0.4-0.2,0.9-0.6,1.1-1.1
	c0.4-1.1,1.6-1.3,2.2-2.2c0.5-0.9,1.1-1.7,1.8-2.7c0.5,0,1-0.1,1.5-0.1c0,1.1,0,2.1,0,3.2c-1.1,0.3-1.3,1.6-2.2,2.1
	c-0.9,0.5-1.5,1.5-2.2,2.2c-0.5,0.3-1.1,0.6-1.6,0.9c-0.7,1-1.4,1.9-2,2.7c-2.4,1.4-3.6,4-5.8,4.9c-1.4,1.7-2.7,3.1-3.8,4.5
	c0.1,0.3,0.1,0.4,0.2,0.7c1.1,0.3,2.2,0.1,3.4,0.2c0,0.2,0,0.4,0,0.6c-1.4,0.2-2.7,0.2-3.9,0c-0.5-0.4-0.6-0.8-0.6-1.2
	C141.3,52.4,141.4,51.3,141.4,50.3z"/>
  <path fill-rule="evenodd" clip-rule="evenodd" fill="#44B9B7" d="M30.1,77.5c-0.5,0.1-1,0.1-1.6,0.2c-0.1,0.7-0.3,1.3-0.4,1.8
	c-0.5,0.8-1.4,0.3-2.1,0.9c-0.1,0.3-0.3,0.6-0.4,1.1c-1.7,1.4-3.5,2.8-4.6,4.9c-0.2,0.4-0.7,0.7-1,1c-0.3,0-0.6,0-0.8-0.1
	c-1.5,1.8-3.2,3.6-4.3,5.6c-0.5,0.4-1,0.8-1.5,1.2c-0.5,0.4-1,0.8-1.5,1.1c0-1.7,0-3.4,0-5.1c0.3,0.1,0.6,0.2,0.9,0.3
	c0.5-0.5,0.9-1.1,1.5-1.5c1.5-0.8,2.4-2,3.1-3.3c1-0.7,1.9-1.3,3-2c0.6-0.8,1.2-1.7,1.9-2.7c0.8-0.6,1.7-1.2,2.5-1.8
	c0.6-0.8,1.2-1.7,1.8-2.5c0.2,0,0.4,0,0.6-0.1c0.6-0.1,0.4-0.7,0.7-1.1c0.4-0.4,0.9-0.9,1.4-1.4c0.2,0,0.4,0.1,0.7,0.1
	C30.2,75.2,30,76.3,30.1,77.5z"/>
  <path fill-rule="evenodd" clip-rule="evenodd" fill="#507FBA" d="M99,148.3c-0.7,0.7-1.3,1.6-2.3,2.1c-0.3,0.2-0.5,0.4-0.7,0.6
	c-1.3,1.7-2.8,3.3-4.4,4.7c-1,0.9-1.7,2.1-2.5,3.2c-0.6,0.3-1.1,0.6-1.7,1c-0.1,0.2-0.3,0.4-0.5,0.7c-0.9,1-1.8,2-2.9,2.9
	c-1.1,1-2.2,1.9-2.8,3.3c-1.3,0-2.5,0-3.8,0c0.6-1,1.3-1.9,1.9-2.9c0.5-0.2,1-0.3,1.4-0.5c0.7-0.8,1.2-1.7,2-2.1
	c1.8-1,2.8-2.4,3.7-4.2c0.1-0.2,0.3-0.3,0.5-0.5c0.3-0.1,0.6-0.2,0.9-0.2c0.6-0.7,1.2-1.4,1.8-2.2c0.5-0.6,0.9-1.3,1.7-1.8
	c0.8-0.5,1.3-1.3,2-2.1c0.5-0.3,1.1-0.7,1.8-1c0.1-0.4,0.1-0.7,0.2-1C96.5,148.3,97.8,148.3,99,148.3z"/>
  <path fill-rule="evenodd" clip-rule="evenodd" fill="#48AAB8" d="M128.8,18.6c-1,0-2.1,0-3.1,0c-0.5,0.2-1,0.5-1.6,0.8
	c-0.7,1.3-1.9,2.3-2.7,3.7c-0.6,1.1-1.6,1.9-3,2.1c-0.7,1.5-1.8,2.7-3,3.9c-0.6,0.2-1.2,0.4-1.9,0.6c-0.5,0.8-1,1.7-1.6,2.9
	c-0.8,0.8-1.9,1.8-2.9,2.9c-0.4,0.4-0.8,1-1.1,1.5c-1.3,0-2.5,0-3.8,0c0.3-1,1.4-1.2,2.2-1.9c0.4-0.6,0.8-1.4,1.2-2.1
	c0.7-0.5,1.8-0.6,2.2-1.5c2-1.3,3.4-3.1,5-4.7c0.4-0.3,0.6-0.9,0.9-1.3c0.7-0.8,1.4-1.6,2.2-2.2c0.7-0.5,1.3-1,2-1.5
	c0.6-0.5,1.4-0.9,1.8-1.7c0.4-0.9,1.4-1.2,2.1-1.8c4-0.2,8-0.2,12,0c-0.3,0.3-0.6,0.5-1,0.5c-0.7,0-1.4,0-2.1,0
	C131.3,18.6,130,18.6,128.8,18.6z"/>
  <path fill-rule="evenodd" clip-rule="evenodd" fill="#5180BB" d="M95.2,148.3c-0.1,0.3-0.1,0.6-0.2,1c-0.6,0.4-1.3,0.7-1.8,1
	c-0.7,0.8-1.2,1.6-2,2.1c-0.7,0.5-1.1,1.2-1.7,1.8c-0.6,0.7-1.2,1.4-1.8,2.2c-0.3,0.1-0.6,0.2-0.9,0.2c-0.2,0.2-0.4,0.3-0.5,0.5
	c-0.8,1.7-1.9,3.2-3.7,4.2c-0.8,0.4-1.3,1.3-2,2.1c-0.4,0.1-0.9,0.3-1.4,0.5c-0.7,1-1.3,1.9-1.9,2.9c-0.8,0-1.7,0-2.5,0
	c0.3-0.6,0.7-1.3,0.9-1.7c1.2-1.3,2.3-2.5,3.7-4c0.4-0.3,1.3-0.9,2.2-1.6c0.6-0.9,1.2-2,2-3.3c0.1,0,0.5-0.2,0.8-0.3
	c2.3-2.2,4.6-4.3,6.8-6.4c0.1-0.5,0.1-0.8,0.2-1.1C92.7,148.3,94,148.3,95.2,148.3z"/>
  <path fill-rule="evenodd" clip-rule="evenodd" fill="#4F8ABA" d="M69.9,148.4c-0.5,0.6-0.9,1.1-1.4,1.7c-0.5,0.7-1,1.3-1.9,2.4
	c-0.4,0.3-1.6,0.7-2.2,1.8c-0.6,1-1.3,1.9-1.8,2.8c-0.7,0.1-1.2,0.2-1.8,0.4c-0.4,0.7-0.9,1.5-1.5,2.5c-1.1,0.4-1.8,1.4-2.7,2.3
	c-0.9,0.9-1.9,1.7-2.7,2.4c-0.4,0.8-0.7,1.5-1.1,2.1c-1.3,0-2.5,0-3.8,0c0.1-0.3,0.1-0.6,0.2-1c0.5-0.2,1-0.3,1.7-0.6
	c0.5-0.6,1.3-1.3,1.8-2.2c0.5-0.8,1.2-1.1,1.8-1.7c0.1-0.3,0.2-0.6,0.3-0.9c0.8-0.6,1.2-1.7,2.3-2c1-0.3,1.6-1.1,2.1-1.8
	c1.1-1.3,2.3-2.5,3.4-3.7c0.6-0.6,1-1.3,1.6-2.2c0.6-0.3,1.4-0.6,2.1-1.1c0.4-0.3,0.7-0.7,1-1.1C68.2,148.4,69.1,148.4,69.9,148.4z"
  />
  <path fill-rule="evenodd" clip-rule="evenodd" fill="#48A7B9" d="M30.5,122.4c-0.2-0.1-0.4-0.2-0.6-0.3c-1.5,1.1-2.5,2.6-3.6,4.3
	c-0.9,0.4-1.9,1-2.5,2c-0.4,0.8-1.6,1.1-1.5,2.3c-0.8,1-2,1-2.9,1.4c-1.7,2.2-3.3,4.2-5.1,6.6c-0.7,0.4-1.7,0.9-2.7,1.4
	c0-1.1,0-2.1,0-3.2c0.5-0.5,1.1-0.9,1.6-1.5c0.3-0.4,0.4-0.9,0.7-1.5c0.6-0.2,1.3-0.4,2.1-0.7c1.2-1.5,1.2-1.5,2.8-2.1
	c0.5-0.7,1.2-1.4,1.6-2.2c0.5-1,1.2-1.8,2.1-2.3c0.9-0.5,1.2-1.4,2-2c0.6-0.3,1.2-0.7,1.9-1c0.4-0.6,0.9-1.1,1.3-1.8
	c0.3-0.5,0.5-1.1,0.8-1.8c0.5,0,1-0.1,1.5-0.1c0.2,0.2,0.3,0.4,0.5,0.6C30.5,121.1,30.5,121.7,30.5,122.4z"/>
  <path fill-rule="evenodd" clip-rule="evenodd" fill="#4A9CBA" d="M30,146.4c-0.3,0.2-0.7,0.5-1,0.7c-0.2,0.6-0.3,1.1-0.5,1.6
	c-0.1,0.2-0.2,0.4-0.4,0.5c-1.9,1.4-3.2,3.5-5,5.1c-0.7,0.7-0.7,0.7-2.3,1.2c-0.6,0.8-1.2,1.8-1.8,2.7c-0.6,0.9-1.4,1.6-2.6,1.7
	c-0.2,0.3-0.3,0.7-0.6,1.4c-0.8,0.6-2,1.3-2.4,2.6c-0.6,0.3-1.2,0.6-1.7,0.9c0-0.8,0-1.7,0-2.5c0.7-0.3,1.2-0.8,1.6-1.4
	c0.4-0.5,0.7-1,1.2-1.4c0.9-0.8,2-1.6,2.6-2.6c0.7-1.1,1.6-1.9,2.4-2.9c0.2-0.2,0.3-0.5,0.5-0.8c0.3,0,0.7,0.1,0.8-0.1
	c1.3-1.3,3-2.3,3.8-4.1c0.2-0.4,0.8-0.6,1.3-1c0.3-0.6,0.7-1.2,1.1-2c1-0.5,2.1-1.1,2.9-2.1c0,0.2,0,0.4,0,0.6
	C30.1,145.2,30,145.8,30,146.4z"/>
  <path fill-rule="evenodd" clip-rule="evenodd" fill="#5081BB" d="M141.4,98.4c0-1.9,0-3.8,0-5.7c0.3-0.1,0.6-0.1,1-0.2
	c0.6-1.4,1.7-2.2,3.1-2.9c0.6-1.8,1.9-2.7,3.8-3.3c1.3,0,2.7,0,4.2,0c-0.4,0.7-0.8,1.4-1.4,2c-1.4,1.4-3,2.5-4.1,4.2
	c-0.8,1.1-1.7,2-2.7,3c-1,0.9-2.1,1.6-2.8,2.7C142,98.3,141.7,98.3,141.4,98.4z"/>
  <path fill-rule="evenodd" clip-rule="evenodd" fill="#4C92BA" d="M50.9,148.3c-0.3,0.8-0.9,1.1-1.6,1.5c-0.1,0.3-0.3,0.7-0.4,1.2
	c-0.6,0.6-1.5,0.9-1.8,1.9c-0.1,0.3-0.3,0.6-0.6,0.7c-1.3,0.6-1.6,2.2-2.9,2.8c-0.8,0.4-1,1.3-1.7,1.8c-0.7,0.5-1.5,0.9-2,1.5
	c-0.8,1-1.8,1.8-2.5,2.7c-0.6,0.9-1.7,1.3-2.1,2.2c-0.5,0.9-1.6,1.1-2,1.9c-0.8,0-1.7,0-2.5,0c0.5-0.7,0.9-1.4,1.4-2.1
	c0.5-0.4,1.1-0.9,1.7-1.3c0.6-0.5,1.1-0.9,1.9-1.5c0.6-1.4,2.3-2.4,2.9-4.3c0.4-0.1,0.9-0.3,1.4-0.5c1-1,2.1-2.1,3.2-3.3
	c0.1,0,0.3,0,0.6,0c1.4-1.8,2.7-3.6,4.1-5.4C48.8,148.4,49.9,148.3,50.9,148.3z"/>
  <path fill-rule="evenodd" clip-rule="evenodd" fill="#4D90BB" d="M145.9,54.6c0-0.2,0-0.4,0-0.6c0.7-1.7,2.1-2.8,3.2-4.2
	c0.9-1.1,2.1-2,2.8-3.3c0.3-0.6,1.1-1,1.6-1.4c0.9-0.7,1.8-1.4,2.7-2.1c0.1-0.1,0.1-0.2,0.2-0.2c0.1-0.4,0.2-0.8,0.3-1.1
	c0.7-0.7,1.4-1.3,2.1-1.9c0.2-0.2,0.6-0.2,0.9-0.2c0,1.3,0,2.5,0,3.8c-0.4,0.3-0.9,0.6-1.2,0.9c-1.3,1.6-2.8,3-4.5,4.2
	c-0.2,0.2-0.4,0.4-0.6,0.7c-0.5,0.7-1.1,1.2-1.7,1.8c-0.9,0.7-1.6,1.5-2.4,2.3c-0.1,0.1,0,0.2-0.1,0.4c0.3,0.3,0.7,0.6,1.1,1
	C148.8,54.6,147.3,54.6,145.9,54.6z"/>
  <path fill-rule="evenodd" clip-rule="evenodd" fill="#48A7B9" d="M128.8,18.6c1.3,0,2.5,0,3.8,0c0,0.2-0.1,0.4-0.1,0.7
	c-0.6,0.5-1.2,1-1.8,1.5c-0.6,0.6-1.2,1.2-1.8,1.8c-0.4,0.4-0.7,0.7-1.1,1.2c-0.4,0.5-0.7,1.1-1.1,1.6c-0.5,0.7-1.1,1.3-1.5,1.7
	c-0.8,0.3-1.3,0.5-1.8,0.7c-1.2,1.6-2.5,3.3-3.9,5.3c-0.2,0.1-0.7,0.5-1.3,0.7c-0.7,0.3-1.4,0.7-1.7,1.4c-0.4,0.8-1.2,1.1-1.6,1.9
	c-0.8,0-1.7,0-2.5,0c0.8-0.8,1.8-1.3,2.3-2.5c0.2-0.5,0.8-1,1.4-1.2c1-0.5,1.7-1.2,2.2-2.2c0.4-0.7,0.9-1.4,1.4-2.1
	c0.4-0.5,0.8-1,1.3-1.3c1-0.5,1.7-1.3,2.4-1.9c0.8-0.8,1.8-1.4,2.4-2.4c0.4-0.6,1.1-0.9,1.7-1.4C127.9,20.9,128.7,19.9,128.8,18.6z"
  />
  <path fill-rule="evenodd" clip-rule="evenodd" fill="#4E8FBB" d="M150.3,54.6c-0.4-0.3-0.8-0.7-1.1-1c0-0.2,0-0.4,0.1-0.4
	c0.8-0.8,1.6-1.6,2.4-2.3c0.6-0.5,1.3-1,1.7-1.8c0.2-0.3,0.4-0.5,0.6-0.7c1.7-1.2,3.2-2.6,4.5-4.2c0.3-0.4,0.8-0.6,1.2-0.9
	c0,1.5,0,3,0,4.4c-0.6,0.2-0.9,0.8-1.3,1.3c-0.9,1.3-2,2.3-3.5,2.9c-0.4,0.6-0.8,1.2-1.2,1.8c0.5,0.7,1.2,0.3,1.8,0.4
	c0.4,0.1,0.8,0.2,1,0.6C154.5,54.6,152.4,54.6,150.3,54.6z"/>
  <path fill-rule="evenodd" clip-rule="evenodd" fill="#5180BB" d="M141.4,98.4c0.3,0,0.6-0.1,1.1-0.1c0.6-1.1,1.8-1.8,2.8-2.7
	c1-0.9,1.9-1.9,2.7-3c1.1-1.6,2.7-2.8,4.1-4.2c0.6-0.6,1-1.3,1.4-2c0.4,0,0.8,0,1.3,0c0.4,0,0.8,0,1.3,0c-0.8,1.8-1.9,3.2-3.3,4.6
	c-0.9,0.9-1.7,1.8-2.6,2.7c-0.4,0.4-0.8,0.6-1.2,1c-0.4,0.3-0.8,0.7-1.1,1.1c-0.5,0.9-1.1,1.5-1.9,2c-1.2,0.7-2.1,1.7-2.9,3
	c-0.5,0.3-1,0.5-1.6,0.8C141.4,100.5,141.4,99.4,141.4,98.4z"/>
  <path fill-rule="evenodd" clip-rule="evenodd" fill="#4F83BA" d="M154.7,86.3c-0.4,0-0.8,0-1.3,0c-1.5,0-2.9,0-4.2,0
	c-1.8,0.6-3.1,1.5-3.8,3.3c-1.4,0.6-2.5,1.5-3.1,2.9c-0.4,0.1-0.7,0.1-1,0.2c-0.2-2.2-0.2-4.4,0-6.5c0.3-0.2,0.5-0.4,0.6-0.4
	c4.2,0,8.4,0,12.6,0C154.7,86,154.7,86.1,154.7,86.3z"/>
  <path fill-rule="evenodd" clip-rule="evenodd" fill="#59BDB9" d="M508.6,91.3c-0.3-3.6-0.2-5.7,0.2-7.7c1.8-0.5,3.2-0.5,9.2-0.3
	c0.1,0.1,0.3,0.3,0.4,0.4c-0.4,0-0.7,0-1.1,0c-0.7,0-1.4,0-2.2,0c-1.9,1.9-3.9,3.8-5.4,5.4C509,90.2,509.3,91,508.6,91.3z"/>
  <path fill-rule="evenodd" clip-rule="evenodd" fill="#507EBB" d="M159.8,166.7c0-4.4,0-8.9,0-13.3c0-3.2,0-6.3,0-9.5
	c0-3,0-5.9,0-8.9c0-1.7,0-3.4,0-5.1c0-2.3,0-4.6,0-7l0,0c0.2,0,0.3,0,0.5,0c0,0.7,0.1,1.5,0.1,2.2c0,13.2,0,26.3,0,39.5
	c0,0.5,0,1,0,1.5C160.1,166.4,160,166.6,159.8,166.7z"/>
  <path fill-rule="evenodd" clip-rule="evenodd" fill="#5180BB" d="M160.2,123c-0.2,0-0.3,0-0.5,0c0-2.9,0-5.9,0-8.8
	c0-2.7,0-5.5,0-8.2c0-1.9,0-3.8,0-5.7c0-1.9,0-3.8,0-5.7c0-1.7,0-3.4,0-5.1c0-0.9,0-1.8-0.1-2.6c-0.6-0.7-1.2-0.6-1.8-0.6
	c0-0.2,0-0.4,0-0.6c0.7,0,1.4,0,2.1,0c0.6,0.8,0.4,1.6,0.4,2.3c0,5.4,0,10.7,0,16.1c0,5.3,0,10.5,0,15.8
	C160.4,120.9,160.3,122,160.2,123z"/>
  <path fill-rule="evenodd" clip-rule="evenodd" fill="#4D8DBA" d="M156.6,54.6c-0.2-0.4-0.6-0.5-1-0.6c-0.6-0.1-1.2,0.3-1.8-0.4
	c0.4-0.6,0.8-1.2,1.2-1.8c1.5-0.6,2.6-1.6,3.5-2.9c0.4-0.5,0.7-1,1.3-1.3c0,2.3,0,4.6,0,6.8C158.7,54.6,157.7,54.6,156.6,54.6z"/>
  <path fill-rule="evenodd" clip-rule="evenodd" fill="#50B4B9" d="M508.6,91.3c0.7-0.4,0.4-1.2,1-2.1c1.6-1.6,3.5-3.5,5.4-5.4
	c0.8,0,1.5,0,2.2,0c-0.7,0.8-1.3,1.6-2,2.3c-2,2.1-4.1,4.1-6,6.1c-0.1,0.4-0.1,0.8-0.1,1.1c0,0.4,0,0.8,0,1.3
	c-0.2,0.2-0.3,0.4-0.5,0.6C508.6,93.9,508.6,92.6,508.6,91.3z"/>
  <path fill-rule="evenodd" clip-rule="evenodd" fill="#4CA2BA" d="M508.6,95.1c0.2-0.2,0.3-0.4,0.5-0.6c1.1-0.6,1.8-1.6,2.8-2.4
	c0.7-0.6,1.3-1.4,2.1-1.8c1-0.5,1.4-1.5,2-2.2c0.9-0.6,1.8-1.2,2.6-1.8c0,0.4,0,0.8,0,1.3c-0.8,0.7-1.6,1.3-2.3,2.1
	c-2.5,2.4-5,4.9-7.6,7.4C508.6,96.4,508.6,95.8,508.6,95.1z"/>
  <path fill-rule="evenodd" clip-rule="evenodd" fill="#4D9CBA" d="M508.6,97c2.5-2.5,5-4.9,7.6-7.4c0.7-0.7,1.5-1.4,2.3-2.1
	c0,0.6,0,1.3,0,1.9c-0.3,0.1-0.6,0.1-0.6,0.1c-3,2.9-5.9,5.7-8.7,8.4c0,0.4-0.1,0.7-0.1,1c0,0.4,0,0.8,0,1.3c0,0.2,0,0.4,0,0.6
	c-0.2-0.2-0.5-0.4-0.5-0.7C508.5,99.1,508.6,98.1,508.6,97z"/>
  <path fill-rule="evenodd" clip-rule="evenodd" fill="#4AA7B9" d="M518.5,86.3c-0.8,0.6-1.7,1.1-2.6,1.8c-0.6,0.7-0.9,1.7-2,2.2
	c-0.8,0.4-1.4,1.2-2.1,1.8c-0.9,0.8-1.6,1.9-2.8,2.4c0-0.4,0-0.8,0-1.3c0.7-0.6,1.4-1.2,2.1-1.8c2.1-2.1,4.2-4.2,6.3-6.3
	c0.4-0.1,0.7-0.1,1-0.2C518.5,85.5,518.5,85.9,518.5,86.3z"/>
  <path fill-rule="evenodd" clip-rule="evenodd" fill="#4BADB9" d="M518.5,85.1c-0.3,0.1-0.6,0.1-1,0.2c-2.1,2.1-4.2,4.2-6.3,6.3
	c-0.7,0.6-1.4,1.2-2.1,1.8c0-0.3,0.1-0.6,0.1-1.1c2-2,4-4,6-6.1c0.7-0.7,1.4-1.5,2-2.3c0.4,0,0.7,0,1.1,0
	C518.4,84.2,518.5,84.6,518.5,85.1z"/>
  <path fill-rule="evenodd" clip-rule="evenodd" fill="#4F93BB" d="M509.1,100.2c0-0.4,0-0.8,0-1.3c0.7-0.6,1.4-1.2,2.1-1.8
	c2.1-2.1,4.2-4.2,6.3-6.3c0.4-0.1,0.7-0.1,1-0.2c0,0.4,0,0.8,0,1.3c-0.3,0.1-0.6,0.1-1,0.2c-2.1,2.1-4.2,4.2-6.3,6.3
	C510.5,99.1,509.8,99.7,509.1,100.2z"/>
  <path fill-rule="evenodd" clip-rule="evenodd" fill="#4E98BA" d="M518.5,90.8c-0.3,0.1-0.6,0.1-1,0.2c-2.1,2.1-4.2,4.2-6.3,6.3
	c-0.7,0.6-1.4,1.2-2.1,1.8c0-0.3,0.1-0.6,0.1-1c2.8-2.7,5.7-5.5,8.7-8.4c0,0,0.3,0,0.6-0.1C518.5,89.9,518.5,90.3,518.5,90.8z"/>
  <path fill-rule="evenodd" clip-rule="evenodd" fill="#508EBA" d="M509.1,100.2c0.7-0.6,1.4-1.2,2.1-1.8c2.1-2.1,4.2-4.2,6.3-6.3
	c0.4-0.1,0.7-0.1,1-0.2c0,0.4,0,0.8,0,1.3c-0.3,0.1-0.6,0.1-0.8,0.1c-2.4,2.4-4.7,4.6-7,6.9c-0.1,0.1-0.2,0.4-0.3,0.5
	c-0.4,0-0.8,0-1.3,0C509.1,100.6,509.1,100.4,509.1,100.2z"/>
  <path fill-rule="evenodd" clip-rule="evenodd" fill="#4D94BA" d="M159.8,54.6c0-2.3,0-4.6,0-6.8c0-1.5,0-3,0-4.4c0-1.3,0-2.5,0-3.8
	c0-1.1,0-2.1,0-3.2l0.2,0h0.2c0,0.5,0.1,1,0.1,1.6c0,5.1,0,10.3,0,15.4c0,0.3-0.1,0.6-0.1,0.9C160.1,54.3,159.9,54.4,159.8,54.6z"/>
  <path fill-rule="evenodd" clip-rule="evenodd" fill="#4A9CBA" d="M160.2,36.3H160l-0.2,0c0-0.2,0-0.4,0-0.6c0-1.1,0-2.1,0-3.2
	c0-2.3,0-4.6,0-7c0-1.9,0-3.8,0-5.7c0.1,0,0.3,0,0.4,0c0,0.7,0.1,1.4,0.1,2.2c0,4,0,8.1,0,12.1C160.4,34.9,160.3,35.6,160.2,36.3z"
  />
  <path fill-rule="evenodd" clip-rule="evenodd" fill="#5189BA" d="M510.3,100.9c0.1-0.2,0.1-0.4,0.3-0.5c2.3-2.3,4.6-4.6,7-6.9
	c0.2,0,0.5-0.1,0.8-0.1c0,0.4,0,0.8,0,1.3c-0.3,0.1-0.6,0.1-0.8,0.1c-2,1.9-3.9,3.8-5.8,5.7c-0.1,0.1-0.2,0.4-0.3,0.5
	C511.2,100.9,510.8,100.9,510.3,100.9z"/>
  <path fill-rule="evenodd" clip-rule="evenodd" fill="#5185BB" d="M511.6,100.9c0.1-0.2,0.1-0.4,0.3-0.5c1.9-1.9,3.8-3.7,5.8-5.7
	c0.2,0,0.5-0.1,0.8-0.1c0,0.4,0,0.8,0,1.3c-0.3,0.1-0.6,0.1-1,0.2c-1.5,1.6-3.4,3-4.6,4.9C512.4,100.9,512,100.9,511.6,100.9z"/>
  <path fill-rule="evenodd" clip-rule="evenodd" fill="#51BBB1" d="M74.3,18.2c0,0.1,0,0.3,0,0.4c-2.7,0-5.5,0-8.2,0c-1.5,0-3,0-4.4,0
	c0-0.1,0-0.3,0-0.4c3.2,0,6.4-0.1,9.6-0.1C72.3,18,73.3,18.1,74.3,18.2z"/>
  <path fill-rule="evenodd" clip-rule="evenodd" fill="#527DBB" d="M518.5,97.1c0,0.8,0,1.7,0,2.5c-0.4-0.1-0.7-0.3-1.1-0.4
	c-0.5,0.6-0.9,1.2-1.3,1.8c-0.6,0-1.3,0-1.9,0c0.9-1.5,2.2-2.5,3.4-3.6C517.9,97.2,518.2,97.1,518.5,97.1z"/>
  <path fill-rule="evenodd" clip-rule="evenodd" fill="#5281BB" d="M518.5,97.1c-0.3,0.1-0.6,0.1-1,0.2c-1.1,1.2-2.5,2.2-3.4,3.6
	c-0.4,0-0.8,0-1.3,0c1.3-1.9,3.1-3.3,4.6-4.9c0.4-0.1,0.7-0.1,1-0.2C518.5,96.2,518.5,96.7,518.5,97.1z"/>
  <path fill-rule="evenodd" clip-rule="evenodd" fill="#49A3B9" d="M145.2,18.6c0-0.1,0-0.3,0-0.4c2.7-0.2,5.5-0.2,8.2,0
	c0,0.1,0,0.3,0,0.4c-1.7,0-3.4,0-5.1,0C147.3,18.6,146.3,18.6,145.2,18.6z"/>
  <path fill-rule="evenodd" clip-rule="evenodd" fill="#4A9EBA" d="M160.2,19.9c-0.1,0-0.3,0-0.4,0c-0.1-0.3-0.1-0.6-0.2-0.8
	c-0.5-0.5-1.1-0.4-1.7-0.4c-0.8,0-1.7,0-2.5,0c0-0.1,0-0.3,0-0.4c1.6-0.2,3.2-0.3,4.9,0.1C160.2,18.9,160.2,19.4,160.2,19.9z"/>
  <path fill-rule="evenodd" clip-rule="evenodd" fill="#49A1B9" d="M30.1,144.5c0-0.2,0-0.4,0-0.6c0-1.9,0-3.8,0-5.7
	c0.1,0,0.3,0,0.4,0c0.2,2.1,0.2,4.2,0,6.3C30.4,144.5,30.2,144.5,30.1,144.5z"/>
  <path fill-rule="evenodd" clip-rule="evenodd" fill="#5378BA" d="M516,100.9c0.4-0.6,0.8-1.1,1.3-1.8c0.4,0.2,0.8,0.3,1.1,0.4
	c0,0.4,0,0.7,0,1C517.6,101.2,516.8,101,516,100.9z"/>
  <path fill-rule="evenodd" clip-rule="evenodd" fill="#5081BB" d="M157.9,85.8c0,0.2,0,0.4,0,0.6c-0.6,0-1.3,0-1.9,0
	c-0.4,0-0.8,0-1.3,0c0-0.2,0-0.4,0-0.6C155.8,85.8,156.8,85.8,157.9,85.8z"/>
  <path fill-rule="evenodd" clip-rule="evenodd" fill="#4B9EB9" d="M30.1,144.5c0.1,0,0.3,0,0.4,0c0.1,1.1,0.1,2.1,0.2,3.2
	c-0.6-0.2-0.6-0.7-0.7-1.3C30,145.8,30.1,145.2,30.1,144.5z"/>
  <path fill-rule="evenodd" clip-rule="evenodd" fill="#786F6A" d="M829.2,126.1c0.1,0.4,0.1,0.8-0.3,1c-0.8-0.2-1.1-0.8-0.9-1.6
	C828.4,125.7,828.8,125.9,829.2,126.1z"/>
  <path fill-rule="evenodd" clip-rule="evenodd" fill="#49A0B9" d="M155.3,18.2c0,0.1,0,0.3,0,0.4c-0.4,0-0.8,0-1.3,0
	c-0.2,0-0.4,0-0.6,0c0-0.1,0-0.3,0-0.4C154.1,18.2,154.7,18.2,155.3,18.2z"/>
  <path fill-rule="evenodd" clip-rule="evenodd" fill="#4A9CBA" d="M140.7,37c0.4,0.1,0.6,0.3,0.7,0.7C141.2,37.5,141,37.2,140.7,37z"
  />
  <path fill-rule="evenodd" clip-rule="evenodd" fill="#527ABA" d="M140.8,148.3c0-0.2,0-0.4,0-0.5c0.2-0.1,0.3-0.2,0.6-0.2
	C141.3,148,141.2,148.2,140.8,148.3z"/>
  <path fill-rule="evenodd" clip-rule="evenodd" fill="none" d="M263.9,119.3c1.7,0,3.4-0.1,5.1-0.1c1.8,0,3.6,0.1,5.4,0
	c1.4,0,2.7,0.3,4,0.7c1.6,0.6,2.7,1.6,3.3,3.2c0.9,2.2,1,4.5,0.2,6.8c-0.5,1.3-1.3,2.4-2.5,3.1c-1.3,0.7-2.7,1.3-4.2,1.3
	c-3.7,0.1-7.4,0-11.2,0c-0.1-0.5-0.3-0.8-0.3-1.2c0-4.4,0-8.9,0-13.3C263.7,119.8,263.7,119.7,263.9,119.3z"/>
  <path fill-rule="evenodd" clip-rule="evenodd" fill="none" d="M263.9,110.1c-0.1-0.1-0.2-0.2-0.2-0.3c0-0.1,0-0.2,0-0.3
	c0-0.4,0-0.8,0-1.3c0-3.8,0-7.6,0-11.4c0.2-0.3,0.6-0.5,1-0.5c3.1,0,6.1,0,9.2,0.1c1.5,0,2.9,0.4,4.2,1.1c1.4,0.7,2.3,1.8,2.7,3.3
	c0.5,1.8,0.6,3.5-0.1,5.3c-0.5,1.5-1.4,2.6-2.8,3.2c-1.1,0.4-2.2,0.9-3.3,1c-3.5,0.2-6.9,0.3-10.4,0
	C264.1,110.3,264,110.2,263.9,110.1z"/>
  <path fill-rule="evenodd" clip-rule="evenodd" fill="none" d="M416.1,114.3c0,5.6,0,11.3,0,16.8c-0.8,2-2.1,3.1-3.8,3.9
	c-0.6,0.1-1.2,0.3-1.8,0.4c-3.4,0.8-7.1-0.9-8.4-4.5c-0.4-1.2-0.8-2.4-1-3.6c-0.5-3.8-0.4-7.6,0.6-11.3c0.4-1.4,1-2.8,2-3.9
	c1-1,2.1-1.7,3.5-1.9c0.1,0,0.2,0,0.3-0.1C411.1,109.8,414.1,110.6,416.1,114.3z"/>
  <path fill-rule="evenodd" clip-rule="evenodd" fill="none" d="M647.7,132.2c-2.7,3.6-6.2,4.2-10,3.4c-1.2-0.5-1.9-1.2-2.7-2.4
	c-0.1-0.6-0.3-1.6-0.3-2.5c0.1-2.1,1.1-3.8,3.1-4.8c1.1-0.5,2.2-0.9,3.3-1c2.1-0.2,4.2-0.2,6.4,0C648,127.4,647.7,129.7,647.7,132.2
	z"/>
  <path fill-rule="evenodd" clip-rule="evenodd" fill="none" d="M462,118.5c-4.9,0-9.7,0.1-14.4,0c-0.5-0.4-0.5-0.9-0.4-1.2
	c0.4-1.4,0.8-2.8,1.7-4c1.2-1.8,2.8-2.8,4.9-3c0.9-0.1,1.9-0.1,2.8,0c2.8,0.3,4.6,1.9,5.4,4.5c0.3,1,0.3,2.1,0.4,3.1
	C462.5,117.9,462.3,118.1,462,118.5z"/>
  <path fill-rule="evenodd" clip-rule="evenodd" fill="none" d="M763.7,123.9c-0.2,1.6-0.1,3.6-0.8,5.5c-0.2,0.5-0.3,1-0.5,1.5
	c-1.4,3.5-4.7,5-8.1,4.7c-3.2-0.3-5.5-2-6.6-5.1c-0.4-1.2-0.7-2.4-0.9-3.6c-0.6-3.8-0.4-7.5,0.8-11.2c0.2-0.7,0.5-1.4,0.9-2
	c1.3-2.1,3.1-3.4,5.6-3.5c4-0.3,6.8,1,8.6,5.3c0.3,0.7,0.5,1.4,0.6,2.1c0.2,1.1,0.3,2.3,0.4,3.4
	C763.8,121.8,763.7,122.6,763.7,123.9z"/>
  <path fill-rule="evenodd" clip-rule="evenodd" fill="#51BBB1" d="M28.5,34.3c0-0.1,0-0.1,0-0.2c0.1,0,0.2,0,0.2,0.1
	c0.1,0.1,0.1,0.2,0.1,0.3C28.7,34.4,28.6,34.4,28.5,34.3z"/>
  <path fill-rule="evenodd" clip-rule="evenodd" fill="#5372B6" d="M131.9,148.4c0.2,0,0.4,0,0.6,0
	C132.2,148.8,132.2,148.8,131.9,148.4z"/>
  <path fill-rule="evenodd" clip-rule="evenodd" fill="#566BB1" d="M156.4,156.5c0-0.1,0-0.1,0-0.2c0.1,0,0.2,0,0.2,0.1
	c0.1,0.1,0.1,0.2,0.1,0.3C156.5,156.5,156.4,156.5,156.4,156.5z"/>
  <path fill-rule="evenodd" clip-rule="evenodd" fill="#566BB1" d="M155.1,158.4c0-0.1,0-0.1,0-0.2c0.1,0,0.2,0,0.2,0.1
	c0.1,0.1,0.1,0.2,0.1,0.3C155.3,158.4,155.2,158.4,155.1,158.4z"/>
  <path fill-rule="evenodd" clip-rule="evenodd" fill="#49A1B9" d="M16.5,144.4c0-0.1,0-0.1,0-0.2c0.1,0,0.2,0,0.2,0.1
	c0.1,0.1,0.1,0.2,0.1,0.3C16.7,144.5,16.6,144.5,16.5,144.4z"/>
  <path fill-rule="evenodd" clip-rule="evenodd" fill="#4C92B9" d="M159.8,35.7c0,0.2,0,0.4,0,0.6c0,1.1,0,2.1,0,3.2
	c-0.3,0.1-0.7,0.1-0.9,0.2c-0.7,0.6-1.4,1.3-2.1,1.9c-0.1,0.3-0.2,0.7-0.3,1.1c-0.1,0.1-0.1,0.2-0.2,0.2c-0.9,0.7-1.8,1.4-2.7,2.1
	c-0.6,0.4-1.3,0.8-1.6,1.4c-0.7,1.3-1.9,2.2-2.8,3.3c-1.1,1.3-2.5,2.5-3.2,4.2c-1.1-0.1-2.3,0.2-3.4-0.2c-0.1-0.3-0.2-0.5-0.2-0.7
	c1.2-1.4,2.4-2.8,3.8-4.5c2.1-1,3.4-3.5,5.8-4.9c0.6-0.8,1.3-1.8,2-2.7c0.5-0.3,1.1-0.6,1.6-0.9c0.7-0.8,1.3-1.7,2.2-2.2
	C158.5,37.3,158.6,36,159.8,35.7z"/>
</svg>
