<?xml version="1.0" encoding="utf-8"?>
<svg version="1.1" xmlns="http://www.w3.org/2000/svg" x="0px"
     y="0px" width="512px" height="512px" viewBox="0 0 512 512" enable-background="new 0 0 512 512" xml:space="preserve">
<path fill-rule="evenodd" clip-rule="evenodd" fill="#0F2172" d="M113.5,484.6c8.4-5.5,16.6-10.4,24.3-16.1
	c17.2-12.8,34-26.3,45-44.9c8.2-13.8,14.3-29,16.5-45.3c0.3-2.5,0.8-5.1,1.7-7.5c3.8-9.8,5.5-19.6,0.5-29.7c0.4-0.4,0.7-0.8,1.1-1.2
	c3.2,1.5,6.3,2.9,9.8,4.5c8.1-7.3,9.3-21.1,21.7-26.2c-7.3,8.4-5.7,18.2-3.6,27.5c2.3,9.8,10.7,15.7,17.6,22.3
	c2.6,2.4,5.8,4.2,8.4,6.6c8.5,7.6,18.2,7.6,28.5,5.3c11-2.4,22.1-4,32.9-7c3.7-1,6.6-5.1,9.8-7.9c7.1-6.2,14.1-12.4,21.1-18.6
	c6.8-6,13.6-12.1,20.8-17.8c-7.9,16.3-18,31.2-31.3,43.2c-6.8,6.1-15.6,10-23.7,14.6c-13.4,7.7-28.1,11.3-43,14.5
	c-2,0.4-3.6,2.8-5.5,4.5c11.6,9,20.9,18.3,28.1,30.2c4.3,7.1,11.1,13.3,20.1,16c11.7,3.5,23.3,7.5,34.7,11.9
	c9.2,3.5,18.4,4.7,28.1,4.2c6.2-0.3,12.3-0.1,18.9,1.3c-3,1.1-6,3-9.1,3.1c-22.1,0.7-44.2,1.3-66.3,1.2c-10.3,0-18.4-6.9-26.4-12.3
	c-10.3-7-19.4-15.9-29.7-22.8c-4.6-3-11-3.6-16.7-4.4c-10.2-1.4-20.7-2.9-30.6,1.1c-4.7,1.9-9.1,5.3-13,8.9
	c-11.8,10.8-26.3,16.9-40.5,23.5c-10.7,5-21.8,9.1-32.9,13.1C125.3,482.1,119.4,483.1,113.5,484.6z"/>
  <path fill-rule="evenodd" clip-rule="evenodd" d="M240.3,186c6.9,1.6,13.6,3.2,20.2,4.7c18.9,4.3,26.6,19.8,34.1,35
	c6.4,13.1,11.2,27,18.7,39.4c3.8,6.3,11.4,11.1,18.3,14.4c7.6,3.7,16.4,6.8,24.7,7.1c13.4,0.5,26-1.9,37.4-11.5
	c12.8-10.6,14.4-25.8,20.6-39.1c0.6-1.2,1-2.6,1.6-4.4c7.2,11.5,8.8,23.5,5.6,35.9c-1.9,7.6-4,15.4-7.6,22.2
	c-8.9,16.5-21.9,28.5-41.3,30.9c-14.6,1.8-29.3,2.4-44,3.8c-14.9,1.4-24-7.2-31.6-18.2c-2.2-3.2-3.6-7.2-6.3-10
	c-6.4-6.7-6.1-15.1-7.1-23.3c-1.3-11.4-0.6-23.5-4.2-34.1c-4.8-14-11.9-27.6-20-40C255.9,193.2,247.3,190.5,240.3,186z"/>
  <path fill-rule="evenodd" clip-rule="evenodd" d="M187.7,218.9c-2.9,7.1-3.9,16.9-14.7,20.2c-16.7,5-33.2,10.6-49.9,15.3
	c-13.6,3.8-27.5,6.8-41.3,9.8c-5.2,1.2-10.5,2-15.8,2.3c-10.2,0.7-20.6-0.2-30.5,1.6c-11.3,2-19,6.7-14.7,23.7
	c0.5,1.9,0.6,3.8,0.3,6.1c-7.9-6.6-17-12.3-18.7-23.6c-1.2-8-2.2-16.3,1.2-23.9c2.2-4.9,5-9.9,8.5-13.9c6.5-7.5,13.3-14.9,20.9-21.1
	c3.7-3,9.8-2.9,14.3-5.2c11-5.7,21.4-2.8,31.5,1.9c8.2,3.8,15.6,9.3,23.9,12.7c8.6,3.5,17.8,6.2,27,7.9c8,1.5,16.3,1.5,24.5,1.3
	c6.3-0.1,13.1-0.2,18.6-2.8C178.5,228.2,183.1,222.7,187.7,218.9z"/>
  <path fill-rule="evenodd" clip-rule="evenodd" d="M510.9,416.8c1.9,9.1-3.8,14.7-8,20.7c-4.8,6.8-9.1,14.3-15.3,19.6
	c-7.1,6-15.9,10.1-24.1,14.6c-0.9,0.5-3.2-1-4.7-1.8c-12.3-7-24.6-14.2-37-21.1c-2.3-1.3-5.2-1.9-7.9-1.9
	c-19.9-0.5-39.8-0.4-59.6-1.7c-4.8-0.3-10.8-4.1-13.7-8.1c-6.9-9.8-12.6-20.5-18.2-31.1c-1.6-3.1-1.1-7.3-0.6-11.4
	c1,1.3,2.3,2.4,3,3.9c6.1,13.3,18.1,15.8,30.8,17c8,0.7,14.9-0.7,21.7-5.8c3.8-2.9,9.9-2.7,15-3.9c13.9-3.2,25.8,1.7,37.6,8.7
	c12.7,7.6,25.7,14.9,39,21.3c5.7,2.7,12.4,3.4,18.4-1.6C494.7,428,502.7,422.8,510.9,416.8z"/>
  <path fill-rule="evenodd" clip-rule="evenodd" d="M213.6,149.7c12.3-6.4,14.1-19.1,18.1-30.3c4.1-11.5-5.2-19.9-8-29.8
	c-1.6-5.6-4.3-11-5-16.7c-1.7-15,7-25.3,18-33.5c6.6-4.9,14.3-8.2,21.5-12.2c0.6,0.7,1.1,1.3,1.7,2c-0.9,1.5-1.6,3.1-2.6,4.5
	c-7.9,10.9-12,27.9-3.5,39.7c4.6,6.4,10.2,12.1,15.3,18.3c6.1,7.3,11.7,15.7,9.6,25.2c-4.6,21-13,39.9-40,41.5
	C228,158.8,221.5,153.4,213.6,149.7z"/>
  <path fill-rule="evenodd" clip-rule="evenodd" d="M482.1,79.9c0.5,10.4-1.1,18.5-6.8,26.5c-7,9.8-15.5,17.8-24.6,25.3
	c-9.7,8-21.7,10.3-33.4,12.3c-9.6,1.6-19.6,1.7-29.3,1.3c-20.1-0.8-39.6,3.6-59.5,4.8c-14.9,0.9-26.8,9.2-39.5,15.3
	c-10.8,5.2-20.7,4.7-31.8-1.6c13.2-1.2,22.5-8.2,30.3-16.8c10.1-11.3,23.8-16.4,36.7-22.7c4.4-2.1,10.2-1.7,15.3-1.7
	c23-0.2,46-0.1,68.9-0.1c10.9,0,20.9-3.1,31-6.8c10.5-3.9,19.9-8.9,27.3-17.1C471.9,92.9,476.5,86.8,482.1,79.9z"/>
  <path fill-rule="evenodd" clip-rule="evenodd" d="M339.7,244.8c7,12.7,18.5,18.1,29,24.7c-0.1,0.6-0.3,1.3-0.4,1.9
	c-9.6-1.5-19.9-1.4-28.8-4.8c-9.5-3.6-17.7-10.6-21.6-20.8c-2.6-6.8-4.1-13.9-6.5-20.8c-1.3-3.7-3.3-7.1-5.2-10.5
	c-7.8-13.3-17.9-24.4-33.2-29.8c0.2-0.7,0.5-1.4,0.7-2.1c9.8-0.2,19.9-2,29.4-0.2c9,1.8,17.4,7.1,25.8,11.2
	c8,3.9,14.2,9.5,16.9,18.6c1.5,4.9,17,11.3,22.1,10.6c18.8-2.6,32.2-14,44.2-26.1c2.8,21.4-8.9,34.6-27,44.2
	C370.9,248.5,356.3,248.5,339.7,244.8z"/>
  <path fill-rule="evenodd" clip-rule="evenodd" d="M163.4,81.5c8.4-0.1,16.7,0.4,23.1,7.3c5.1,5.4,10,10.9,15.1,16.3
	c5.1,5.3,4.5,12,3.2,18.1c-3.3,15.5-12.5,27.2-26.5,34.5c-10.4,5.4-21.8,9.1-31.7,15.2c-7.1,4.3-13.3,10.7-18.5,17.3
	c-9.2,11.7-22.2,16.9-37.3,13.9c-6.8-1.4-13.7-1.8-20.5-2.9c-1.2-0.2-2.2-1.5-3.4-2.3c1.3-0.8,2.7-2.3,4-2.3
	c13.6,0,23.8-5.6,30.5-17.6c4.2-7.5,9-14.8,13-22.4c2.2-4.3,5.4-6.6,9.9-7.2c10-1.3,20.3-1.6,30-4c10.2-2.6,22-3.6,28.2-14
	c6.3-10.6,5.6-30.3-7.5-39c-4.2-2.8-8.1-6.2-12.1-9.3C163,82.5,163.2,82,163.4,81.5z"/>
  <path fill-rule="evenodd" clip-rule="evenodd" d="M333.5,387.5c17.5-1.3,25.8-15.4,37.7-24.1c2.5-1.9,4.2-5.3,5.6-8.3
	c5.7-12.1,17.1-14.5,28.4-17.3c8.4-2,17.3-3.2,24.8-7.1c5.1-2.6,8.5-9,11.9-14.1c7.4-11.1,9.4-24.2,12.1-36.7
	c2.6-12.3,3.4-25.1,5.1-37.6c1.7-12.1,3.5-24.3,6-36.7c1.6,5.9,3.4,11.8,4.8,17.8c1.8,8.1,3.6,16.2,4.8,24.3
	c1.2,8,1.7,16.2,2.5,24.3c0.3,3.3,1.5,6.8,1,10c-1,6.4-2.8,12.6-4.4,18.8c-0.3,1.1-1.5,2.3-1.3,3.2c1.7,10.6-6.6,16.2-12.4,21.8
	c-8.4,8.2-18.4,15.1-28.5,21.2c-6.6,4-14.4,6.6-22,8c-15.2,2.9-26.6,12.4-39.1,20.1c-5.5,3.4-10.5,7.8-15.6,11.8
	C351,390.3,339.5,391,333.5,387.5z"/>
  <path fill-rule="evenodd" clip-rule="evenodd" fill="#6D1913" d="M236.6,209.7c6.8,8,13.9,15.7,20.4,24c4.1,5.2,8.4,10.8,10.8,16.9
	c5.1,13.1,9.1,26.7,13.6,40.1c3.1,9.4,6.1,18.9,14.8,25.5c-1.6-1-3.3-2-4.9-3c-11.9-7.4-17.5-19.2-22.3-31.7
	c-2.2-5.6-5.3-10.8-8.6-15.9c2.9,15.6,2.8,30.6-3.1,44.8c-8.2-10.4-16.3-20.9-24.2-31c-3.1,8.5-5.2,16.2-8.8,23.2
	c-2,3.8-6.6,6.1-9.6,9.6c-3.4,3.9-6.2,8.4-9,12.4c0-2.4-0.9-6.2,0.2-9.2c2.1-5.7,5.6-10.8,7.9-16.5c1.7-4.3,2.9-9,3.6-13.6
	c2.6-17.5,1.6-34.8-4.7-51.6c-0.2-0.5,0.2-1.2,0.4-2.5c15.3,10.8,17.7,30.4,31.1,43.1c3.7-22.7,0.4-43.6-9.4-63.7
	C235.3,210.2,236,209.9,236.6,209.7z"/>
  <path fill-rule="evenodd" clip-rule="evenodd" d="M158.5,275c2.2,18.1,9.5,36.7-3.6,54c17.9-10.1,32.8-22.4,35.9-44.4
	c1.6-11,4-21.9,6.8-33.1c0,2.2-0.2,4.5,0,6.6c1.2,9.2,3.6,18.4,3.6,27.6c0,7.7-1.3,15.9-4.2,23c-5,12.8-10.2,26.2-21,35.2
	c-7.1,6-16.6,9.6-25.5,12.9c-8.2,3.1-17.1,4.5-25.7,6.5c-3.4,0.8-6.8,1-10.5,0.8c6.2-1.2,10.7-4.4,12.6-10.4
	c3.3-10.1,11.1-16.8,17.4-24.6c7.1-8.7,8.6-19.3,11.1-29.5c1.3-5.1,1.8-10.5,2.4-15.8C158.4,281,158.3,278,158.5,275z"/>
  <path fill-rule="evenodd" clip-rule="evenodd" d="M181.5,176.5c-0.5,16-11.1,22.4-22.7,27c-9.7,3.9-20.1,6.1-31.6,9.4
	c4.8-12.2,11.8-20.4,22.8-24.6C160.4,184.3,170.7,180.5,181.5,176.5z"/>
  <path fill-rule="evenodd" clip-rule="evenodd" d="M201.2,209.4c5.3-6.1,16.7-4.3,17.9-15.2c0.8-7.6,6.7-15.4-1.9-22.4
	c7.2,4.3,12.1,10.3,13,18.3c0.3,2.8-1.9,6.6-4.1,8.7C219.4,205.2,211.7,210.1,201.2,209.4z"/>
  <path fill-rule="evenodd" clip-rule="evenodd" d="M177.5,295.4c8-9.7,10.3-20.8,7-32.8c5-0.8,6.3-0.1,6.2,4.2
	c-0.2,10-2.1,19.5-8.9,27.4c-1.8,2.1-3.5,4.1-6.6,5.9c0.3-1.1,0.6-2.3,0.8-3.4C176.5,296.3,177,295.8,177.5,295.4z"/>
  <path fill-rule="evenodd" clip-rule="evenodd" d="M171.3,301.7c-0.8-5.4-1.2-10.8-2.5-16c-1.2-5.1-3.3-10.1-5.2-15.5
	c0.2-0.1,1.8-0.7,3.5-1.3c7.3,9.8,8.2,20.2,4.2,31.3C171.4,300.7,171.4,301.2,171.3,301.7z"/>
  <path fill-rule="evenodd" clip-rule="evenodd" d="M177.5,295.4c-0.5,0.4-0.9,0.9-1.4,1.3c0-10.4,0-20.8,0-31.1
	c0.4-0.1,0.9-0.2,1.3-0.2c0.4,0.7,1.2,1.4,1.2,2.1c-0.6,8.5,3.4,17.3-1.1,25.6C177.1,293.6,177.5,294.6,177.5,295.4z"/>
  <path fill-rule="evenodd" clip-rule="evenodd" d="M171.3,301.7c0-0.5,0.1-1,0.1-1.5c0.3,0.6,0.7,1.1,1,1.7
	C172.1,301.9,171.7,301.8,171.3,301.7z"/>
</svg>
